<svg id="ai" xmlns="http://www.w3.org/2000/svg" viewBox="0 0 80.622 78.606">
    <g id="vlpb">
        <g id="vlpc">
            <g id="vlpd">
                <path id="Path_699" data-name="Path 699" d="M14.277,0H66.345A14.265,14.265,0,0,1,80.622,14.277V64.33A14.265,14.265,0,0,1,66.345,78.606H14.277A14.265,14.265,0,0,1,0,64.33V14.277A14.265,14.265,0,0,1,14.277,0Z" fill="#300" />
            </g>
        </g>
    </g>
    <g id="vlpe" transform="translate(16.558 17.435)">
        <g id="vlpf">
            <path id="Path_700" data-name="Path 700" d="M71.7,86.542H59.2L56.65,94.436a.588.588,0,0,1-.638.47H49.7c-.369,0-.47-.2-.369-.6l10.817-31.14c.1-.336.2-.705.336-1.109a11.735,11.735,0,0,0,.2-2.184.333.333,0,0,1,.269-.37h8.7c.269,0,.4.1.437.269l12.261,34.6c.1.37,0,.537-.336.537H74.992a.507.507,0,0,1-.537-.37L71.7,86.542ZM61.152,79.723h8.532c-.2-.705-.47-1.545-.773-2.419-.3-.907-.6-1.881-.907-2.889-.336-1.041-.638-2.049-.974-3.091s-.638-2.016-.907-2.99c-.269-.941-.5-1.814-.739-2.62h-.067a41.234,41.234,0,0,1-1.142,4.333c-.5,1.612-1.008,3.292-1.545,4.972-.47,1.713-.974,3.292-1.478,4.7Z" transform="translate(-49.29 -56.947)" fill="#ff9a00" />
            <path id="Path_701" data-name="Path 701" d="M161.828,60.332a4.158,4.158,0,0,1-2.99-1.176,4.364,4.364,0,0,1-1.142-3.091,3.952,3.952,0,0,1,1.209-2.99A4.3,4.3,0,0,1,161.9,51.9a4.022,4.022,0,0,1,3.057,1.176,4.618,4.618,0,0,1-.067,6.08A3.95,3.95,0,0,1,161.828,60.332ZM158.066,89.49V63.624c0-.336.134-.47.437-.47h6.651c.3,0,.437.168.437.47V89.49c0,.37-.134.538-.437.538H158.57A.47.47,0,0,1,158.066,89.49Z" transform="translate(-121.279 -51.9)" fill="#ff9a00" />
        </g>
    </g>
</svg>