<svg id="Amazon_Web_Services_Logo" xmlns="http://www.w3.org/2000/svg" viewBox="0 0 97.862 58.521">
    <path id="Path_751" data-name="Path 751" d="M37.632,22.354a9.848,9.848,0,0,0,.358,2.9,17.421,17.421,0,0,0,1.042,2.343,1.416,1.416,0,0,1,.228.749,1.289,1.289,0,0,1-.618.976l-2.051,1.367a1.561,1.561,0,0,1-.846.293,1.5,1.5,0,0,1-.976-.456,10.069,10.069,0,0,1-1.172-1.53c-.325-.553-.651-1.172-1.009-1.92a12.024,12.024,0,0,1-9.569,4.492,8.918,8.918,0,0,1-6.51-2.343A8.361,8.361,0,0,1,14.1,22.972a8.379,8.379,0,0,1,2.962-6.7,11.841,11.841,0,0,1,7.974-2.539,25.77,25.77,0,0,1,3.45.26c1.2.163,2.441.423,3.743.716V12.329c0-2.474-.521-4.2-1.53-5.208-1.042-1.009-2.8-1.5-5.305-1.5a14.809,14.809,0,0,0-3.515.423,25.935,25.935,0,0,0-3.515,1.107,9.339,9.339,0,0,1-1.139.423,2,2,0,0,1-.521.1c-.456,0-.684-.325-.684-1.009V5.071a2.059,2.059,0,0,1,.228-1.139,2.437,2.437,0,0,1,.911-.684,18.738,18.738,0,0,1,4.1-1.465,19.733,19.733,0,0,1,5.077-.618c3.873,0,6.7.879,8.528,2.636,1.79,1.758,2.7,4.427,2.7,8.007V22.354ZM24.418,27.3a10.548,10.548,0,0,0,3.352-.586,7.253,7.253,0,0,0,3.092-2.083,5.166,5.166,0,0,0,1.107-2.083,11.685,11.685,0,0,0,.325-2.832V18.35A27.182,27.182,0,0,0,29.3,17.8a24.525,24.525,0,0,0-3.06-.2,7.5,7.5,0,0,0-4.85,1.3A4.537,4.537,0,0,0,19.8,22.647,4.543,4.543,0,0,0,21,26.1,4.513,4.513,0,0,0,24.418,27.3Zm26.136,3.515a1.817,1.817,0,0,1-1.237-.325,2.653,2.653,0,0,1-.684-1.269L40.985,4.062a5.7,5.7,0,0,1-.293-1.3.714.714,0,0,1,.781-.814h3.19a1.8,1.8,0,0,1,1.269.325,2.663,2.663,0,0,1,.651,1.269l5.468,21.547L57.128,3.541a2.283,2.283,0,0,1,.618-1.269,2.239,2.239,0,0,1,1.3-.325h2.6a1.959,1.959,0,0,1,1.3.325,2.193,2.193,0,0,1,.618,1.269l5.143,21.807L74.346,3.541A2.791,2.791,0,0,1,75,2.272a2.123,2.123,0,0,1,1.269-.325h3.027a.724.724,0,0,1,.814.814,3.246,3.246,0,0,1-.065.521,4.631,4.631,0,0,1-.228.814L71.97,29.254a2.5,2.5,0,0,1-.684,1.269,2.082,2.082,0,0,1-1.237.325h-2.8a1.959,1.959,0,0,1-1.3-.325,2.307,2.307,0,0,1-.618-1.3L60.286,8.228,55.273,29.189a2.541,2.541,0,0,1-.618,1.3,2.017,2.017,0,0,1-1.3.325Zm41.824.879a21.539,21.539,0,0,1-5.012-.586,14.807,14.807,0,0,1-3.743-1.3,2.345,2.345,0,0,1-1.009-.911,2.3,2.3,0,0,1-.2-.911v-1.66c0-.684.26-1.009.749-1.009a1.843,1.843,0,0,1,.586.1c.2.065.488.2.814.325a17.7,17.7,0,0,0,3.58,1.139,19.547,19.547,0,0,0,3.873.391,8.782,8.782,0,0,0,4.752-1.074A3.5,3.5,0,0,0,98.464,23.1a3.17,3.17,0,0,0-.879-2.278A8.166,8.166,0,0,0,94.3,19.132l-4.719-1.465a9.928,9.928,0,0,1-5.208-3.32,7.755,7.755,0,0,1-1.627-4.719,7.244,7.244,0,0,1,.879-3.613,8.369,8.369,0,0,1,2.343-2.669,10.331,10.331,0,0,1,3.385-1.692,14.186,14.186,0,0,1,4.1-.553,16.339,16.339,0,0,1,2.181.13c.749.1,1.432.228,2.116.358.651.163,1.269.325,1.855.521a7.1,7.1,0,0,1,1.367.586,2.815,2.815,0,0,1,.976.814,1.754,1.754,0,0,1,.293,1.074v1.53c0,.684-.26,1.042-.749,1.042a3.386,3.386,0,0,1-1.237-.391,14.89,14.89,0,0,0-6.249-1.269,8.4,8.4,0,0,0-4.329.911,3.143,3.143,0,0,0-1.53,2.9,3.073,3.073,0,0,0,.976,2.311A9.722,9.722,0,0,0,92.7,13.4l4.622,1.465a9.9,9.9,0,0,1,5.045,3.125,7.365,7.365,0,0,1,1.5,4.557,8.367,8.367,0,0,1-.846,3.776,8.754,8.754,0,0,1-2.376,2.864,10.492,10.492,0,0,1-3.613,1.823A15.477,15.477,0,0,1,92.378,31.7Z" transform="translate(-10.054 -1.1)" fill="#f8f8f8" />
    <g id="Group_2126" data-name="Group 2126" transform="translate(0 36.484)">
        <path id="Path_752" data-name="Path 752" d="M90.144,127.136c-10.708,7.909-26.266,12.108-39.643,12.108A71.719,71.719,0,0,1,2.1,120.789c-1.009-.911-.1-2.148,1.107-1.432A97.607,97.607,0,0,0,51.64,132.213a96.647,96.647,0,0,0,36.942-7.551C90.372,123.848,91.9,125.834,90.144,127.136Z" transform="translate(-1.668 -117.206)" fill="#f90" fill-rule="evenodd" />
        <path id="Path_753" data-name="Path 753" d="M259.4,118.044c-1.367-1.758-9.048-.846-12.531-.423-1.042.13-1.2-.781-.26-1.465,6.119-4.3,16.176-3.059,17.348-1.627,1.172,1.465-.326,11.522-6.054,16.339-.879.749-1.725.358-1.335-.618C257.871,127.028,260.768,119.769,259.4,118.044Z" transform="translate(-166.466 -113.192)" fill="#f90" fill-rule="evenodd" />
    </g>
</svg>
