<svg xmlns="http://www.w3.org/2000/svg" width="286.799" height="94.442" viewBox="0 0 286.799 94.442"><g transform="translate(-1728.278 -651.62)"><g style="isolation:isolate"><g style="isolation:isolate"><path d="M1728.278,714.262v-3.04c5.441-.64,6.08-1.2,6.08-5.521V666.66c0-4.319-.639-4.88-6.08-5.519V658.1h27.281c12.4,0,19.52,4.719,19.52,14,0,8.08-7.359,12.16-15.04,12.961,10.641.4,18.4,5.359,18.4,14,0,10-7.52,15.2-21.76,15.2Zm19.681-52.722v21.841H1751c7.36,0,11.04-3.76,11.04-11.12,0-7.12-4.16-10.721-11.12-10.721Zm0,25.761v18.081c0,4.319,1.68,5.439,6.24,5.439h.72c6.4,0,10.16-4,10.16-11.92,0-7.2-3.92-11.6-12.56-11.6Z" fill="#f1f1f4"/><path d="M1820.919,705.462c0,2.319.4,4,2.4,4a7.359,7.359,0,0,0,2.96-.641l.481,1.92a12.455,12.455,0,0,1-9.76,4.321c-4.48,0-7.52-2.56-8.561-6.88-2.48,3.36-6.48,6.719-12.24,6.719-6.64,0-11.12-3.919-11.12-10.559,0-6.961,4.88-9.761,10.72-11.921l12.4-4.4v-7.441c0-4.16-1.28-7.04-4.96-7.04-3.44,0-4.88,2.72-4.88,6.56a20.321,20.321,0,0,0,.72,5.2l-7.68,1.04a5.247,5.247,0,0,1-3.76-5.28c0-6.96,7.2-10.321,16.48-10.321,10.641,0,16.8,3.6,16.8,13.521Zm-12.721.56v-14.88l-5.679,2.239c-3.121,1.28-5.121,2.881-5.121,7.44,0,4.161,1.76,7.121,5.92,7.121C1805.158,707.942,1806.438,707.222,1808.2,706.022Z" fill="#f1f1f4"/><path d="M1854.118,706.182a12.241,12.241,0,0,0,10.88-5.6l1.6.88c-2.56,9.2-8.72,13.6-17.281,13.6-10.96,0-19.12-8-19.12-20.8,0-13.441,8.321-23.522,21.281-23.522,7.92,0,13.92,3.12,13.92,9.681a5.983,5.983,0,0,1-3.28,5.6h-6.8a39.06,39.06,0,0,0,.321-4.241c0-4.4-1.36-7.76-5.52-7.76-5.52,0-8.8,6.64-8.8,15.2C1841.317,699.541,1846.038,706.182,1854.118,706.182Z" fill="#f1f1f4"/><path d="M1875.4,659.78l-4.639-2.4v-2l15.36-3.761h2.08V708.1c0,2.639,1.28,3.04,4.8,3.28v2.88h-22.4v-2.88c3.519-.24,4.8-.641,4.8-3.28Zm25.921,20.481c1.76-1.6,2.48-2.56,2.48-3.6,0-1.52-1.279-1.84-4.96-2.24v-2.88h17.52v2.88c-2.8.479-4.559.96-6.559,2.96l-9.921,9.28,18.161,25.6v2h-13.52l-15.6-22.721Z" fill="#f1f1f4"/></g></g><g style="isolation:isolate"><g style="isolation:isolate"><path d="M1909.319,718.861v1.84h-25.84c-.241,10.481,5.28,16.721,12.8,16.721a13.717,13.717,0,0,0,12-6.16l1.361.8c-2.08,8.4-8.08,14-17.761,14-11.681,0-20-8.241-20-21.12,0-14,9.279-23.2,20.559-23.2C1903.56,701.74,1909.319,708.941,1909.319,718.861Zm-25.68-1.44h14.4c0-7.6-1.76-12.561-6.48-12.561C1886.679,704.86,1884.119,710.061,1883.639,717.421Z" fill="#828495"/><path d="M1945.879,715.741c0-4.16-1.521-6.32-5.76-6.32a14.8,14.8,0,0,0-7.921,2.56V739.1c0,2.639,1.12,3.04,4.561,3.28v2.88H1914.6v-2.88c3.439-.24,4.719-.641,4.719-3.28V710.861l-4.64-2.8v-1.84l15.44-4.481h2.4l-.321,7.921c3.2-3.92,7.761-7.921,14.8-7.921,7.6,0,11.76,4.321,11.76,13.041V739.1c0,2.639,1.28,3.04,4.72,3.28v2.88h-22.161v-2.88c3.441-.24,4.561-.641,4.561-3.28Z" fill="#828495"/><path d="M1992.6,688.381v-2l15.44-3.761h2.08v53.842c0,2.72.16,3.76,3.04,3.92l1.92.08v2.8l-15.76,2.8H1997l.24-7.52c-3.28,4.72-7.44,7.52-12.961,7.52-9.519,0-16.08-7.6-16.08-20.161,0-15.36,9.12-23.92,20.721-23.92a12.907,12.907,0,0,1,8.32,2.56V690.78Zm-11.6,33.28c0,9.84,3.76,16.881,10.48,16.881a9.354,9.354,0,0,0,5.76-1.841V715.022c0-5.841-2.08-9.122-6.56-9.122C1984.437,705.9,1981,712.221,1981,721.661Z" fill="#828495"/></g></g></g></svg>