<svg width="90"  viewBox="0 0 105 60" fill="none" xmlns="http://www.w3.org/2000/svg">
<g id="bitbucket">
<g id="bitbucket_2">
<path id="Vector" d="M3.17785 0.107831C2.8896 0.10409 2.60403 0.163885 2.3412 0.283019C2.07836 0.402152 1.84462 0.577735 1.65639 0.797441C1.46817 1.01715 1.33002 1.27565 1.25165 1.5548C1.17327 1.83394 1.15657 2.12697 1.20272 2.41331L9.58716 53.6306C9.69163 54.2574 10.0122 54.8271 10.4926 55.2396C10.973 55.6521 11.5825 55.8811 12.2141 55.8864H52.4377C52.9111 55.8925 53.371 55.7273 53.7335 55.4209C54.096 55.1145 54.3371 54.6872 54.4128 54.2169L62.7973 2.42324C62.8434 2.13691 62.8267 1.84388 62.7483 1.56473C62.67 1.28559 62.5318 1.02708 62.3436 0.807378C62.1554 0.587673 61.9216 0.412089 61.6588 0.292956C61.3959 0.173823 61.1104 0.114028 60.8221 0.117768L3.17785 0.107831ZM38.4834 37.1246H25.645L22.1688 18.8498H41.5942L38.4834 37.1246Z" fill="#2684FF"/>
<path id="Vector_2" d="M60.1308 18.8497H41.5942L38.4834 37.1246H25.645L10.4858 55.2305C10.9663 55.6486 11.5789 55.8811 12.2141 55.8864H52.4475C52.921 55.8925 53.3808 55.7273 53.7434 55.4209C54.1059 55.1145 54.347 54.6872 54.4227 54.2169L60.1308 18.8497Z" fill="url(#paint0_linear_8_63)"/>
</g>
</g>
<defs>
<linearGradient id="paint0_linear_8_63" x1="64.4169" y1="23.9675" x2="33.6382" y2="47.8399" gradientUnits="userSpaceOnUse">
<stop offset="0.18" stop-color="#0052CC"/>
<stop offset="1" stop-color="#2684FF"/>
</linearGradient>
</defs>
</svg>
