<svg viewBox="0 0 62 56" fill="none" xmlns="http://www.w3.org/2000/svg">
<path d="M2.17785 0.107831C1.8896 0.10409 1.60403 0.163885 1.3412 0.283019C1.07836 0.402152 0.844619 0.577735 0.656394 0.797441C0.468169 1.01715 0.33002 1.27565 0.251645 1.5548C0.17327 1.83394 0.156571 2.12697 0.202718 2.41331L8.58716 53.6306C8.69163 54.2574 9.01222 54.8271 9.49263 55.2396C9.97304 55.6521 10.5825 55.8811 11.2141 55.8864H51.4377C51.9111 55.8925 52.371 55.7273 52.7335 55.4209C53.096 55.1145 53.3371 54.6872 53.4128 54.2169L61.7973 2.42324C61.8434 2.13691 61.8267 1.84388 61.7483 1.56473C61.67 1.28559 61.5318 1.02708 61.3436 0.807378C61.1554 0.587673 60.9216 0.412089 60.6588 0.292956C60.3959 0.173823 60.1104 0.114028 59.8221 0.117768L2.17785 0.107831ZM37.4834 37.1246L24.645 37.1246L21.1688 18.8497H40.5943L37.4834 37.1246Z" fill="#2684FF"/>
<path d="M59.1308 18.8497H40.5943L37.4834 37.1246L24.645 37.1246L9.48584 55.2305C9.96632 55.6486 10.5789 55.8811 11.2141 55.8864L51.4475 55.8864C51.921 55.8925 52.3808 55.7273 52.7434 55.4209C53.1059 55.1145 53.347 54.6872 53.4227 54.2169L59.1308 18.8497Z" fill="#2684FF"/>
</svg>
