<svg id="bootstrap" xmlns="http://www.w3.org/2000/svg" xmlns:xlink="http://www.w3.org/1999/xlink" viewBox="0 0 38.966 31.051">
    <defs>
        <linearGradient id="linear-gradient" x1="0.144" x2="0.844" y2="0.975" gradientUnits="objectBoundingBox">
            <stop offset="0" stop-color="#8f13fe" />
            <stop offset="1" stop-color="#640fe9" />
        </linearGradient>
    </defs>
    <path id="Path_697" data-name="Path 697" d="M4.3,4.058A3.883,3.883,0,0,1,8.093,0H30.876A3.883,3.883,0,0,1,34.67,4.058a21.828,21.828,0,0,0,.682,6.8c.663,2.149,1.782,3.507,3.613,3.681v1.979c-1.832.175-2.95,1.533-3.613,3.681a21.829,21.829,0,0,0-.682,6.8,3.883,3.883,0,0,1-3.795,4.058H8.093A3.883,3.883,0,0,1,4.3,26.993a21.829,21.829,0,0,0-.682-6.8C2.953,18.047,1.832,16.689,0,16.515V14.536C1.832,14.362,2.953,13,3.616,10.855A21.826,21.826,0,0,0,4.3,4.058Z" transform="translate(0 0)" fill="url(#linear-gradient)" />
    <path id="Path_698" data-name="Path 698" d="M184.69,111.972c3.6,0,5.769-1.762,5.769-4.669a4.012,4.012,0,0,0-3.846-4.04v-.092a3.69,3.69,0,0,0,3.013-3.594c0-2.495-1.97-4.12-4.971-4.12H177.9v16.515Zm-4.162-14.42h3.494c1.9,0,2.978.847,2.978,2.381,0,1.637-1.255,2.552-3.529,2.552h-2.943Zm0,12.326v-5.436H184c2.486,0,3.775.916,3.775,2.7s-1.255,2.735-3.623,2.735Z" transform="translate(-164.362 -88.192)" fill="#fff" stroke="#fff" stroke-width="1" />
</svg>