<svg viewBox="0 0 59 56" fill="none" xmlns="http://www.w3.org/2000/svg">
<path d="M2.88514 42.3561C2.29158 43.3152 1.62496 44.428 1.05879 45.3147C0.815182 45.7225 0.742804 46.2088 0.857211 46.669C0.971618 47.1291 1.26368 47.5265 1.67062 47.7756L13.5419 55.0136C13.7482 55.1398 13.9778 55.224 14.2173 55.2614C14.4568 55.2987 14.7014 55.2885 14.9368 55.2312C15.1723 55.1739 15.3939 55.0708 15.5887 54.9278C15.7835 54.7848 15.9476 54.6048 16.0714 54.3983C16.5463 53.6112 17.1581 52.5888 17.8247 51.4941C22.5276 43.8037 27.2578 44.7447 35.7869 48.7798L47.5578 54.326C47.7784 54.43 48.0179 54.4891 48.2621 54.4998C48.5062 54.5105 48.75 54.4725 48.9791 54.3882C49.2082 54.3038 49.4178 54.1748 49.5956 54.0087C49.7734 53.8426 49.9158 53.6428 50.0142 53.4212L55.6668 40.7547C55.8588 40.3199 55.8706 39.8278 55.6998 39.3844C55.529 38.941 55.1892 38.5818 54.7536 38.3843C52.2698 37.2262 47.3295 34.9191 42.8823 32.7929C26.8834 25.0935 13.2862 25.5912 2.88514 42.3561Z" fill="#2684FF"/>
<path d="M56.1146 13.6123C56.7081 12.6532 57.3748 11.5404 57.9409 10.6538C58.1845 10.2459 58.2569 9.75961 58.1425 9.29944C58.0281 8.83927 57.736 8.44194 57.3291 8.19284L45.4578 0.954856C45.25 0.816168 45.0155 0.721335 44.7691 0.676258C44.5227 0.63118 44.2696 0.636822 44.0255 0.692832C43.7814 0.748841 43.5515 0.854021 43.3502 1.00183C43.1488 1.14963 42.9804 1.3369 42.8552 1.55199C42.3804 2.33912 41.7686 3.36149 41.1019 4.45623C36.3991 12.1466 31.6688 11.2057 23.1397 7.17047L11.4054 1.65151C11.1847 1.54745 10.9453 1.48833 10.7011 1.47764C10.457 1.46695 10.2132 1.50492 9.98409 1.58928C9.75503 1.67365 9.54539 1.8027 9.36758 1.9688C9.18978 2.1349 9.04742 2.33466 8.94896 2.55626L3.29639 15.2227C3.10443 15.6576 3.09259 16.1497 3.2634 16.5931C3.43421 17.0365 3.77401 17.3956 4.20957 17.5932C6.69341 18.7512 11.6337 21.0584 16.0809 23.1845C32.1163 30.8749 45.7135 30.3592 56.1146 13.6123Z" fill="#2684FF"/>
</svg>
