<svg width="90"  viewBox="0 0 83 60" fill="none" xmlns="http://www.w3.org/2000/svg">
<g id="confulence">
<g id="confulence_2">
<path id="Vector" d="M5.88514 42.3561C5.29158 43.3151 4.62496 44.428 4.05879 45.3146C3.81518 45.7225 3.7428 46.2088 3.85721 46.6689C3.97162 47.1291 4.26368 47.5265 4.67062 47.7755L16.5419 55.0135C16.7482 55.1397 16.9778 55.224 17.2173 55.2613C17.4568 55.2987 17.7014 55.2884 17.9368 55.2312C18.1723 55.1739 18.3939 55.0708 18.5887 54.9278C18.7835 54.7848 18.9476 54.6048 19.0714 54.3983C19.5463 53.6112 20.1581 52.5888 20.8247 51.4941C25.5276 43.8037 30.2578 44.7446 38.7869 48.7798L50.5578 54.3259C50.7784 54.43 51.0179 54.4891 51.2621 54.4998C51.5062 54.5105 51.75 54.4725 51.9791 54.3882C52.2082 54.3038 52.4178 54.1747 52.5956 54.0086C52.7734 53.8425 52.9158 53.6428 53.0142 53.4212L58.6668 40.7547C58.8588 40.3199 58.8706 39.8277 58.6998 39.3843C58.529 38.941 58.1892 38.5818 57.7536 38.3843C55.2698 37.2262 50.3295 34.9191 45.8823 32.7929C29.8834 25.0935 16.2862 25.5911 5.88514 42.3561Z" fill="url(#paint0_linear_8_67)"/>
<path id="Vector_2" d="M59.1148 13.6123C59.7084 12.6532 60.375 11.5404 60.9411 10.6538C61.1847 10.2459 61.2571 9.75961 61.1427 9.29944C61.0283 8.83927 60.7363 8.44194 60.3293 8.19284L48.458 0.954856C48.2502 0.816168 48.0158 0.721335 47.7694 0.676258C47.5229 0.63118 47.2698 0.636822 47.0257 0.692832C46.7816 0.748841 46.5517 0.854021 46.3504 1.00183C46.1491 1.14963 45.9806 1.3369 45.8555 1.55199C45.3806 2.33912 44.7688 3.36149 44.1022 4.45623C39.3993 12.1466 34.669 11.2057 26.14 7.17047L14.4056 1.65151C14.185 1.54745 13.9455 1.48833 13.7013 1.47764C13.4572 1.46695 13.2134 1.50492 12.9843 1.58928C12.7553 1.67365 12.5456 1.8027 12.3678 1.9688C12.19 2.1349 12.0476 2.33466 11.9492 2.55626L6.29661 15.2227C6.10465 15.6576 6.0928 16.1497 6.26362 16.5931C6.43443 17.0365 6.77423 17.3956 7.20978 17.5932C9.69363 18.7512 14.6339 21.0584 19.0811 23.1845C35.1165 30.8749 48.7137 30.3592 59.1148 13.6123Z" fill="url(#paint1_linear_8_67)"/>
</g>
</g>
<defs>
<linearGradient id="paint0_linear_8_67" x1="58.3472" y1="58.7501" x2="22.598" y2="38.0164" gradientUnits="userSpaceOnUse">
<stop offset="0.18" stop-color="#0052CC"/>
<stop offset="1" stop-color="#2684FF"/>
</linearGradient>
<linearGradient id="paint1_linear_8_67" x1="6.65275" y1="-2.7908" x2="42.4109" y2="17.9521" gradientUnits="userSpaceOnUse">
<stop offset="0.18" stop-color="#0052CC"/>
<stop offset="1" stop-color="#2684FF"/>
</linearGradient>
</defs>
</svg>
