<svg xmlns="http://www.w3.org/2000/svg" viewBox="0 0 362.734 512">
    <g id="layer1" transform="translate(-193.633 -276.362)">
        <g id="g3013" transform="translate(119 276.362)">
            <path id="polygon2989" d="M437.367,100.62l-33.046,370.2L255.778,512,107.644,470.877,74.633,100.62Z" fill="#264de4" />
            <path id="polygon2991" d="M376.03,447.246l28.24-316.352H256V480.523Z" fill="#2965f1" />
            <path id="polygon2993" d="M150.31,268.217l4.07,45.41H256v-45.41Z" fill="#ebebeb" />
            <path id="polygon2995" d="M256,176.3H142.132l4.128,45.411H256Z" fill="#ebebeb" />
            <path id="polygon2997" d="M256,433.4V386.153l-.2.053L205.227,372.55l-3.233-36.217H156.409l6.362,71.3,93.02,25.823Z" fill="#ebebeb" />
            <path id="path2999" d="M160,0h55V23H183V46h32V69H160Z" fill="#fff" />
            <path id="path3001" d="M226,0h55V20H249v4h32V70H226V49h32V45H226Z" fill="#fff" />
            <path id="path3003" d="M292,0h55V20H315v4h32V70H292V49h32V45H292Z" fill="#fff" />
            <path id="polygon3005" d="M311.761,313.627l-5.271,58.894-50.647,13.67v47.244l93.094-25.8.683-7.672,10.671-119.551,1.108-12.194,8.2-91.912H255.843v45.411h63.988l-4.132,46.5H255.843v45.41Z" fill="#fff" />
        </g>
    </g>
</svg>
