<svg id="XMLID_229_" xmlns="http://www.w3.org/2000/svg" viewBox="0 0 112.43 84.091">
    <g id="XMLID_690_" transform="translate(28.075)">
        <g id="XMLID_691_">
            <g id="Group_2125" data-name="Group 2125">
                <g id="XMLID_44_">
                    <g id="XMLID_48_">
                        <path id="XMLID_49_" d="M116.939,101.4V90.484a17.317,17.317,0,0,0,16.08-23.609,16.338,16.338,0,0,0-9.731-9.7,17.33,17.33,0,0,0-23.609,16.08H88.8a28.236,28.236,0,0,1,37.1-26.735,27.244,27.244,0,0,1,17.77,17.77A28.236,28.236,0,0,1,116.939,101.4Z" transform="translate(-88.8 -45.125)" fill="#0080ff" />
                    </g>
                    <path id="XMLID_47_" d="M153.879,164.279H143V153.4h10.879Z" transform="translate(-125.708 -118.856)" fill="#0080ff" fill-rule="evenodd" />
                    <path id="XMLID_46_" d="M125.227,195.827H116.9V187.5h8.327Z" transform="translate(-107.935 -142.077)" fill="#0080ff" fill-rule="evenodd" />
                    <path id="XMLID_45_" d="M101.987,172.587H95V165.6h6.987Z" transform="translate(-93.022 -127.164)" fill="#0080ff" fill-rule="evenodd" />
                </g>
            </g>
        </g>
    </g>
    <g id="XMLID_234_" transform="translate(0 65.586)">
        <path id="XMLID_677_" d="M10.5,252.968A8.944,8.944,0,0,0,5.267,251.5H.8v14.2H5.3a8.552,8.552,0,0,0,5.232-1.563,5.621,5.621,0,0,0,1.819-2.265,8.475,8.475,0,0,0,.638-3.35,8.316,8.316,0,0,0-.638-3.318A5.149,5.149,0,0,0,10.5,252.968Zm-7.083.925h1.4a7.234,7.234,0,0,1,3.828.925c1.085.67,1.627,1.914,1.627,3.7,0,1.85-.542,3.158-1.627,3.86h0a6.887,6.887,0,0,1-3.8.925H3.416Z" transform="translate(-0.8 -251.245)" fill="#0080ff" />
        <path id="XMLID_676_" d="M45.363,250.9a1.594,1.594,0,0,0-1.117.447,1.466,1.466,0,0,0-.447,1.085,1.594,1.594,0,0,0,.447,1.117,1.54,1.54,0,0,0,1.117.447,1.652,1.652,0,0,0,1.117-.447,1.54,1.54,0,0,0,.447-1.117,1.466,1.466,0,0,0-.447-1.085A1.652,1.652,0,0,0,45.363,250.9Z" transform="translate(-30.081 -250.836)" fill="#0080ff" />
        <rect id="XMLID_675_" width="2.52" height="10.018" transform="translate(14.006 4.435)" fill="#0080ff" />
        <path id="XMLID_670_" d="M65.638,264.885a3.823,3.823,0,0,0-2.52-1.085,4.5,4.5,0,0,0-3.446,1.436,5.012,5.012,0,0,0-1.372,3.605,5.072,5.072,0,0,0,1.34,3.573,4.641,4.641,0,0,0,3.446,1.4,3.878,3.878,0,0,0,2.488-.8v.223a2.59,2.59,0,0,1-.67,1.914,2.457,2.457,0,0,1-1.819.67,3.172,3.172,0,0,1-2.776-1.659l-1.723,1.659.032.064a6.133,6.133,0,0,0,1.691,1.5,5.1,5.1,0,0,0,2.808.734,4.785,4.785,0,0,0,3.605-1.372,5.016,5.016,0,0,0,1.34-3.637v-9.092H65.574v.861Zm-.67,5.934a2.159,2.159,0,0,1-1.723.734,2.216,2.216,0,0,1-1.723-.734,2.811,2.811,0,0,1-.638-1.946,3,3,0,0,1,.638-1.978,2.116,2.116,0,0,1,1.723-.734,2.216,2.216,0,0,1,1.723.734,2.913,2.913,0,0,1,.67,1.978A2.829,2.829,0,0,1,64.968,270.819Z" transform="translate(-39.955 -259.621)" fill="#0080ff" />
        <rect id="XMLID_668_" width="2.52" height="10.018" transform="translate(30.309 4.435)" fill="#0080ff" />
        <path id="XMLID_660_" d="M96.463,250.9a1.594,1.594,0,0,0-1.117.447,1.466,1.466,0,0,0-.447,1.085,1.594,1.594,0,0,0,.447,1.117,1.54,1.54,0,0,0,1.117.447,1.652,1.652,0,0,0,1.117-.447,1.54,1.54,0,0,0,.447-1.117,1.466,1.466,0,0,0-.447-1.085A1.594,1.594,0,0,0,96.463,250.9Z" transform="translate(-64.879 -250.836)" fill="#0080ff" />
        <path id="XMLID_652_" d="M112.624,256.1h-2.489v2.712H108.7v2.3h1.436v4.148a4.011,4.011,0,0,0,.766,2.776,3.675,3.675,0,0,0,2.712.8c.415,0,.83,0,1.212-.032h.128v-2.3l-.861.032a1.538,1.538,0,0,1-1.18-.319,2.183,2.183,0,0,1-.287-1.34v-3.8h2.361v-2.3h-2.361Z" transform="translate(-74.276 -254.377)" fill="#0080ff" />
        <rect id="XMLID_642_" width="2.52" height="14.229" transform="translate(52.514 0.223)" fill="#0080ff" />
        <path id="XMLID_448_" d="M236.689,270.636a6.844,6.844,0,0,1-1.276,1.18h0a2.42,2.42,0,0,1-1.308.351,2.237,2.237,0,0,1-1.818-.829,3.132,3.132,0,0,1-.734-2.106,3.074,3.074,0,0,1,.734-2.106,2.334,2.334,0,0,1,1.818-.83,3.371,3.371,0,0,1,2.393,1.372l1.659-1.6h0a5.069,5.069,0,0,0-7.689-.574A5.049,5.049,0,0,0,229,269.232a5.176,5.176,0,0,0,1.468,3.733,4.869,4.869,0,0,0,3.573,1.5,5.087,5.087,0,0,0,4.307-2.233Z" transform="translate(-156.196 -259.757)" fill="#0080ff" />
        <path id="XMLID_445_" d="M268.1,265.527a3.5,3.5,0,0,0-1.436-1.18,4.826,4.826,0,0,0-2.074-.447,4.261,4.261,0,0,0-3.414,1.531A5.778,5.778,0,0,0,259.9,269.2a5.271,5.271,0,0,0,1.372,3.733,4.83,4.83,0,0,0,3.637,1.436,5.078,5.078,0,0,0,4.147-2.042l.064-.064-1.659-1.6h0c-.159.191-.383.383-.574.574a3.616,3.616,0,0,1-.734.542,2.782,2.782,0,0,1-1.276.287,2.421,2.421,0,0,1-1.723-.606,2.329,2.329,0,0,1-.734-1.531h6.668l.032-.925a7.005,7.005,0,0,0-.255-1.85A5.416,5.416,0,0,0,268.1,265.527Zm-5.519,2.361a2.4,2.4,0,0,1,.67-1.18,1.779,1.779,0,0,1,1.308-.51,1.809,1.809,0,0,1,1.4.51,1.908,1.908,0,0,1,.51,1.18Z" transform="translate(-177.237 -259.689)" fill="#0080ff" />
        <path id="XMLID_442_" d="M300.238,264.889h0a4.764,4.764,0,0,0-3.127-.989,5.21,5.21,0,0,0-2.329.542,4.128,4.128,0,0,0-1.723,1.6l.032.032,1.627,1.531a2.622,2.622,0,0,1,2.393-1.436,1.951,1.951,0,0,1,1.308.415,1.41,1.41,0,0,1,.51,1.085v.479a6.373,6.373,0,0,0-1.85-.287,4.948,4.948,0,0,0-3.031.861,2.981,2.981,0,0,0-1.148,2.52,2.8,2.8,0,0,0,.989,2.265,3.722,3.722,0,0,0,2.425.83,4.245,4.245,0,0,0,2.68-1.053v.829h2.488v-6.445A3.847,3.847,0,0,0,300.238,264.889Zm-4.467,5.424a2.2,2.2,0,0,1,1.212-.287,6.094,6.094,0,0,1,1.914.351v.989a3.054,3.054,0,0,1-2.169.766,1.62,1.62,0,0,1-1.021-.287.907.907,0,0,1-.351-.734A.882.882,0,0,1,295.771,270.313Z" transform="translate(-199.709 -259.689)" fill="#0080ff" />
        <path id="XMLID_393_" d="M333.216,265.08a3.709,3.709,0,0,0-2.935-1.18,3.415,3.415,0,0,0-2.425.861v-.606H325.4v9.986h2.52v-5.519a2.715,2.715,0,0,1,.542-1.787,1.837,1.837,0,0,1,1.5-.638,1.584,1.584,0,0,1,1.308.574,2.407,2.407,0,0,1,.479,1.563v5.806h2.52v-5.806A4.7,4.7,0,0,0,333.216,265.08Z" transform="translate(-221.84 -259.689)" fill="#0080ff" />
        <path id="XMLID_320_" d="M139.838,264.889h0a4.764,4.764,0,0,0-3.127-.989,5.211,5.211,0,0,0-2.329.542,4.128,4.128,0,0,0-1.723,1.6l.032.032,1.627,1.531a2.622,2.622,0,0,1,2.393-1.436,1.951,1.951,0,0,1,1.308.415,1.41,1.41,0,0,1,.51,1.085v.479a6.373,6.373,0,0,0-1.85-.287,4.948,4.948,0,0,0-3.031.861,2.981,2.981,0,0,0-1.149,2.52,2.8,2.8,0,0,0,.989,2.265,3.723,3.723,0,0,0,2.425.83,4.245,4.245,0,0,0,2.68-1.053v.829h2.488v-6.445A3.847,3.847,0,0,0,139.838,264.889Zm-4.467,5.424a2.2,2.2,0,0,1,1.212-.287,6.093,6.093,0,0,1,1.914.351v.989a3.054,3.054,0,0,1-2.169.766,1.619,1.619,0,0,1-1.021-.287.907.907,0,0,1-.351-.734A.882.882,0,0,1,135.371,270.313Z" transform="translate(-90.483 -259.689)" fill="#0080ff" />
        <path id="XMLID_235_" d="M186.338,265.376a7.338,7.338,0,1,1,7.338-7.338A7.339,7.339,0,0,1,186.338,265.376Zm0-12.092a4.754,4.754,0,1,0,4.754,4.754A4.766,4.766,0,0,0,186.338,253.284Z" transform="translate(-122.147 -250.7)" fill="#0080ff" />
    </g>
</svg>
