<svg xmlns="http://www.w3.org/2000/svg" viewBox="0 0 283 158">
    <g id="Dots" transform="translate(-1016 -517)">
        <rect id="Rectangle_1128" data-name="Rectangle 1128" width="8" height="8" rx="1" transform="translate(1016 517)" fill="#060b43" />
        <rect id="Rectangle_1128-2" data-name="Rectangle 1128" width="8" height="8" rx="1" transform="translate(1041 517)" fill="#060b43" />
        <rect id="Rectangle_1128-3" data-name="Rectangle 1128" width="8" height="8" rx="1" transform="translate(1066 517)" fill="#060b43" />
        <rect id="Rectangle_1128-4" data-name="Rectangle 1128" width="8" height="8" rx="1" transform="translate(1091 517)" fill="#060b43" />
        <rect id="Rectangle_1128-5" data-name="Rectangle 1128" width="8" height="8" rx="1" transform="translate(1116 517)" fill="#060b43" />
        <rect id="Rectangle_1128-6" data-name="Rectangle 1128" width="8" height="8" rx="1" transform="translate(1141 517)" fill="#060b43" />
        <rect id="Rectangle_1128-7" data-name="Rectangle 1128" width="8" height="8" rx="1" transform="translate(1166 517)" fill="#060b43" />
        <rect id="Rectangle_1128-8" data-name="Rectangle 1128" width="8" height="8" rx="1" transform="translate(1191 517)" fill="#060b43" />
        <rect id="Rectangle_1128-9" data-name="Rectangle 1128" width="8" height="8" rx="1" transform="translate(1216 517)" fill="#060b43" />
        <rect id="Rectangle_1128-10" data-name="Rectangle 1128" width="8" height="8" rx="1" transform="translate(1241 517)" fill="#060b43" />
        <rect id="Rectangle_1128-11" data-name="Rectangle 1128" width="8" height="8" rx="1" transform="translate(1266 517)" fill="#060b43" />
        <rect id="Rectangle_1128-12" data-name="Rectangle 1128" width="8" height="8" rx="1" transform="translate(1291 517)" fill="#060b43" />
        <rect id="Rectangle_1128-13" data-name="Rectangle 1128" width="8" height="8" rx="1" transform="translate(1016 542)" fill="#060b43" />
        <rect id="Rectangle_1128-14" data-name="Rectangle 1128" width="8" height="8" rx="1" transform="translate(1041 542)" fill="#060b43" />
        <rect id="Rectangle_1128-15" data-name="Rectangle 1128" width="8" height="8" rx="1" transform="translate(1066 542)" fill="#060b43" />
        <rect id="Rectangle_1128-16" data-name="Rectangle 1128" width="8" height="8" rx="1" transform="translate(1091 542)" fill="#060b43" />
        <rect id="Rectangle_1128-17" data-name="Rectangle 1128" width="8" height="8" rx="1" transform="translate(1116 542)" fill="#060b43" />
        <rect id="Rectangle_1128-18" data-name="Rectangle 1128" width="8" height="8" rx="1" transform="translate(1141 542)" fill="#060b43" />
        <rect id="Rectangle_1128-19" data-name="Rectangle 1128" width="8" height="8" rx="1" transform="translate(1166 542)" fill="#060b43" />
        <rect id="Rectangle_1128-20" data-name="Rectangle 1128" width="8" height="8" rx="1" transform="translate(1191 542)" fill="#060b43" />
        <rect id="Rectangle_1128-21" data-name="Rectangle 1128" width="8" height="8" rx="1" transform="translate(1216 542)" fill="#060b43" />
        <rect id="Rectangle_1128-22" data-name="Rectangle 1128" width="8" height="8" rx="1" transform="translate(1241 542)" fill="#060b43" />
        <rect id="Rectangle_1128-23" data-name="Rectangle 1128" width="8" height="8" rx="1" transform="translate(1266 542)" fill="#060b43" />
        <rect id="Rectangle_1128-24" data-name="Rectangle 1128" width="8" height="8" rx="1" transform="translate(1291 542)" fill="#060b43" />
        <rect id="Rectangle_1128-25" data-name="Rectangle 1128" width="8" height="8" rx="1" transform="translate(1016 567)" fill="#060b43" />
        <rect id="Rectangle_1128-26" data-name="Rectangle 1128" width="8" height="8" rx="1" transform="translate(1041 567)" fill="#060b43" />
        <rect id="Rectangle_1128-27" data-name="Rectangle 1128" width="8" height="8" rx="1" transform="translate(1066 567)" fill="#060b43" />
        <rect id="Rectangle_1128-28" data-name="Rectangle 1128" width="8" height="8" rx="1" transform="translate(1091 567)" fill="#060b43" />
        <rect id="Rectangle_1128-29" data-name="Rectangle 1128" width="8" height="8" rx="1" transform="translate(1116 567)" fill="#060b43" />
        <rect id="Rectangle_1128-30" data-name="Rectangle 1128" width="8" height="8" rx="1" transform="translate(1141 567)" fill="#060b43" />
        <rect id="Rectangle_1128-31" data-name="Rectangle 1128" width="8" height="8" rx="1" transform="translate(1166 567)" fill="#060b43" />
        <rect id="Rectangle_1128-32" data-name="Rectangle 1128" width="8" height="8" rx="1" transform="translate(1191 567)" fill="#060b43" />
        <rect id="Rectangle_1128-33" data-name="Rectangle 1128" width="8" height="8" rx="1" transform="translate(1216 567)" fill="#060b43" />
        <rect id="Rectangle_1128-34" data-name="Rectangle 1128" width="8" height="8" rx="1" transform="translate(1241 567)" fill="#060b43" />
        <rect id="Rectangle_1128-35" data-name="Rectangle 1128" width="8" height="8" rx="1" transform="translate(1266 567)" fill="#060b43" />
        <rect id="Rectangle_1128-36" data-name="Rectangle 1128" width="8" height="8" rx="1" transform="translate(1291 567)" fill="#060b43" />
        <rect id="Rectangle_1128-37" data-name="Rectangle 1128" width="8" height="8" rx="1" transform="translate(1016 592)" fill="#060b43" />
        <rect id="Rectangle_1128-38" data-name="Rectangle 1128" width="8" height="8" rx="1" transform="translate(1041 592)" fill="#060b43" />
        <rect id="Rectangle_1128-39" data-name="Rectangle 1128" width="8" height="8" rx="1" transform="translate(1066 592)" fill="#060b43" />
        <rect id="Rectangle_1128-40" data-name="Rectangle 1128" width="8" height="8" rx="1" transform="translate(1091 592)" fill="#060b43" />
        <rect id="Rectangle_1128-41" data-name="Rectangle 1128" width="8" height="8" rx="1" transform="translate(1116 592)" fill="#060b43" />
        <rect id="Rectangle_1128-42" data-name="Rectangle 1128" width="8" height="8" rx="1" transform="translate(1141 592)" fill="#060b43" />
        <rect id="Rectangle_1128-43" data-name="Rectangle 1128" width="8" height="8" rx="1" transform="translate(1166 592)" fill="#060b43" />
        <rect id="Rectangle_1128-44" data-name="Rectangle 1128" width="8" height="8" rx="1" transform="translate(1191 592)" fill="#060b43" />
        <rect id="Rectangle_1128-45" data-name="Rectangle 1128" width="8" height="8" rx="1" transform="translate(1216 592)" fill="#060b43" />
        <rect id="Rectangle_1128-46" data-name="Rectangle 1128" width="8" height="8" rx="1" transform="translate(1241 592)" fill="#060b43" />
        <rect id="Rectangle_1128-47" data-name="Rectangle 1128" width="8" height="8" rx="1" transform="translate(1266 592)" fill="#060b43" />
        <rect id="Rectangle_1128-48" data-name="Rectangle 1128" width="8" height="8" rx="1" transform="translate(1291 592)" fill="#060b43" />
        <rect id="Rectangle_1128-49" data-name="Rectangle 1128" width="8" height="8" rx="1" transform="translate(1016 617)" fill="#060b43" />
        <rect id="Rectangle_1128-50" data-name="Rectangle 1128" width="8" height="8" rx="1" transform="translate(1041 617)" fill="#060b43" />
        <rect id="Rectangle_1128-51" data-name="Rectangle 1128" width="8" height="8" rx="1" transform="translate(1066 617)" fill="#060b43" />
        <rect id="Rectangle_1128-52" data-name="Rectangle 1128" width="8" height="8" rx="1" transform="translate(1091 617)" fill="#060b43" />
        <rect id="Rectangle_1128-53" data-name="Rectangle 1128" width="8" height="8" rx="1" transform="translate(1116 617)" fill="#060b43" />
        <rect id="Rectangle_1128-54" data-name="Rectangle 1128" width="8" height="8" rx="1" transform="translate(1141 617)" fill="#060b43" />
        <rect id="Rectangle_1128-55" data-name="Rectangle 1128" width="8" height="8" rx="1" transform="translate(1166 617)" fill="#060b43" />
        <rect id="Rectangle_1128-56" data-name="Rectangle 1128" width="8" height="8" rx="1" transform="translate(1191 617)" fill="#060b43" />
        <rect id="Rectangle_1128-57" data-name="Rectangle 1128" width="8" height="8" rx="1" transform="translate(1216 617)" fill="#060b43" />
        <rect id="Rectangle_1128-58" data-name="Rectangle 1128" width="8" height="8" rx="1" transform="translate(1241 617)" fill="#060b43" />
        <rect id="Rectangle_1128-59" data-name="Rectangle 1128" width="8" height="8" rx="1" transform="translate(1266 617)" fill="#060b43" />
        <rect id="Rectangle_1128-60" data-name="Rectangle 1128" width="8" height="8" rx="1" transform="translate(1291 617)" fill="#060b43" />
        <rect id="Rectangle_1128-61" data-name="Rectangle 1128" width="8" height="8" rx="1" transform="translate(1016 642)" fill="#060b43" />
        <rect id="Rectangle_1128-62" data-name="Rectangle 1128" width="8" height="8" rx="1" transform="translate(1041 642)" fill="#060b43" />
        <rect id="Rectangle_1128-63" data-name="Rectangle 1128" width="8" height="8" rx="1" transform="translate(1066 642)" fill="#060b43" />
        <rect id="Rectangle_1128-64" data-name="Rectangle 1128" width="8" height="8" rx="1" transform="translate(1091 642)" fill="#060b43" />
        <rect id="Rectangle_1128-65" data-name="Rectangle 1128" width="8" height="8" rx="1" transform="translate(1116 642)" fill="#060b43" />
        <rect id="Rectangle_1128-66" data-name="Rectangle 1128" width="8" height="8" rx="1" transform="translate(1141 642)" fill="#060b43" />
        <rect id="Rectangle_1128-67" data-name="Rectangle 1128" width="8" height="8" rx="1" transform="translate(1166 642)" fill="#060b43" />
        <rect id="Rectangle_1128-68" data-name="Rectangle 1128" width="8" height="8" rx="1" transform="translate(1191 642)" fill="#060b43" />
        <rect id="Rectangle_1128-69" data-name="Rectangle 1128" width="8" height="8" rx="1" transform="translate(1216 642)" fill="#060b43" />
        <rect id="Rectangle_1128-70" data-name="Rectangle 1128" width="8" height="8" rx="1" transform="translate(1241 642)" fill="#060b43" />
        <rect id="Rectangle_1128-71" data-name="Rectangle 1128" width="8" height="8" rx="1" transform="translate(1266 642)" fill="#060b43" />
        <rect id="Rectangle_1128-72" data-name="Rectangle 1128" width="8" height="8" rx="1" transform="translate(1291 642)" fill="#060b43" />
        <rect id="Rectangle_1128-73" data-name="Rectangle 1128" width="8" height="8" rx="1" transform="translate(1016 667)" fill="#060b43" />
        <rect id="Rectangle_1128-74" data-name="Rectangle 1128" width="8" height="8" rx="1" transform="translate(1041 667)" fill="#060b43" />
        <rect id="Rectangle_1128-75" data-name="Rectangle 1128" width="8" height="8" rx="1" transform="translate(1066 667)" fill="#060b43" />
        <rect id="Rectangle_1128-76" data-name="Rectangle 1128" width="8" height="8" rx="1" transform="translate(1091 667)" fill="#060b43" />
        <rect id="Rectangle_1128-77" data-name="Rectangle 1128" width="8" height="8" rx="1" transform="translate(1116 667)" fill="#060b43" />
        <rect id="Rectangle_1128-78" data-name="Rectangle 1128" width="8" height="8" rx="1" transform="translate(1141 667)" fill="#060b43" />
        <rect id="Rectangle_1128-79" data-name="Rectangle 1128" width="8" height="8" rx="1" transform="translate(1166 667)" fill="#060b43" />
        <rect id="Rectangle_1128-80" data-name="Rectangle 1128" width="8" height="8" rx="1" transform="translate(1191 667)" fill="#060b43" />
        <rect id="Rectangle_1128-81" data-name="Rectangle 1128" width="8" height="8" rx="1" transform="translate(1216 667)" fill="#060b43" />
        <rect id="Rectangle_1128-82" data-name="Rectangle 1128" width="8" height="8" rx="1" transform="translate(1241 667)" fill="#060b43" />
        <rect id="Rectangle_1128-83" data-name="Rectangle 1128" width="8" height="8" rx="1" transform="translate(1266 667)" fill="#060b43" />
        <rect id="Rectangle_1128-84" data-name="Rectangle 1128" width="8" height="8" rx="1" transform="translate(1291 667)" fill="#060b43" />
    </g>
</svg>