<svg xmlns="http://www.w3.org/2000/svg" viewBox="0 0 64.593 14.414">
    <path id="expressjs-ar21" d="M27.365,32.662V18.53h.767v2.223a2.907,2.907,0,0,0,.25-.313,3.8,3.8,0,0,1,3.465-2.15,4.07,4.07,0,0,1,4,2.15,6.911,6.911,0,0,1,.167,6.335,4.3,4.3,0,0,1-4.754,2.291,3.845,3.845,0,0,1-3.069-2.025v5.62Zm.767-9.133.172,1.659A3.487,3.487,0,0,0,31.476,28.4a3.606,3.606,0,0,0,3.961-2.291A6.147,6.147,0,0,0,35.3,21.06,3.532,3.532,0,0,0,31.581,19a3.44,3.44,0,0,0-3.074,2.541,17.551,17.551,0,0,0-.376,1.983ZM52.353,25.45A4.133,4.133,0,0,1,48.313,29.1c-3.215.162-4.723-1.973-4.963-4.436a7.107,7.107,0,0,1,.626-3.914,4.366,4.366,0,0,1,4.545-2.437,4.176,4.176,0,0,1,3.705,3.178,21.443,21.443,0,0,1,.36,2.349H44.144A4.078,4.078,0,0,0,46.889,28.3a3.609,3.609,0,0,0,4.587-2.411c.146-.517.412-.59.882-.443Zm-8.214-2.322H51.69c-.047-2.379-1.529-4.109-3.538-4.128-2.269-.037-3.914,1.623-4.013,4.128ZM53.913,25.5h.74A2.968,2.968,0,0,0,56.4,28.059a4.556,4.556,0,0,0,3.956-.1A1.778,1.778,0,0,0,61.4,26.207a1.613,1.613,0,0,0-1.085-1.613c-.814-.3-1.68-.47-2.51-.736a18.4,18.4,0,0,1-2.526-.924c-1.337-.652-1.42-3.194.094-4a5.329,5.329,0,0,1,5.093-.078,2.683,2.683,0,0,1,1.357,2.735h-.635c0-.031-.058-.058-.058-.089-.078-2.024-1.78-2.657-3.606-2.479a4.611,4.611,0,0,0-1.566.475,1.671,1.671,0,0,0,.136,3.037c.8.293,1.643.48,2.468.71l1.993.521a2.355,2.355,0,0,1,1.618,2.124A2.51,2.51,0,0,1,60.819,28.5a5.569,5.569,0,0,1-5.892-.521A3.479,3.479,0,0,1,53.915,25.5Zm17.649-3.909h-.694a1.578,1.578,0,0,0-.047-.256,2.269,2.269,0,0,0-1.848-2.181,4.556,4.556,0,0,0-2.928.141,1.778,1.778,0,0,0-1.289,1.7,1.637,1.637,0,0,0,1.252,1.649l3.173.814a8.824,8.824,0,0,1,1.012.308,2.607,2.607,0,0,1,.135,4.859,5.807,5.807,0,0,1-4.7.047,3.256,3.256,0,0,1-1.962-3.162h.678A3.8,3.8,0,0,0,70.14,27.93a1.864,1.864,0,0,0,1-1.743,1.613,1.613,0,0,0-1.1-1.6c-.814-.3-1.68-.464-2.51-.736a18.488,18.488,0,0,1-2.541-.913,2.4,2.4,0,0,1,.078-3.966,5.255,5.255,0,0,1,5.177-.058,2.729,2.729,0,0,1,1.31,2.677ZM26.1,28.848a1.2,1.2,0,0,1-1.482-.564l-2.7-3.732-.391-.521L18.4,28.29a1.147,1.147,0,0,1-1.409.553l4.034-5.412-3.753-4.89a1.248,1.248,0,0,1,1.487.521l2.8,3.777,2.813-3.763a1.122,1.122,0,0,1,1.4-.522l-1.456,1.932-1.973,2.568a.521.521,0,0,0,0,.778L26.1,28.848ZM43.231,18.489v.736A3.784,3.784,0,0,0,39.2,23.134v5.74h-.746V18.535h.736v2.119a4.386,4.386,0,0,1,4.044-2.16Zm-35.9,4.875.329-1.623a4.519,4.519,0,0,1,7.113-2.557,5.217,5.217,0,0,1,1.78,4.671H8.2c-.135,3.319,2.26,5.323,5.323,4.3A3.19,3.19,0,0,0,15.546,25.9c.162-.521.429-.611.919-.46A4.237,4.237,0,0,1,14.44,28.54a4.906,4.906,0,0,1-5.715-.73,5.143,5.143,0,0,1-1.283-3.017,2.069,2.069,0,0,0-.1-.521q-.006-.464-.006-.908Zm.882-.224h7.551c-.047-2.406-1.566-4.112-3.59-4.128-2.254-.031-3.867,1.639-3.966,4.118Z" transform="translate(-7.331 -18.248)" fill="#fff" />
</svg>