<svg xmlns="http://www.w3.org/2000/svg" width="312.799" height="87.961" viewBox="0 0 312.799 87.961"><g transform="translate(-1728.278 -797.101)"><g style="isolation:isolate"><g style="isolation:isolate"><path d="M1747.959,844.3c0,4.4,2.24,5.439,9.52,5.84v3.12h-29.2v-3.04c5.441-.64,6.08-1.2,6.08-5.521V805.66c0-4.319-.639-4.88-6.08-5.519V797.1H1772.2l.4,15.44h-2.561c-4-8.96-6.4-12-13.2-12h-8.88v22.4h8.08c3.6,0,4.64-2.161,5.28-7.441h3.2v18.88h-3.2c-.64-5.279-1.679-7.439-5.28-7.439h-8.08Z" fill="#f1f1f4"/><path d="M1794.6,846.142c0,3.36,1.76,3.759,6.56,4.24v2.88H1777v-2.88c3.439-.24,4.72-.641,4.72-3.28V818.861l-4.641-2.8v-1.84l15.441-4.481h2.4l-.32,12.081c3.52-9.04,6.08-12.081,10.961-12.081a4.946,4.946,0,0,1,3.759,1.361v9.76h-1.679c-5.04,0-9.2.24-13.041,3.68Z" fill="#f1f1f4"/><path d="M1813.239,832.781c0-13.52,9.04-23.041,21.521-23.041,12.72,0,21.44,8.4,21.44,21.282,0,13.52-9.12,23.04-21.6,23.04C1821.88,854.062,1813.239,845.661,1813.239,832.781Zm29.281,1.361c0-12.481-2.32-21.282-8.161-21.282-5.359,0-7.519,6.481-7.519,16.8,0,12.481,2.319,21.281,8.16,21.281C1840.36,850.942,1842.52,844.462,1842.52,834.142Z" fill="#f1f1f4"/><path d="M1892.839,823.741c0-4.16-1.521-6.32-5.76-6.32a14.8,14.8,0,0,0-7.921,2.56V847.1c0,2.639,1.12,3.04,4.561,3.28v2.88h-22.16v-2.88c3.439-.24,4.719-.641,4.719-3.28V818.861l-4.64-2.8v-1.84l15.44-4.481h2.4l-.321,7.921c3.2-3.92,7.761-7.921,14.8-7.921,7.6,0,11.76,4.321,11.76,13.041V847.1c0,2.639,1.28,3.04,4.72,3.28v2.88h-22.161v-2.88c3.441-.24,4.561-.641,4.561-3.28Z" fill="#f1f1f4"/><path d="M1931.078,810.541H1941v4h-9.92v26.481c0,4.4,1.68,6.24,5.12,6.24a9.439,9.439,0,0,0,5.84-2.16l1.12,1.6a14.7,14.7,0,0,1-13.12,7.361c-6.881,0-11.841-3.52-11.841-12.72v-26.8h-4.8V812.3a35.67,35.67,0,0,0,14.96-12.4h2.721Z" fill="#f1f1f4"/></g></g><g style="isolation:isolate"><g style="isolation:isolate"><path d="M1935.319,857.861v1.84h-25.84c-.241,10.481,5.28,16.721,12.8,16.721a13.717,13.717,0,0,0,12-6.16l1.361.8c-2.08,8.4-8.08,14-17.761,14-11.681,0-20-8.241-20-21.12,0-14,9.279-23.2,20.559-23.2C1929.56,840.74,1935.319,847.941,1935.319,857.861Zm-25.68-1.44h14.4c0-7.6-1.76-12.561-6.48-12.561C1912.679,843.86,1910.119,849.061,1909.639,856.421Z" fill="#828495"/><path d="M1971.879,854.741c0-4.16-1.521-6.32-5.76-6.32a14.8,14.8,0,0,0-7.921,2.56V878.1c0,2.639,1.12,3.04,4.561,3.28v2.88H1940.6v-2.88c3.439-.24,4.719-.641,4.719-3.28V849.861l-4.64-2.8v-1.84l15.44-4.481h2.4l-.321,7.921c3.2-3.92,7.761-7.921,14.8-7.921,7.6,0,11.76,4.321,11.76,13.041V878.1c0,2.639,1.28,3.04,4.72,3.28v2.88h-22.161v-2.88c3.441-.24,4.561-.641,4.561-3.28Z" fill="#828495"/><path d="M2018.6,827.381v-2l15.44-3.761h2.08v53.842c0,2.72.16,3.76,3.04,3.92l1.92.08v2.8l-15.76,2.8H2023l.24-7.52c-3.28,4.72-7.44,7.52-12.961,7.52-9.519,0-16.08-7.6-16.08-20.161,0-15.36,9.12-23.92,20.721-23.92a12.907,12.907,0,0,1,8.32,2.56V829.78Zm-11.6,33.28c0,9.84,3.76,16.881,10.48,16.881a9.354,9.354,0,0,0,5.76-1.841V854.022c0-5.841-2.08-9.122-6.56-9.122C2010.437,844.9,2007,851.221,2007,860.661Z" fill="#828495"/></g></g></g></svg>