<svg id="Group_2133" data-name="Group 2133" xmlns="http://www.w3.org/2000/svg" viewBox="0 0 57.788 81.935">
    <g id="_9b566889088440e" data-name="9b566889088440e">
        <path id="Path_754" data-name="Path 754" d="M28.894,0A28.9,28.9,0,0,0,19.76,56.312c1.444.267,1.974-.627,1.974-1.39,0-.689-.027-2.965-.039-5.379-8.038,1.748-9.735-3.409-9.735-3.409-1.314-3.34-3.208-4.228-3.208-4.228-2.622-1.793.2-1.757.2-1.757a6.073,6.073,0,0,1,4.429,2.978c2.577,4.417,6.759,3.14,8.408,2.4a6.154,6.154,0,0,1,1.835-3.864c-6.418-.73-13.164-3.208-13.164-14.279a11.182,11.182,0,0,1,2.977-7.756,10.382,10.382,0,0,1,.28-7.646s2.426-.777,7.948,2.962a27.407,27.407,0,0,1,14.471,0c5.515-3.738,7.938-2.962,7.938-2.962a10.369,10.369,0,0,1,.283,7.646,11.161,11.161,0,0,1,2.974,7.756c0,11.1-6.759,13.541-13.193,14.257,1.036.9,1.96,2.655,1.96,5.351,0,3.866-.033,6.977-.033,7.929,0,.769.52,1.67,1.985,1.386A28.9,28.9,0,0,0,28.894,0ZM10.822,41.16c-.064.144-.289.187-.5.088s-.327-.29-.259-.434.289-.189.5-.09S10.895,41.016,10.822,41.16Zm1.421,1.268c-.138.128-.407.068-.59-.133a.442.442,0,0,1-.085-.6c.142-.128.4-.068.593.133S12.387,42.3,12.243,42.428Zm.975,1.623c-.177.123-.466.008-.645-.249s-.177-.565,0-.688.465-.012.646.242S13.4,43.925,13.218,44.051Zm1.649,1.879c-.158.175-.5.128-.743-.11s-.323-.564-.164-.738.5-.126.748.111S15.036,45.758,14.867,45.93ZM17,46.565c-.07.226-.395.329-.722.233s-.541-.364-.475-.593.394-.335.724-.232S17.066,46.334,17,46.565Zm2.425.269c.008.238-.269.436-.613.44s-.625-.185-.629-.42.271-.436.617-.442S19.424,46.6,19.424,46.834Zm2.383-.091c.041.233-.2.471-.539.535s-.646-.082-.689-.313.2-.477.536-.539S21.763,46.506,21.806,46.742Z" fill="#f8f8f8" />
    </g>
    <g id="b2bb930907d7494" transform="translate(2.048 66.92)">
        <path id="Path_755" data-name="Path 755" d="M10.68,6.418H6.02a.218.218,0,0,0-.218.218V8.914a.218.218,0,0,0,.218.218H7.838v2.83A5.5,5.5,0,0,1,6.3,12.1c-1.331,0-3.191-.486-3.191-4.576S5.047,2.9,6.865,2.9a7.371,7.371,0,0,1,2.683.411.219.219,0,0,0,.261-.214l.52-2.2a.2.2,0,0,0-.083-.17C10.07.6,9,0,6.3,0,3.191,0,0,1.323,0,7.685S3.653,15,6.732,15a7.578,7.578,0,0,0,4.1-1.089.187.187,0,0,0,.071-.165V6.636A.218.218,0,0,0,10.68,6.418ZM34.68.8a.217.217,0,0,0-.216-.219H31.84A.218.218,0,0,0,31.623.8v5.07H27.534V.8a.217.217,0,0,0-.217-.219H24.694A.218.218,0,0,0,24.477.8V14.525a.219.219,0,0,0,.217.22h2.623a.218.218,0,0,0,.217-.22V8.653h4.089l-.007,5.872a.219.219,0,0,0,.217.22h2.63a.218.218,0,0,0,.216-.22ZM15.622,2.632A1.692,1.692,0,1,0,13.93,4.341,1.7,1.7,0,0,0,15.622,2.632Zm-.208,9V5.3A.218.218,0,0,0,15.2,5.08H12.581a.25.25,0,0,0-.227.244V14.4c0,.267.166.346.382.346h2.356c.259,0,.322-.127.322-.35ZM44.707,5.08H42.1a.218.218,0,0,0-.217.219v6.732a2.941,2.941,0,0,1-1.6.484c-.939,0-1.188-.426-1.188-1.345V5.3a.218.218,0,0,0-.217-.219H36.24a.219.219,0,0,0-.217.219v6.315c0,2.73,1.522,3.4,3.615,3.4a6.1,6.1,0,0,0,3.1-.949,5.487,5.487,0,0,0,.1.559.229.229,0,0,0,.192.119l1.681-.007a.219.219,0,0,0,.217-.219V5.3A.218.218,0,0,0,44.707,5.08Zm6,7.44a3.122,3.122,0,0,1-1.516-.437V7.736A3.471,3.471,0,0,1,50.536,7.3c.938-.084,1.841.2,1.841,2.436C52.377,12.093,51.969,12.558,50.706,12.52Zm1.027-7.735a4.9,4.9,0,0,0-2.484.66V.8a.218.218,0,0,0-.217-.219H46.4A.218.218,0,0,0,46.184.8V14.525a.219.219,0,0,0,.217.22h1.825a.217.217,0,0,0,.19-.117A4.266,4.266,0,0,0,48.528,14a4.707,4.707,0,0,0,3.112,1.019c2.391,0,3.762-1.213,3.762-5.444S53.212,4.785,51.733,4.785Zm-28.768.271H21l0-2.6c0-.1-.051-.148-.164-.148H18.147c-.1,0-.16.046-.16.146V5.142s-1.344.324-1.435.351A.218.218,0,0,0,16.4,5.7V7.39a.218.218,0,0,0,.217.219h1.375v4.062c0,3.017,2.116,3.313,3.544,3.313a5.99,5.99,0,0,0,1.562-.257.2.2,0,0,0,.123-.2l0-1.857A.222.222,0,0,0,23,12.454c-.115,0-.408.047-.71.047-.967,0-1.294-.449-1.294-1.031s0-3.86,0-3.86h1.968a.218.218,0,0,0,.217-.219V5.275A.218.218,0,0,0,22.965,5.057Z" transform="translate(0 0)" fill="#f8f8f8" />
    </g>
</svg>
