<svg id="Page-1" xmlns="http://www.w3.org/2000/svg" viewBox="0 0 277.11 77.622">
    <g id="main">
        <g id="nav">
            <path id="logo" d="M122.68-8H66.986A6.957,6.957,0,0,0,60-1.014v63.65a6.957,6.957,0,0,0,6.986,6.986H122.68a6.957,6.957,0,0,0,6.986-6.986V-1.014A6.957,6.957,0,0,0,122.68-8Zm3.1,70.636a3.065,3.065,0,0,1-3.1,3.1H66.986a3.065,3.065,0,0,1-3.1-3.1V-1.014a3.065,3.065,0,0,1,3.1-3.1H122.68a3.065,3.065,0,0,1,3.1,3.1Zm-48.32-4.657L86.2,50.217l-8.732-7.762ZM108.9,26.542a12.691,12.691,0,0,0-9.315-3.493,46.271,46.271,0,0,0-14.554,2.717V3.643H77.271V37.215L82.7,34.692s8.927-4.075,16.689-4.075c3.881,0,4.851,2.135,4.851,4.075V57.979h7.762V34.692A10.4,10.4,0,0,0,108.9,26.542ZM98.617,16.257h7.762A23.408,23.408,0,0,0,112.2,3.643h-7.762A28.649,28.649,0,0,1,98.617,16.257ZM313.048,34.5V17.421h7.762V34.5c0,3.881,1.358,5.822,4.463,5.822s4.269-1.746,4.269-5.822V17.421h7.568V34.692c0,7.568-3.687,12.031-12.031,12.031C316.735,46.53,313.048,42.066,313.048,34.5Zm-32.6-17.077h7.762V27.9l7.956-10.479h8.927l-9.7,11.255,10.479,17.465h-8.732l-6.792-11.449-2.135,2.523v8.927h-7.762ZM243.576,31.587c0-10.479,7.18-14.942,14.166-14.942s14.166,4.463,14.166,14.942-7.18,14.942-14.166,14.942S243.576,42.26,243.576,31.587Zm20.376,0c0-5.239-2.329-8.538-6.4-8.538s-6.4,3.3-6.4,8.538,2.329,8.732,6.4,8.732S263.952,37.021,263.952,31.587ZM212.333,17.421h11.255c7.374,0,11.837,2.523,11.837,9.315,0,4.463-1.941,7.18-5.628,8.344l6.016,11.061h-8.15l-5.628-9.9H219.9v9.9h-7.568V17.421Zm11.061,12.808c3.1,0,4.657-.97,4.657-3.3s-1.358-3.3-4.657-3.3h-3.3v6.6h3.3ZM182.643,17.421h20.57v6.4H190.405v4.657h9.121V34.5h-9.121v5.239h13.39v6.21H182.643V17.421Zm-35.124,0h7.762V28.094h9.509V17.421h7.762v28.72H164.79V34.5h-9.509V46.141h-7.762Z" transform="translate(-60 8)" fill="#8455bf" />
        </g>
    </g>
</svg>
