<svg xmlns="http://www.w3.org/2000/svg" viewBox="0 0 37 37">
    <g id="javascript" transform="translate(0 -0.152)">
        <rect id="Rectangle_1118" data-name="Rectangle 1118" width="37" height="37" transform="translate(0 0.152)" fill="#f7df1e" />
        <path id="Path_756" data-name="Path 756" d="M178.148,295.726a3.074,3.074,0,0,0,2.784,1.714c1.169,0,1.917-.585,1.917-1.392,0-.968-.768-1.311-2.055-1.874l-.706-.3c-2.037-.868-3.39-1.955-3.39-4.253,0-2.117,1.613-3.728,4.133-3.728a4.172,4.172,0,0,1,4.014,2.26l-2.2,1.411a1.919,1.919,0,0,0-1.816-1.21,1.228,1.228,0,0,0-1.351,1.21c0,.847.524,1.19,1.735,1.714l.706.3c2.4,1.028,3.752,2.077,3.752,4.434,0,2.541-2,3.933-4.677,3.933a5.423,5.423,0,0,1-5.143-2.886Zm-9.97.245c.443.787.847,1.452,1.816,1.452.927,0,1.512-.363,1.512-1.774v-9.6h2.822v9.635c0,2.923-1.713,4.253-4.215,4.253a4.382,4.382,0,0,1-4.234-2.578Z" transform="translate(-151.568 -265.861)" />
    </g>
</svg>