<svg viewBox="0 0 55 56" fill="none" xmlns="http://www.w3.org/2000/svg">
<path d="M52.5069 0H26.12C26.12 3.17887 27.3749 6.22753 29.6088 8.47533C31.8426 10.7231 34.8723 11.9859 38.0315 11.9859H42.8922V16.7084C42.8965 23.322 48.2235 28.6825 54.796 28.6868V2.30337C54.796 1.03162 53.7714 0 52.5069 0Z" fill="#2684FF"/>
<path d="M39.4507 13.2298H13.0639C13.068 19.8434 18.3949 25.2039 24.9677 25.2082H29.8285V29.9458C29.8369 36.5594 35.1674 41.9162 41.74 41.9162V15.5336C41.74 14.2614 40.715 13.2298 39.4507 13.2298Z" fill="#2684FF"/>
<path d="M26.3869 26.4521H0C0 33.0718 5.33315 38.438 11.9115 38.438H16.7875V43.1603C16.7918 49.7679 22.1095 55.1259 28.6762 55.1385V28.7557C28.6762 27.4835 27.6512 26.4521 26.3869 26.4521Z" fill="#2684FF"/>
</svg>
