<svg xmlns="http://www.w3.org/2000/svg" viewBox="0 0 73.438 28.593">
    <g id="Mongodb" transform="translate(-1573 -742)">
        <g id="Group_2162" data-name="Group 2162">
            <g id="g14" transform="translate(1577.56 745.505)">
                <g id="Group_2160" data-name="Group 2160">
                    <path id="Union_7" data-name="Union 7" d="M-1492.232-410.133l-.748-.247s0-.055,0-.154c0-.711-.071-3.663-1.271-3.9a27.131,27.131,0,0,1-.31-5.793c0-10.522,1.194-28.627,3.718,5.644a2.7,2.7,0,0,0-1.331,1.516,7.555,7.555,0,0,0-.112,1.468C-1492.286-410.829-1492.232-410.133-1492.232-410.133Z" transform="translate(1494.56 434.505)" fill="#aeb46d" />
                </g>
            </g>
            <g id="Group_2158" data-name="Group 2158" transform="translate(1579.145 742.076)">
                <path id="Union_5" data-name="Union 5" d="M-1495.98-410.762c0-1.253.112-2.323.112-2.323l-.276-17.99a9.735,9.735,0,0,0,.822,1.589c.373.811,3.833,2.933,5.3,9.391a15.637,15.637,0,0,1,.231,2.659A13.006,13.006,0,0,1-1495-406.929C-1495.8-407.3-1495.981-409.177-1495.98-410.762Z" transform="translate(1496.145 431.076)" fill="#2b961f" />
            </g>
            <g id="Group_2159" data-name="Group 2159" transform="translate(1573 742)">
                <path id="Union_6" data-name="Union 6" d="M-1490-417.437q0-.294.015-.595a15.472,15.472,0,0,1,5.494-11.6,1.719,1.719,0,0,0,.607-1.371c.38.816.317,12.19.357,13.519.022.728.032,1.448.032,2.151,0,4.3-.379,7.953-.746,8.792C-1484.241-406.538-1490.007-410.471-1490-417.437Z" transform="translate(1490 431)" fill="#53ba4d" />
            </g>
        </g>
        <g id="Group_2161" data-name="Group 2161">
            <path id="path68" d="M81.464-59.158a.879.879,0,0,1-.063-.41.519.519,0,0,1,.063-.273A6.8,6.8,0,0,0,82.251-60c.363-.09.5-.286.521-.75.06-1.093.063-3.144.041-4.586v-.043a.573.573,0,0,0-.19-.515,4.111,4.111,0,0,0-1.089-.477c-.172-.051-.267-.141-.262-.247s.113-.231.337-.274a13.009,13.009,0,0,0,2.765-.715.4.4,0,0,1,.082.291c0,.064-.01.131-.016.2-.017.2-.037.435-.037.665a.15.15,0,0,0,.151.132.149.149,0,0,0,.106-.045A5.1,5.1,0,0,1,87.407-67.6a2.36,2.36,0,0,1,2.1,1.286.143.143,0,0,0,.12.07.135.135,0,0,0,.111-.06,5.507,5.507,0,0,1,2.844-1.3c1.681,0,2.684,1.257,2.684,3.361,0,.6-.006,1.371-.011,2.087-.005.628-.009,1.216-.009,1.623a.556.556,0,0,0,.331.427,4.3,4.3,0,0,0,1.049.258l.017,0a1.546,1.546,0,0,1-.106.686c-.111,0-.265-.009-.457-.019-.349-.018-.827-.042-1.384-.042-1.117,0-1.7.022-2.257.058a1.685,1.685,0,0,1-.005-.682,6.024,6.024,0,0,0,.681-.16c.355-.117.458-.278.478-.75.008-.336.073-3.286-.042-3.987A1.785,1.785,0,0,0,91.7-66.315a3.263,3.263,0,0,0-1.847.7.273.273,0,0,0-.067.174v.013a7.543,7.543,0,0,1,.081,1.487c0,.38,0,.784,0,1.185,0,.814-.009,1.582,0,2.162a.545.545,0,0,0,.432.566c.1.023.188.043.271.063.161.039.328.079.576.119a1.094,1.094,0,0,1-.01.51.4.4,0,0,1-.071.174c-.621-.021-1.258-.04-2.177-.04-.279,0-.734.012-1.135.023-.325.009-.633.017-.809.018a.8.8,0,0,1-.061-.353.618.618,0,0,1,.064-.33l.247-.044c.216-.038.4-.071.581-.115.3-.093.418-.262.441-.648a30.457,30.457,0,0,0-.022-4.152,1.706,1.706,0,0,0-1.769-1.574,3.327,3.327,0,0,0-1.847.7.56.56,0,0,0-.17.417c0,.309,0,.678,0,1.073,0,1.305-.008,2.93.023,3.633a.576.576,0,0,0,.5.568c.089.025.243.051.422.08.1.017.215.036.331.057a1.45,1.45,0,0,1-.055.686c-.178,0-.4-.011-.65-.022-.385-.017-.863-.038-1.408-.038-.642,0-1.088.021-1.447.038-.241.011-.449.021-.658.022h0" transform="translate(1507.954 824.703)" fill="#414044" />
            <path id="path70" d="M168.779-66.717a1.753,1.753,0,0,0-.982.275,2.777,2.777,0,0,0-1.076,2.568c0,2.379,1.192,4.04,2.9,4.04a1.825,1.825,0,0,0,1.255-.442,3.21,3.21,0,0,0,.8-2.523c0-2.343-1.165-3.918-2.9-3.918Zm.329,7.765c-3.084,0-4.183-2.26-4.183-4.374a3.907,3.907,0,0,1,1.8-3.432,5.482,5.482,0,0,1,2.775-.82,3.88,3.88,0,0,1,4,4.111,4.252,4.252,0,0,1-1.9,3.756,5.369,5.369,0,0,1-2.488.76h0" transform="translate(1441.004 824.68)" fill="#414044" />
            <path id="path72" d="M328.744-66.717a1.753,1.753,0,0,0-.983.275,2.777,2.777,0,0,0-1.075,2.568c0,2.379,1.192,4.04,2.9,4.04a1.825,1.825,0,0,0,1.255-.442,3.209,3.209,0,0,0,.8-2.522c0-2.343-1.165-3.918-2.9-3.918Zm.328,7.765c-3.084,0-4.183-2.26-4.183-4.374a3.908,3.908,0,0,1,1.8-3.433,5.481,5.481,0,0,1,2.775-.82,3.88,3.88,0,0,1,4,4.111,4.25,4.25,0,0,1-1.9,3.756,5.365,5.365,0,0,1-2.488.76h0" transform="translate(1312.979 824.68)" fill="#414044" />
            <path id="path74" d="M278.286-66.8c-.951,0-1.565.75-1.565,1.911s.528,2.539,2.017,2.539a1.448,1.448,0,0,0,.949-.366,2.365,2.365,0,0,0,.572-1.666c0-1.514-.737-2.417-1.972-2.417Zm-.123,8.008a1.569,1.569,0,0,0-.772.191c-.752.482-1.1.963-1.1,1.517a1.621,1.621,0,0,0,.639,1.307,3.241,3.241,0,0,0,2.178.665c1.843,0,2.67-.99,2.67-1.972a1.4,1.4,0,0,0-1.049-1.4,8.241,8.241,0,0,0-2.565-.308Zm.123,4.7a3.988,3.988,0,0,1-2.587-.757,2.42,2.42,0,0,1-.96-1.793,1.4,1.4,0,0,1,.363-.912,9.607,9.607,0,0,1,1.672-1.338.085.085,0,0,0,.054-.081.084.084,0,0,0-.065-.085A1.757,1.757,0,0,1,275.58-60.2c0-.01,0-.027-.008-.045a.266.266,0,0,1,.107-.331c.119-.085.31-.2.513-.318a6.781,6.781,0,0,0,.826-.537.128.128,0,0,0,.035-.114.129.129,0,0,0-.069-.1,2.65,2.65,0,0,1-1.893-2.779,2.768,2.768,0,0,1,1.163-2.278,5.312,5.312,0,0,1,2.6-.88h.048a5.351,5.351,0,0,1,1.986.442,3.168,3.168,0,0,0,1.174.187,1.592,1.592,0,0,0,1.27-.477,1.09,1.09,0,0,1,.067.363,1.364,1.364,0,0,1-.228.833,1.031,1.031,0,0,1-.789.342.887.887,0,0,1-.092,0,2.607,2.607,0,0,1-.476-.079l-.079.028c-.025.036-.009.077.012.128a.274.274,0,0,1,.012.032,5.662,5.662,0,0,1,.114.778,2.9,2.9,0,0,1-1.226,2.624,4.19,4.19,0,0,1-2.119.818h0c-.016,0-.092.007-.245.02-.1.009-.221.02-.24.02l-.018,0c-.139.039-.5.211-.5.53,0,.266.164.595.944.653l.505.036a15.479,15.479,0,0,1,2.923.366A2.02,2.02,0,0,1,283.246-58a3.956,3.956,0,0,1-2.549,3.367,5.539,5.539,0,0,1-2.41.541h0" transform="translate(1353.115 824.681)" fill="#414044" />
            <path id="path76" d="M226.318-59.987a3.682,3.682,0,0,1-1.17-.3.538.538,0,0,1-.144-.284c-.041-.629-.041-2.453-.041-3.649a4.376,4.376,0,0,0-.575-2.433,2.473,2.473,0,0,0-2.094-1.095,4.869,4.869,0,0,0-2.751,1.3c-.021.02-.156.149-.153-.051s.034-.605.052-.861a.441.441,0,0,0-.135-.376,12.62,12.62,0,0,1-2.791.73c-.437.084-.547.5-.082.648h0l.007,0a3.968,3.968,0,0,1,1.06.464.552.552,0,0,1,.164.507c.02,1.358.02,3.447-.041,4.582-.02.446-.144.608-.472.689l.03-.01a6.426,6.426,0,0,1-.759.142,1.106,1.106,0,0,0,0,.811c.205,0,1.253-.061,2.115-.061,1.19,0,1.806.061,2.114.061a1.133,1.133,0,0,0,.082-.811,4.374,4.374,0,0,1-.842-.122c-.328-.081-.411-.243-.431-.608-.041-.953-.041-2.98-.041-4.359a.8.8,0,0,1,.226-.669,2.7,2.7,0,0,1,1.683-.608,1.848,1.848,0,0,1,1.252.425,1.734,1.734,0,0,1,.575,1.135c.082.771.061,2.311.061,3.649,0,.73-.061.912-.328.993a3.312,3.312,0,0,1-.842.162,1.107,1.107,0,0,0,0,.811c.534,0,1.15-.061,2.053-.061,1.129,0,1.848.061,2.135.061a1.125,1.125,0,0,0,.082-.811" transform="translate(1400.019 824.818)" fill="#414044" />
        </g>
    </g>
</svg>