<svg xmlns="http://www.w3.org/2000/svg" xmlns:xlink="http://www.w3.org/1999/xlink" viewBox="0 0 594.556 157.577">
    <defs>
        <radialGradient id="radial-gradient" cx="0.5" cy="0" r="1.001" gradientTransform="translate(0.5 -0.5) rotate(90) scale(0.999 1.152)" gradientUnits="objectBoundingBox">
            <stop offset="0" stop-color="#20c6b7" />
            <stop offset="1" stop-color="#4d9abf" />
        </radialGradient>
    </defs>
    <g id="Netlify_logo" transform="translate(-0.129 -0.829)">
        <path id="Path_1037" data-name="Path 1037" d="M65.636,38.491l.5,8.915Q74.67,37.063,88.543,37.063q24.037,0,24.465,27.6v50.974H95.73V65.657q0-7.343-3.164-10.874t-10.35-3.529q-10.458,0-15.574,9.483v54.9H49.356V38.491H65.644Zm98.873,78.569q-16.426,0-26.635-10.371T127.666,79.061V76.924a46.369,46.369,0,0,1,4.445-20.64,33.91,33.91,0,0,1,12.484-14.155,32.975,32.975,0,0,1,17.927-5.058q15.714,0,24.286,10.05t8.574,28.448v6.988H145.09q.791,9.551,6.368,15.112a19.1,19.1,0,0,0,14.049,5.561,23.378,23.378,0,0,0,19.346-9.624l9.316,8.915a31.165,31.165,0,0,1-12.338,10.728,38.561,38.561,0,0,1-17.318,3.812Zm-2.06-66.086a14.535,14.535,0,0,0-11.486,4.989q-4.38,4.989-5.585,13.9h32.933V68.581q-.572-8.7-4.624-13.153t-11.239-4.453Zm68-31.23V38.5h13.587V51.328H230.444V94.388q0,4.417,1.744,6.38t6.226,1.959a26.566,26.566,0,0,0,6.043-.714v13.4a42.372,42.372,0,0,1-11.381,1.639q-19.912,0-19.914-22.027V51.324h-12.67V38.491h12.662V19.741h17.282Zm45.17,95.892H258.328V6.13h17.286Zm37.2,0H295.528V38.5h17.286ZM294.462,18.459a9.209,9.209,0,0,1,2.523-6.627Q299.515,9.2,304.2,9.2t7.26,2.636a9.153,9.153,0,0,1,2.555,6.631,8.936,8.936,0,0,1-2.555,6.522q-2.567,2.6-7.26,2.6t-7.219-2.6a8.986,8.986,0,0,1-2.523-6.522Zm43.247,97.178V51.324H325.971V38.491h11.738V31.434q0-12.837,7.11-19.821t19.914-6.984a39.856,39.856,0,0,1,9.677,1.282l-.426,13.546a33.968,33.968,0,0,0-6.615-.568q-12.38,0-12.378,12.76v6.842h15.647V51.324H354.991v64.309H337.709Zm72.478-24.809L425.834,38.5h18.422L413.674,127.33q-7.045,19.462-23.9,19.464a30.884,30.884,0,0,1-8.323-1.286V132.1l3.273.215q6.54,0,9.852-2.389t5.228-8.018l2.486-6.631L375.262,38.5H393.9Z" transform="translate(150.429 11.612)" fill="#fff" fill-rule="evenodd" />
        <path id="Path_1038" data-name="Path 1038" d="M113.413,54.8l-.057-.024a.24.24,0,0,1-.093-.053.446.446,0,0,1-.114-.377l3.135-19.168,14.7,14.706L115.7,56.386a.337.337,0,0,1-.134.024H115.5a.421.421,0,0,1-.081-.069A6.96,6.96,0,0,0,113.413,54.8Zm21.326-1.168,15.72,15.72c3.265,3.269,4.9,4.9,5.5,6.789a7.644,7.644,0,0,1,.219.848L118.6,61.074l-.061-.024c-.15-.061-.324-.13-.324-.284s.178-.227.329-.288l.049-.02Zm20.794,28.4c-.811,1.525-2.393,3.107-5.07,5.788l-17.724,17.72-22.924-4.774-.122-.024c-.2-.032-.418-.069-.418-.251a6.919,6.919,0,0,0-2.657-4.839.4.4,0,0,1-.041-.373.129.129,0,0,1,.008-.057L110.9,68.752l.016-.089c.024-.2.061-.438.243-.438a7.017,7.017,0,0,0,4.7-2.7c.036-.041.061-.085.109-.11a.532.532,0,0,1,.418.057l39.139,16.556Zm-26.87,27.584L99.517,138.76l4.989-30.662.008-.041a.55.55,0,0,1,.024-.118c.041-.1.146-.138.247-.178l.049-.02a7.5,7.5,0,0,0,2.819-2.1.62.62,0,0,1,.365-.243.365.365,0,0,1,.118,0l20.522,4.218ZM93.348,144.929l-3.285,3.285-36.32-52.49-.041-.057a.356.356,0,0,1-.105-.243.271.271,0,0,1,.089-.17l.041-.053c.11-.162.2-.324.3-.5l.081-.142.012-.012a.58.58,0,0,1,.207-.243.491.491,0,0,1,.3,0l40.238,8.3a.665.665,0,0,1,.308.134.3.3,0,0,1,.077.174,7.126,7.126,0,0,0,4.169,4.766c.114.057.065.183.012.316a.965.965,0,0,0-.061.183C98.864,111.253,94.516,137.77,93.348,144.929Zm-6.862,6.858c-2.421,2.4-3.849,3.666-5.463,4.177a8.112,8.112,0,0,1-4.891,0c-1.89-.6-3.525-2.231-6.789-5.5L32.868,113.991,42.4,99.215a.607.607,0,0,1,.162-.191.42.42,0,0,1,.369,0,9.872,9.872,0,0,0,6.643-.337c.11-.041.219-.069.3.008a.771.771,0,0,1,.114.13l36.5,52.965ZM29.352,110.474l-8.367-8.367,16.523-7.049a.341.341,0,0,1,.134-.028c.138,0,.219.138.292.264q.249.383.527.746l.053.065c.049.069.016.138-.032.2l-9.126,14.167ZM17.281,98.4,6.7,87.819c-1.8-1.8-3.107-3.107-4.015-4.23l32.187,6.676.122.02c.2.032.418.069.418.256,0,.2-.239.3-.442.373l-.093.041ZM.831,78.145A8.112,8.112,0,0,1,1.2,76.138c.6-1.89,2.231-3.52,5.5-6.789L20.242,55.8Q29.6,69.379,39,82.924c.11.145.232.307.106.429a11.258,11.258,0,0,0-1.6,2.141.649.649,0,0,1-.2.251.224.224,0,0,1-.17.008h-.008L.831,78.141ZM23.868,52.176,42.075,33.961c1.716.75,7.949,3.383,13.518,5.735,4.218,1.785,8.063,3.407,9.272,3.934a.447.447,0,0,1,.284.219.415.415,0,0,1,0,.243,8.124,8.124,0,0,0,2.121,7.414c.122.122,0,.3-.105.446l-.057.085L48.613,80.684a.561.561,0,0,1-.174.2.47.47,0,0,1-.349,0,9.223,9.223,0,0,0-2.2-.3,12.131,12.131,0,0,0-2.117.256h0a.271.271,0,0,1-.219-.02.852.852,0,0,1-.183-.207l-19.5-28.443ZM45.761,30.283,69.342,6.7c3.265-3.265,4.9-4.9,6.789-5.5a8.112,8.112,0,0,1,4.891,0c1.89.6,3.525,2.231,6.789,5.5l5.11,5.11L76.152,37.786a.629.629,0,0,1-.166.195.425.425,0,0,1-.365,0,8.505,8.505,0,0,0-7.787,1.5c-.11.114-.272.049-.41-.012-2.19-.953-19.225-8.152-21.662-9.186ZM96.484,15.373l15.485,15.485-3.731,23.11v.061a.547.547,0,0,1-.032.154c-.041.081-.122.1-.2.122a7.422,7.422,0,0,0-2.223,1.107.625.625,0,0,0-.081.069.256.256,0,0,1-.162.1.462.462,0,0,1-.174-.028l-23.6-10.026-.045-.02c-.15-.061-.329-.134-.329-.288a8.915,8.915,0,0,0-1.257-3.711c-.114-.187-.239-.381-.142-.572Zm-15.947,34.9,22.12,9.369c.122.057.256.11.308.235a.43.43,0,0,1,0,.231,5.5,5.5,0,0,0-.122,1.067V61.8c0,.154-.158.219-.3.28l-.045.016c-3.5,1.5-49.2,20.981-49.266,20.981a.262.262,0,0,1-.211-.069c-.122-.122,0-.292.11-.446l.057-.081L71.362,54.334l.032-.049c.105-.17.227-.361.422-.361l.183.028a8.476,8.476,0,0,0,1.148.11A8.213,8.213,0,0,0,80,50.424a.649.649,0,0,1,.138-.162.41.41,0,0,1,.4.016ZM55.2,87.531l49.806-21.24a.219.219,0,0,1,.142.069,6.739,6.739,0,0,0,.726.625l.11.069c.1.057.2.122.211.227a.411.411,0,0,1-.008.1L101.922,93.59l-.016.105c-.028.2-.057.434-.247.434a7.013,7.013,0,0,0-5.569,3.435l-.02.032a.565.565,0,0,1-.2.231.453.453,0,0,1-.284,0L55.864,89.64c-.041-.008-.616-2.1-.661-2.109Z" transform="translate(-0.702)" fill="url(#radial-gradient)" />
    </g>
</svg>
