<svg xmlns="http://www.w3.org/2000/svg" width='64.593' height='39' viewBox="0 0 64.593 39.69">
  <g id="Nodejs" transform="translate(-1321 -737)">
    <path id="Path_668" data-name="Path 668" d="M387.172,105.087a.142.142,0,0,1,.143,0l1.187.685a.143.143,0,0,1,.072.124v1.371a.143.143,0,0,1-.072.124l-1.187.685a.142.142,0,0,1-.143,0l-1.186-.685a.143.143,0,0,1-.073-.124V105.9a.142.142,0,0,1,.072-.124Zm0,0" transform="translate(991.436 647.274)" fill="#689f63" fill-rule="evenodd" />
    <g id="Group_2157" data-name="Group 2157">
      <g id="Group_2010" data-name="Group 2010" transform="translate(1345.862 760.771)">
        <path id="Path_665" data-name="Path 665" d="M177.336,177.826a1.228,1.228,0,0,1-.612-.164l-1.947-1.153c-.291-.163-.149-.22-.053-.253a3.929,3.929,0,0,0,.88-.4.148.148,0,0,1,.145.01l1.5.888a.2.2,0,0,0,.181,0l5.833-3.367a.184.184,0,0,0,.089-.158V166.5a.187.187,0,0,0-.09-.161l-5.831-3.364a.179.179,0,0,0-.18,0l-5.83,3.364a.186.186,0,0,0-.092.159v6.731a.18.18,0,0,0,.091.156l1.6.923c.867.434,1.4-.077,1.4-.591V167.07a.166.166,0,0,1,.169-.168h.739a.167.167,0,0,1,.168.168v6.647a1.617,1.617,0,0,1-1.727,1.821,2.5,2.5,0,0,1-1.345-.365l-1.53-.882a1.233,1.233,0,0,1-.612-1.064v-6.731a1.226,1.226,0,0,1,.612-1.063l5.839-3.369a1.279,1.279,0,0,1,1.227,0l5.832,3.37a1.231,1.231,0,0,1,.612,1.063v6.731a1.234,1.234,0,0,1-.612,1.063l-5.832,3.369a1.226,1.226,0,0,1-.615.164" transform="translate(-170.273 -161.907)" fill="#689f63" />
        <path id="Path_666" data-name="Path 666" d="M212.929,191.338c-2.552,0-3.087-1.172-3.087-2.154a.168.168,0,0,1,.169-.168h.753a.169.169,0,0,1,.166.143c.114.768.453,1.155,2,1.155,1.229,0,1.752-.278,1.752-.93,0-.375-.149-.654-2.059-.841-1.6-.158-2.584-.51-2.584-1.787,0-1.177.993-1.878,2.656-1.878,1.868,0,2.793.648,2.91,2.041a.17.17,0,0,1-.045.13.174.174,0,0,1-.124.054h-.758a.167.167,0,0,1-.164-.131c-.182-.807-.623-1.066-1.822-1.066-1.342,0-1.5.467-1.5.818,0,.425.184.549,1.995.789,1.793.238,2.644.574,2.644,1.834s-1.06,2-2.909,2m7.105-7.139h.2a.17.17,0,0,0,.191-.178c0-.172-.118-.172-.184-.172h-.2Zm-.238-.552h.434c.149,0,.441,0,.441.333a.29.29,0,0,1-.238.31c.174.012.185.126.209.286a1.232,1.232,0,0,0,.066.333h-.267c-.007-.058-.048-.38-.048-.4-.018-.072-.042-.107-.131-.107h-.221v.505h-.244Zm-.521.628a.943.943,0,1,0,.939-.94.944.944,0,0,0-.939.94m2.068,0a1.124,1.124,0,1,1-1.124-1.124,1.128,1.128,0,0,1,1.124,1.124" transform="translate(-204.064 -180.058)" fill="#689f63" />
      </g>
      <path id="Path_667" data-name="Path 667" d="M13.862,13.222a.747.747,0,0,0-.374-.649L7.3,9.014a.722.722,0,0,0-.34-.1H6.9a.735.735,0,0,0-.342.1L.374,12.573a.753.753,0,0,0-.374.65l.014,9.584A.368.368,0,0,0,.2,23.13a.353.353,0,0,0,.371,0l3.677-2.106a.754.754,0,0,0,.374-.648V15.9a.745.745,0,0,1,.373-.647l1.565-.9a.743.743,0,0,1,.374-.1.729.729,0,0,1,.371.1l1.565.9a.745.745,0,0,1,.374.647v4.477a.757.757,0,0,0,.375.648l3.674,2.1a.365.365,0,0,0,.374,0,.375.375,0,0,0,.185-.323Zm29.184,4.99a.186.186,0,0,1-.093.161L40.828,19.6a.187.187,0,0,1-.186,0l-2.125-1.224a.185.185,0,0,1-.093-.161V15.76a.188.188,0,0,1,.092-.162l2.123-1.227a.189.189,0,0,1,.188,0L42.952,15.6a.186.186,0,0,1,.093.162ZM43.62.047a.373.373,0,0,0-.556.327V9.865a.261.261,0,0,1-.392.226L41.123,9.2a.746.746,0,0,0-.746,0L34.19,12.77a.745.745,0,0,0-.374.645v7.143a.748.748,0,0,0,.374.647l6.187,3.573a.75.75,0,0,0,.747,0L47.31,21.2a.749.749,0,0,0,.374-.647V2.754A.749.749,0,0,0,47.3,2.1ZM64.221,15.7a.747.747,0,0,0,.371-.646V13.318a.747.747,0,0,0-.372-.646L58.073,9.1a.747.747,0,0,0-.749,0l-6.185,3.57a.746.746,0,0,0-.374.647v7.14a.75.75,0,0,0,.377.65l6.146,3.5a.745.745,0,0,0,.733,0l3.718-2.066a.373.373,0,0,0,0-.65L55.518,18.33a.371.371,0,0,1-.188-.323v-2.24a.371.371,0,0,1,.187-.324l1.936-1.117a.369.369,0,0,1,.372,0l1.938,1.117a.372.372,0,0,1,.187.323v1.761a.373.373,0,0,0,.561.323Zm0,0" transform="translate(1321 737)" fill="#333" fill-rule="evenodd" />
      <path id="Union_4" data-name="Union 4" d="M89.9,326.7h0a.749.749,0,0,1-.372-.1l-1.392-.8-4.761-2.749a.751.751,0,0,1-.219-.193h0A.742.742,0,0,1,83,322.4v-7.106a.744.744,0,0,1,.372-.643l6.151-3.551h0a.764.764,0,0,1,.211-.081l.015,0h.005l.018,0h0l.019,0h0l.018,0a.748.748,0,0,1,.45.095l1.534.886.588.338,4.027,2.327.022.013a.707.707,0,0,1,.151.124h0a.742.742,0,0,1,.2.506V322.4a.743.743,0,0,1-.013.136v.013a.744.744,0,0,1-.356.493L90.268,326.6a.746.746,0,0,1-.166.07h0a.824.824,0,0,1-.147.027l-.055,0Z" transform="translate(1254.945 435.04)" fill="#333" />
    </g>
  </g>
</svg>