<svg xmlns="http://www.w3.org/2000/svg" viewBox="0 0 128.603 79.022">
  <g id="Group_2168" data-name="Group 2168" transform="translate(-15192.574 -8311.118)">
    <g id="Group_2010" data-name="Group 2010" transform="translate(15242.074 8358.446)">
      <path id="Path_665" data-name="Path 665" d="M184.336,193.6a2.444,2.444,0,0,1-1.218-.326l-3.877-2.3c-.579-.324-.3-.438-.105-.5a7.825,7.825,0,0,0,1.753-.8.294.294,0,0,1,.289.02l2.979,1.768a.393.393,0,0,0,.36,0l11.614-6.7a.366.366,0,0,0,.177-.314v-13.4a.373.373,0,0,0-.18-.32l-11.609-6.7a.357.357,0,0,0-.358,0l-11.607,6.7a.37.37,0,0,0-.184.317v13.4a.358.358,0,0,0,.18.311l3.18,1.837c1.727.863,2.782-.154,2.782-1.177V172.187a.331.331,0,0,1,.337-.334h1.471a.333.333,0,0,1,.334.334V185.42c0,2.3-1.256,3.625-3.439,3.625a4.979,4.979,0,0,1-2.677-.727l-3.047-1.756a2.456,2.456,0,0,1-1.218-2.119v-13.4a2.44,2.44,0,0,1,1.218-2.116l11.626-6.707a2.546,2.546,0,0,1,2.442,0l11.611,6.71a2.45,2.45,0,0,1,1.218,2.116v13.4a2.457,2.457,0,0,1-1.218,2.116l-11.611,6.707a2.441,2.441,0,0,1-1.224.326" transform="translate(-170.273 -161.907)" fill="#689f63" />
      <path id="Path_666" data-name="Path 666" d="M215.989,199.442c-5.082,0-6.147-2.333-6.147-4.289a.334.334,0,0,1,.336-.334h1.5a.336.336,0,0,1,.331.284c.227,1.529.9,2.3,3.974,2.3,2.448,0,3.489-.553,3.489-1.851,0-.747-.3-1.3-4.1-1.674-3.18-.314-5.146-1.015-5.146-3.558,0-2.343,1.977-3.738,5.288-3.738,3.718,0,5.561,1.291,5.794,4.064a.338.338,0,0,1-.09.259.346.346,0,0,1-.247.108h-1.509a.333.333,0,0,1-.326-.262c-.363-1.608-1.241-2.122-3.628-2.122-2.672,0-2.983.93-2.983,1.628,0,.846.366,1.093,3.971,1.57,3.57.474,5.265,1.142,5.265,3.651,0,2.529-2.111,3.98-5.791,3.98m14.146-14.213h.39a.338.338,0,0,0,.381-.355c0-.343-.236-.343-.366-.343h-.4Zm-.474-1.1h.863c.3,0,.878,0,.878.663a.577.577,0,0,1-.474.616c.346.023.369.25.416.57a2.453,2.453,0,0,0,.131.663h-.532c-.015-.116-.1-.756-.1-.791-.035-.142-.084-.212-.262-.212h-.439v1.006h-.485Zm-1.038,1.25a1.877,1.877,0,1,0,1.869-1.872,1.879,1.879,0,0,0-1.869,1.872m4.117.009a2.239,2.239,0,1,1-2.238-2.238,2.245,2.245,0,0,1,2.238,2.238" transform="translate(-198.339 -176.982)" fill="#689f63" />
    </g>
    <path id="Path_667" data-name="Path 667" d="M27.6,26.324a1.487,1.487,0,0,0-.744-1.292L14.542,17.947a1.438,1.438,0,0,0-.677-.195h-.127a1.463,1.463,0,0,0-.68.195L.745,25.032A1.5,1.5,0,0,0,0,26.326L.027,45.408A.733.733,0,0,0,.4,46.05a.7.7,0,0,0,.738,0l7.32-4.192A1.5,1.5,0,0,0,9.2,40.568V31.653a1.483,1.483,0,0,1,.743-1.288l3.116-1.795a1.479,1.479,0,0,1,.744-.2,1.452,1.452,0,0,1,.74.2l3.115,1.794a1.484,1.484,0,0,1,.744,1.288v8.914a1.506,1.506,0,0,0,.746,1.291l7.315,4.189a.727.727,0,0,0,.744,0,.747.747,0,0,0,.369-.642ZM85.7,36.26a.37.37,0,0,1-.186.322l-4.229,2.438a.373.373,0,0,1-.371,0l-4.23-2.438a.368.368,0,0,1-.186-.322V31.377a.374.374,0,0,1,.183-.323l4.227-2.442a.376.376,0,0,1,.375,0l4.23,2.442a.371.371,0,0,1,.186.323ZM86.846.094a.744.744,0,0,0-1.106.65v18.9a.52.52,0,0,1-.78.451l-3.084-1.777a1.485,1.485,0,0,0-1.486,0L68.071,25.424a1.484,1.484,0,0,0-.744,1.285V40.93a1.489,1.489,0,0,0,.744,1.288l12.318,7.114a1.493,1.493,0,0,0,1.488,0l12.317-7.117a1.491,1.491,0,0,0,.744-1.288V5.484a1.491,1.491,0,0,0-.765-1.3Zm41.018,31.154a1.487,1.487,0,0,0,.739-1.286V26.516a1.488,1.488,0,0,0-.74-1.286l-12.239-7.105a1.486,1.486,0,0,0-1.491,0l-12.315,7.108a1.485,1.485,0,0,0-.744,1.288V40.736a1.492,1.492,0,0,0,.75,1.294L114.059,49a1.483,1.483,0,0,0,1.459.009l7.4-4.114a.743.743,0,0,0,.006-1.294l-12.39-7.111a.738.738,0,0,1-.375-.642v-4.46a.738.738,0,0,1,.372-.644l3.855-2.224a.735.735,0,0,1,.741,0l3.858,2.224a.741.741,0,0,1,.372.642V34.9a.742.742,0,0,0,1.116.642Zm0,0" transform="translate(15192.574 8311.118)" fill="#f8f8f8" fill-rule="evenodd" />
    <path id="Path_668" data-name="Path 668" d="M388.42,105.106a.282.282,0,0,1,.285,0l2.363,1.363a.285.285,0,0,1,.142.247v2.73a.285.285,0,0,1-.142.247l-2.363,1.363a.282.282,0,0,1-.285,0l-2.362-1.363a.285.285,0,0,1-.145-.247v-2.73a.282.282,0,0,1,.142-.247Zm0,0" transform="translate(14918.852 8236.595)" fill="#689f63" fill-rule="evenodd" />
    <path id="Path_670" data-name="Path 670" d="M207.342,226.123l-12.248,7.069a1.478,1.478,0,0,0-.74,1.281v14.148a1.478,1.478,0,0,0,.74,1.281l12.249,7.075a1.483,1.483,0,0,0,1.48,0l12.247-7.075a1.482,1.482,0,0,0,.738-1.281V234.473a1.478,1.478,0,0,0-.741-1.281l-12.245-7.069a1.488,1.488,0,0,0-1.483,0" transform="translate(15031.957 8103.191)" fill="#689f63" />
    <path id="Path_672" data-name="Path 672" d="M195.4,249.622a1.483,1.483,0,0,0,.436.383l10.506,6.069,1.75,1.006a1.484,1.484,0,0,0,.853.193,1.506,1.506,0,0,0,.291-.053l12.917-23.652a1.463,1.463,0,0,0-.344-.273l-8.02-4.631-4.239-2.439a1.543,1.543,0,0,0-.384-.154Zm0,0" transform="translate(15031.216 8103.089)" fill="#7fc779" />
    <path id="Path_674" data-name="Path 674" d="M209.825,225.94a1.494,1.494,0,0,0-.592.19l-12.213,7.049,13.169,23.987a1.471,1.471,0,0,0,.526-.181l12.248-7.075a1.484,1.484,0,0,0,.715-1.01l-13.425-22.934a1.535,1.535,0,0,0-.3-.03c-.041,0-.081,0-.122.006" transform="translate(15030.064 8103.184)" fill="#77bb71" />
  </g>
</svg>
