<svg xmlns="http://www.w3.org/2000/svg" width="432.478" height="104.121" viewBox="0 0 432.478 104.121"><g transform="translate(-818.278 -963.738)"><g style="isolation:isolate"><g style="isolation:isolate"><path d="M863.8,972.3c0-4.239-1.44-4.96-8-5.52v-3.04h18.96v3.04c-5.52.64-6.159,1.281-6.159,5.52v47.762h-4.8L829.238,976.7v34.641c0,4.24,1.441,4.961,8,5.52v3.041H818.358v-3.041c5.44-.639,6.08-1.28,6.08-5.52V971.818c-2.24-3.44-3.36-4.8-6.16-5.04v-3.04h18.16L863.8,998.219Z" fill="#fff"/><path d="M879,999.419c0-13.52,9.04-23.041,21.521-23.041,12.72,0,21.44,8.4,21.44,21.281,0,13.521-9.121,23.04-21.6,23.04C887.639,1020.7,879,1012.3,879,999.419Zm29.28,1.36c0-12.48-2.32-21.281-8.16-21.281-5.36,0-7.52,6.481-7.52,16.8,0,12.48,2.32,21.28,8.16,21.28C906.12,1017.579,908.279,1011.1,908.279,1000.779Z" fill="#fff"/><path d="M928.277,999.419c0-13.52,9.04-23.041,21.521-23.041,12.72,0,21.44,8.4,21.44,21.281,0,13.521-9.12,23.04-21.6,23.04C936.917,1020.7,928.277,1012.3,928.277,999.419Zm29.281,1.36c0-12.48-2.32-21.281-8.161-21.281-5.359,0-7.52,6.481-7.52,16.8,0,12.48,2.32,21.28,8.161,21.28C955.4,1017.579,957.558,1011.1,957.558,1000.779Z" fill="#fff"/><path d="M994.2,1012.779c0,3.361,1.761,3.76,6.56,4.241v2.88H976.6v-2.88c3.44-.241,4.72-.641,4.72-3.281V985.5l-4.64-2.8v-1.839l15.44-4.481h2.4l-.321,12.081c3.52-9.04,6.08-12.081,10.961-12.081a4.952,4.952,0,0,1,3.76,1.36V987.5h-1.68c-5.04,0-9.2.239-13.041,3.68Z" fill="#fff"/></g></g><g style="isolation:isolate"><g style="isolation:isolate"><path d="M963.238,1047.7l-.48-10.88h3.28c1.68,6.72,5.84,11.84,12,11.84,4,0,7.2-2,7.2-6,0-4.24-3.04-5.679-8.961-7.759-8.72-2.881-13.36-6.481-13.36-14.162,0-8.559,6.4-13.36,15.681-13.36a24.744,24.744,0,0,1,13.28,3.521v9.68h-3.04c-1.12-5.52-4.56-10.16-10.16-10.16-3.761,0-6.16,2.159-6.16,5.359,0,3.6,2.48,5.2,8.24,7.2,9.04,3.12,14.16,6.4,14.16,14.72,0,8.88-6.64,14-16.88,14C971.639,1051.7,966.519,1050.1,963.238,1047.7Z" fill="#060b43"/><path d="M1025.237,1042.819a12.242,12.242,0,0,0,10.881-5.6l1.6.88c-2.56,9.2-8.72,13.6-17.28,13.6-10.96,0-19.12-8-19.12-20.8,0-13.441,8.32-23.522,21.28-23.522,7.921,0,13.921,3.12,13.921,9.681a5.98,5.98,0,0,1-3.281,5.6h-6.8a39.265,39.265,0,0,0,.32-4.24c0-4.4-1.36-7.761-5.52-7.761-5.52,0-8.8,6.641-8.8,15.2C1012.437,1036.179,1017.157,1042.819,1025.237,1042.819Z" fill="#060b43"/><path d="M1059.8,1043.779c0,3.361,1.76,3.76,6.56,4.241v2.88H1042.2v-2.88c3.44-.241,4.72-.641,4.72-3.281V1016.5l-4.641-2.8v-1.839l15.441-4.481h2.4l-.32,12.081c3.52-9.04,6.08-12.081,10.96-12.081a4.952,4.952,0,0,1,3.76,1.36v9.761h-1.68c-5.04,0-9.2.239-13.04,3.68Z" fill="#060b43"/><path d="M1114.038,1042.1c0,2.319.4,4,2.4,4a7.384,7.384,0,0,0,2.96-.641l.48,1.92a12.452,12.452,0,0,1-9.76,4.32c-4.48,0-7.52-2.559-8.56-6.88-2.48,3.361-6.48,6.72-12.241,6.72-6.64,0-11.12-3.92-11.12-10.559,0-6.961,4.88-9.761,10.72-11.921l12.4-4.4v-7.44c0-4.16-1.28-7.04-4.961-7.04-3.44,0-4.879,2.72-4.879,6.559a20.279,20.279,0,0,0,.72,5.2l-7.68,1.04a5.247,5.247,0,0,1-3.761-5.281c0-6.96,7.2-10.32,16.481-10.32,10.64,0,16.8,3.6,16.8,13.521Zm-12.72.559v-14.88l-5.68,2.24c-3.12,1.28-5.12,2.881-5.12,7.44,0,4.16,1.759,7.12,5.919,7.12C1098.278,1044.579,1099.558,1043.859,1101.318,1042.659Z" fill="#060b43"/><path d="M1127,1016.5l-4.64-2.8v-1.839l15.44-4.481h2.32l-.32,7.6a15.948,15.948,0,0,1,13.44-7.6c9.6,0,16.081,6.881,16.081,19.521,0,16-9.68,24.8-22,24.8-3.12,0-5.92-.639-7.52-1.92v11.6c0,2.96,1.52,3.2,6.4,3.6v2.879h-24v-2.879c3.52-.241,4.8-.64,4.8-3.281Zm29.28,14.56c0-10.16-3.679-16-10.48-16a10.092,10.092,0,0,0-6,2.08v22.32c0,5.681,1.92,8.88,6.56,8.88C1152.678,1048.339,1156.278,1040.739,1156.278,1031.059Z" fill="#060b43"/><path d="M1213.157,1024.5v1.84h-25.84c-.24,10.48,5.28,16.721,12.8,16.721a13.717,13.717,0,0,0,12-6.16l1.361.8c-2.081,8.4-8.081,14-17.761,14-11.68,0-20-8.24-20-21.12,0-14,9.28-23.2,20.56-23.2C1207.4,1007.378,1213.157,1014.578,1213.157,1024.5Zm-25.68-1.44h14.4c0-7.6-1.76-12.561-6.48-12.561C1190.517,1010.5,1187.957,1015.7,1187.477,1023.059Z" fill="#060b43"/><path d="M1236.036,1043.779c0,3.361,1.76,3.76,6.56,4.241v2.88h-24.16v-2.88c3.44-.241,4.72-.641,4.72-3.281V1016.5l-4.64-2.8v-1.839l15.44-4.481h2.4l-.32,12.081c3.52-9.04,6.08-12.081,10.961-12.081a4.95,4.95,0,0,1,3.759,1.36v9.761h-1.679c-5.04,0-9.2.239-13.041,3.68Z" fill="#060b43"/></g></g></g></svg>