<svg id="photoshop" xmlns="http://www.w3.org/2000/svg" viewBox="0 0 80.622 78.606">
    <g id="Surfaces">
        <g id="Photo_Surface">
            <g id="Outline_no_shadow">
                <path id="Path_702" data-name="Path 702" d="M14.277,0H66.345A14.265,14.265,0,0,1,80.622,14.277V64.33A14.265,14.265,0,0,1,66.345,78.606H14.277A14.265,14.265,0,0,1,0,64.33V14.277A14.265,14.265,0,0,1,14.277,0Z" fill="#001e36" />
            </g>
        </g>
    </g>
    <g id="Outlined_Mnemonics_Logos" transform="translate(18.14 19.988)">
        <g id="Ps">
            <path id="Path_703" data-name="Path 703" d="M54,94.638V60.071c0-.235.1-.37.336-.37.571,0,1.109,0,1.881-.034.806-.034,1.646-.034,2.553-.067s1.881-.034,2.923-.067,2.049-.034,3.057-.034a19.752,19.752,0,0,1,6.92,1.041,12,12,0,0,1,4.5,2.755,10.7,10.7,0,0,1,2.452,3.83,12.857,12.857,0,0,1,.773,4.367,12.01,12.01,0,0,1-2.016,7.155,11.509,11.509,0,0,1-5.408,4.1,21.771,21.771,0,0,1-7.558,1.142c-.806,0-1.344,0-1.68-.034s-.806-.034-1.444-.034V94.6a.418.418,0,0,1-.37.47H54.4C54.134,95.074,54,94.94,54,94.638Zm7.323-28.453V77.472c.47.034.907.067,1.31.067h1.78a12.549,12.549,0,0,0,3.863-.6,5.777,5.777,0,0,0,2.755-1.78,5.191,5.191,0,0,0,1.041-3.46A5.529,5.529,0,0,0,71.3,68.7a4.872,4.872,0,0,0-2.351-1.915,9.857,9.857,0,0,0-3.964-.672c-.873,0-1.646,0-2.284.034a7.693,7.693,0,0,0-1.377.034Z" transform="translate(-54 -59.5)" fill="#31a8ff" />
            <path id="Path_704" data-name="Path 704" d="M157.659,91.892a11.89,11.89,0,0,0-3.225-1.142,17.708,17.708,0,0,0-3.762-.437,6.763,6.763,0,0,0-2.016.235,1.725,1.725,0,0,0-1.041.672,1.78,1.78,0,0,0-.269.907,1.494,1.494,0,0,0,.336.873,3.79,3.79,0,0,0,1.142.907c.773.4,1.579.773,2.385,1.109a24.331,24.331,0,0,1,5.173,2.452,7.817,7.817,0,0,1,2.654,2.788,7.253,7.253,0,0,1,.773,3.46,7.817,7.817,0,0,1-1.31,4.468,8.418,8.418,0,0,1-3.762,2.99,15.391,15.391,0,0,1-6.08,1.075,23.138,23.138,0,0,1-4.569-.437,13.551,13.551,0,0,1-3.426-1.075.661.661,0,0,1-.37-.638v-5.845a.365.365,0,0,1,.134-.3.256.256,0,0,1,.3.034,14.38,14.38,0,0,0,4.165,1.646,15.639,15.639,0,0,0,3.964.5,6.412,6.412,0,0,0,2.788-.47,1.561,1.561,0,0,0,.907-1.411,1.78,1.78,0,0,0-.806-1.344,14.247,14.247,0,0,0-3.292-1.579,20.552,20.552,0,0,1-4.77-2.419,8.7,8.7,0,0,1-2.553-2.855,7.208,7.208,0,0,1-.773-3.426,7.9,7.9,0,0,1,1.142-4.065,8.28,8.28,0,0,1,3.527-3.09,13.026,13.026,0,0,1,5.946-1.176,28.96,28.96,0,0,1,4.165.3,11.819,11.819,0,0,1,2.889.773.59.59,0,0,1,.336.3,1.687,1.687,0,0,1,.067.4v5.476a.414.414,0,0,1-.168.336A.9.9,0,0,1,157.659,91.892Z" transform="translate(-111.301 -75.969)" fill="#31a8ff" />
        </g>
    </g>
</svg>