<svg id="_0a81918e404544f" data-name="0a81918e404544f" xmlns="http://www.w3.org/2000/svg" viewBox="0 0 210.544 63.888">
    <g id="Group_2149" data-name="Group 2149" transform="translate(0 0)">
        <path id="Path_766" data-name="Path 766" d="M275,125.478V106.985a.8.8,0,0,1,.255-.575.863.863,0,0,1,.671-.224h5.206a6.242,6.242,0,0,1,4.248,1.437,5.808,5.808,0,0,1,1.6,4.5v.256a5.78,5.78,0,0,1-1.629,4.535,6.247,6.247,0,0,1-4.312,1.437h-3.7v7.122a.685.685,0,0,1-.351.607,1.646,1.646,0,0,1-1.629,0A.685.685,0,0,1,275,125.478Zm2.3-9.039h3.737a3.483,3.483,0,0,0,2.683-.99,3.912,3.912,0,0,0,.958-2.938v-.319a4,4,0,0,0-.958-2.938,3.624,3.624,0,0,0-2.683-.958h-3.7Z" transform="translate(-200.737 -84.399)" fill="#ff6c37" />
        <path id="Path_767" data-name="Path 767" d="M337.7,120.545v-8.272a5.838,5.838,0,0,1,1.6-4.535,7.186,7.186,0,0,1,8.623,0,5.78,5.78,0,0,1,1.629,4.535v8.272a5.735,5.735,0,0,1-1.629,4.535,7.092,7.092,0,0,1-8.623,0A5.838,5.838,0,0,1,337.7,120.545Zm2.332,0c0,2.587,1.182,3.9,3.609,3.9a3.624,3.624,0,0,0,2.683-.958,4.046,4.046,0,0,0,.958-2.938v-8.3a4,4,0,0,0-.958-2.938,3.624,3.624,0,0,0-2.683-.958c-2.4,0-3.577,1.278-3.577,3.9Z" transform="translate(-243.412 -84.48)" fill="#ff6c37" />
        <path id="Path_768" data-name="Path 768" d="M400.4,123.411a1.434,1.434,0,0,1,.319-.862.944.944,0,0,1,.671-.415.987.987,0,0,1,.639.351c.255.224.511.479.8.767a3.629,3.629,0,0,0,1.309.767,5.455,5.455,0,0,0,2.012.351,4.209,4.209,0,0,0,2.811-.862,3.2,3.2,0,0,0,1.022-2.555,3.342,3.342,0,0,0-.926-2.459,6.242,6.242,0,0,0-2.268-1.437c-.894-.319-1.757-.671-2.683-1.054a5.737,5.737,0,0,1-2.268-1.725,4.6,4.6,0,0,1-.926-3,5.372,5.372,0,0,1,.543-2.523,3.733,3.733,0,0,1,1.469-1.6,8.384,8.384,0,0,1,1.916-.8,9.508,9.508,0,0,1,2.108-.256,11.172,11.172,0,0,1,3.258.479c1.022.351,1.565.8,1.565,1.341a1.379,1.379,0,0,1-.287.83.824.824,0,0,1-.7.447,9.966,9.966,0,0,1-1.246-.479,5.809,5.809,0,0,0-2.555-.511,4.938,4.938,0,0,0-2.683.671,2.4,2.4,0,0,0-1.022,2.172,2.563,2.563,0,0,0,.894,2.076,6.848,6.848,0,0,0,2.268,1.246c.894.319,1.789.671,2.683,1.086a5.971,5.971,0,0,1,2.236,1.948,6.123,6.123,0,0,1,.926,3.417,5.333,5.333,0,0,1-1.661,4.28,6.205,6.205,0,0,1-4.376,1.437,8.055,8.055,0,0,1-4.12-1.022c-1.15-.767-1.725-1.437-1.725-2.108Z" transform="translate(-286.086 -84.344)" fill="#ff6c37" />
        <path id="Path_769" data-name="Path 769" d="M459.1,107.222a1.088,1.088,0,0,1,.224-.7.657.657,0,0,1,.607-.319h11.178a.657.657,0,0,1,.607.319,1.088,1.088,0,0,1,.224.7,1.34,1.34,0,0,1-.224.767.657.657,0,0,1-.607.319h-4.376v17.183a.685.685,0,0,1-.351.607,1.646,1.646,0,0,1-1.629,0,.685.685,0,0,1-.351-.607V108.308h-4.439a.657.657,0,0,1-.607-.319A1.3,1.3,0,0,1,459.1,107.222Z" transform="translate(-326.038 -84.412)" fill="#ff6c37" />
        <path id="Path_770" data-name="Path 770" d="M523.869,125.508V107.4a1.006,1.006,0,0,1,.83-1.15.653.653,0,0,1,.351,0c.735,0,1.341.479,1.852,1.469l4.312,8.272,4.344-8.272c.543-.958,1.15-1.469,1.852-1.469a1.006,1.006,0,0,1,1.15.83.443.443,0,0,1,0,.287v18.109a.685.685,0,0,1-.351.607,1.646,1.646,0,0,1-1.629,0,.685.685,0,0,1-.351-.607v-14.4l-4.152,7.793a.959.959,0,0,1-.894.671,1,1,0,0,1-.862-.671l-4.152-7.953v14.564a.685.685,0,0,1-.351.607,1.4,1.4,0,0,1-1.565.032A.584.584,0,0,1,523.869,125.508Z" transform="translate(-370.111 -84.429)" fill="#ff6c37" />
        <path id="Path_771" data-name="Path 771" d="M594.6,125.431a.591.591,0,0,1,.064-.224l5.621-18.109c.16-.543.639-.8,1.405-.8s1.246.256,1.405.8l5.653,18.2v.16a.776.776,0,0,1-.447.671,1.585,1.585,0,0,1-1.022.256.8.8,0,0,1-.83-.511l-1.214-4.024h-7.218l-1.214,4.024a.8.8,0,0,1-.83.543,1.664,1.664,0,0,1-.926-.287A.734.734,0,0,1,594.6,125.431Zm3.992-5.493h6.164l-3.066-10.284Z" transform="translate(-418.261 -84.48)" fill="#ff6c37" />
        <path id="Path_772" data-name="Path 772" d="M663.8,125.491V107c0-.543.383-.8,1.15-.8a1.629,1.629,0,0,1,.99.351,3.33,3.33,0,0,1,.767,1.118l6.867,13.414V107a.6.6,0,0,1,.351-.575,1.646,1.646,0,0,1,1.629,0,.673.673,0,0,1,.351.575v18.492a.685.685,0,0,1-.351.607,1.441,1.441,0,0,1-.8.224,1.626,1.626,0,0,1-1.437-1.054L666.1,111.438v14.053a.727.727,0,0,1-.319.607,1.646,1.646,0,0,1-1.629,0A.685.685,0,0,1,663.8,125.491Z" transform="translate(-465.36 -84.412)" fill="#ff6c37" />
        <path id="Path_773" data-name="Path 773" d="M106.109,73.982a31.944,31.944,0,1,0-35.771,27.627,31.936,31.936,0,0,0,35.771-27.627Z" transform="translate(-42.482 -37.982)" fill="#ff6c37" />
    </g>
    <path id="Path_774" data-name="Path 774" d="M141.779,98.967,128.3,112.445l-3.8-3.8C137.755,95.39,139.064,96.54,141.779,98.967Z" transform="translate(-98.305 -78.457)" fill="#fff" />
    <path id="Path_775" data-name="Path 775" d="M127.552,112.1a.29.29,0,0,1-.224-.1l-3.833-3.8a.309.309,0,0,1,0-.447c13.478-13.478,14.883-12.2,17.726-9.645a.309.309,0,0,1,0,.447l-13.478,13.446a.228.228,0,0,1-.192.1Zm-3.354-4.12,3.354,3.354,13-13C138.188,96.23,136.591,95.592,124.2,107.984Z" transform="translate(-97.556 -77.796)" fill="#ff6c37" />
    <path id="Path_776" data-name="Path 776" d="M140.673,119.951,137,116.278,150.478,102.8C154.087,106.441,148.69,112.35,140.673,119.951Z" transform="translate(-106.812 -82.098)" fill="#fff" />
    <path id="Path_777" data-name="Path 777" d="M140.06,119.59a.29.29,0,0,1-.224-.1l-3.673-3.673a.269.269,0,0,1-.064-.224.29.29,0,0,1,.1-.224L149.674,101.9a.309.309,0,0,1,.447,0,3.888,3.888,0,0,1,1.246,2.97c-.064,3.545-4.088,8.049-11.051,14.628a.51.51,0,0,1-.256.1Zm-3.226-3.992c2.044,2.076,2.906,2.906,3.226,3.226,5.366-5.11,10.572-10.348,10.6-13.957a3.4,3.4,0,0,0-.83-2.3Z" transform="translate(-106.2 -81.417)" fill="#ff6c37" />
    <path id="Path_778" data-name="Path 778" d="M117.059,132.726l2.715,2.715a.12.12,0,0,1,0,.192c-.032.032-.032.032-.064.032l-5.621,1.214a.559.559,0,0,1-.607-.447.472.472,0,0,1,.128-.415l3.258-3.258C116.932,132.694,117.027,132.662,117.059,132.726Z" transform="translate(-90.8 -102.442)" fill="#fff" />
    <path id="Path_779" data-name="Path 779" d="M113.33,136.472a.832.832,0,0,1-.83-.862.873.873,0,0,1,.256-.607l3.258-3.258a.486.486,0,0,1,.639,0l2.715,2.715a.426.426,0,0,1,0,.639.515.515,0,0,1-.224.128l-5.621,1.214c-.064,0-.128.032-.192.032Zm2.97-4.12-3.13,3.13a.193.193,0,0,0-.032.256.165.165,0,0,0,.224.1l5.27-1.15Z" transform="translate(-90.137 -101.717)" fill="#ff6c37" />
    <path id="Path_780" data-name="Path 780" d="M182.24,75.726a5.173,5.173,0,1,0-.894,8.176L177.7,80.262Z" transform="translate(-131.644 -62.69)" fill="#fff" />
    <path id="Path_781" data-name="Path 781" d="M177.993,84.287a5.493,5.493,0,1,1,3.8-9.454.309.309,0,0,1,0,.447l-4.312,4.312,3.386,3.385a.309.309,0,0,1,0,.447l-.064.064A5.417,5.417,0,0,1,177.993,84.287Zm0-10.316a4.839,4.839,0,0,0,.032,9.677,4.592,4.592,0,0,0,2.14-.511l-3.354-3.322a.309.309,0,0,1,0-.447l4.28-4.28A4.733,4.733,0,0,0,177.993,73.971Z" transform="translate(-130.974 -62.02)" fill="#ff6c37" />
    <path id="Path_782" data-name="Path 782" d="M191.331,78.964l-.064-.064L186.7,83.4l3.609,3.609a5.849,5.849,0,0,0,.99-.767A5.118,5.118,0,0,0,191.331,78.964Z" transform="translate(-140.639 -65.831)" fill="#fff" />
    <path id="Path_783" data-name="Path 783" d="M189.66,86.615a.29.29,0,0,1-.224-.1L185.8,82.878a.309.309,0,0,1,0-.447l4.535-4.535a.309.309,0,0,1,.447,0l.1.064a5.523,5.523,0,0,1,.032,7.761,5.249,5.249,0,0,1-1.054.83A1.256,1.256,0,0,1,189.66,86.615Zm-3.194-3.96,3.226,3.226a4.226,4.226,0,0,0,.7-.575,4.864,4.864,0,0,0,.16-6.707Z" transform="translate(-139.958 -65.083)" fill="#ff6c37" />
    <path id="Path_784" data-name="Path 784" d="M148.719,102.775a1.966,1.966,0,0,0-2.779,0L133.9,114.816l2.012,2.012,12.743-11.178a1.969,1.969,0,0,0,.192-2.779A.441.441,0,0,1,148.719,102.775Z" transform="translate(-104.702 -81.69)" fill="#fff" />
    <path id="Path_785" data-name="Path 785" d="M135.132,116.467a.29.29,0,0,1-.224-.1l-2.012-2.012a.309.309,0,0,1,0-.447l12.041-12.041a2.281,2.281,0,0,1,3.226,3.226l-.1.1-12.743,11.178A.193.193,0,0,1,135.132,116.467Zm-1.533-2.332,1.565,1.565,12.52-10.987a1.654,1.654,0,0,0-2.14-2.523.441.441,0,0,1-.128.1Z" transform="translate(-103.954 -81.009)" fill="#ff6c37" />
    <path id="Path_786" data-name="Path 786" d="M95.948,159.621a.28.28,0,0,0-.16.319l.543,2.3a.61.61,0,0,1-.415.8.641.641,0,0,1-.7-.192L91.7,159.366,103.166,147.9l3.96.064,2.683,2.683c-.639.543-4.5,4.28-13.861,8.975Z" transform="translate(-75.98 -112.794)" fill="#fff" />
    <path id="Path_787" data-name="Path 787" d="M95.148,162.678a.87.87,0,0,1-.671-.287L91,158.909a.309.309,0,0,1,0-.447L102.462,147a.345.345,0,0,1,.224-.1l3.96.064a.29.29,0,0,1,.224.1l2.683,2.683a.363.363,0,0,1,.1.256.241.241,0,0,1-.128.224l-.224.192a64.413,64.413,0,0,1-13.7,8.783l.543,2.268a1.007,1.007,0,0,1-.479,1.086A1.1,1.1,0,0,1,95.148,162.678Zm-3.513-3.992,3.29,3.258a.329.329,0,1,0,.575-.319l-.543-2.3a.582.582,0,0,1,.319-.671,66.657,66.657,0,0,0,13.574-8.687l-2.363-2.363-3.673-.064Z" transform="translate(-75.436 -112.113)" fill="#ff6c37" />
    <path id="Path_788" data-name="Path 788" d="M82.92,186.547l2.747-2.747,4.088,4.088-6.515-.447a.509.509,0,0,1-.447-.575A.37.37,0,0,1,82.92,186.547Z" transform="translate(-69.916 -137.228)" fill="#fff" />
    <path id="Path_789" data-name="Path 789" d="M89.009,187.427l-6.547-.447a.837.837,0,0,1-.767-.926.789.789,0,0,1,.256-.511L84.7,182.8a.309.309,0,0,1,.447,0l4.088,4.088a.292.292,0,0,1,.064.351A.307.307,0,0,1,89.009,187.427ZM84.921,183.5,82.4,186.022a.18.18,0,0,0,0,.287.166.166,0,0,0,.128.064l5.653.383Z" transform="translate(-69.17 -136.479)" fill="#ff6c37" />
    <path id="Path_790" data-name="Path 790" d="M123.419,144.537a.32.32,0,0,1-.319-.319.29.29,0,0,1,.1-.224l3.1-3.1a.309.309,0,0,1,.447,0l2.012,2.012a.306.306,0,0,1,.1.319.365.365,0,0,1-.256.224l-5.11,1.086h-.064Zm3.1-2.97-2.108,2.108,3.449-.735Z" transform="translate(-97.352 -107.961)" fill="#ff6c37" />
    <path id="Path_791" data-name="Path 791" d="M131.264,143.88l-3.513.766a.475.475,0,0,1-.447-.8l1.948-1.948Z" transform="translate(-100.118 -108.71)" fill="#fff" />
    <path id="Path_792" data-name="Path 792" d="M127.1,144.217a.791.791,0,0,1-.8-.8.918.918,0,0,1,.224-.575l1.948-1.948a.309.309,0,0,1,.447,0l2.012,2.012a.306.306,0,0,1,.1.319.365.365,0,0,1-.256.224l-3.513.767Zm1.6-2.651-1.725,1.725a.15.15,0,0,0-.032.192.193.193,0,0,0,.192.1l2.938-.639Z" transform="translate(-99.53 -107.961)" fill="#ff6c37" />
    <path id="Path_793" data-name="Path 793" d="M199.425,88.182a.374.374,0,1,0-.7.256c0,.032.032.064.032.1a1.192,1.192,0,0,1-.128,1.214.388.388,0,0,0,.032.511.36.36,0,0,0,.511-.064A1.871,1.871,0,0,0,199.425,88.182Z" transform="translate(-148.701 -71.983)" fill="#ff6c37" />
</svg>
