<svg id="reactjs" xmlns="http://www.w3.org/2000/svg" viewBox="0 0 42.406 37.764">
    <path id="Path_686" data-name="Path 686" d="M218.106,96.887c0-2.809-3.518-5.471-8.912-7.122,1.245-5.5.691-9.871-1.746-11.271a3.79,3.79,0,0,0-1.936-.484v1.928a2,2,0,0,1,.985.225c1.176.674,1.686,3.241,1.288,6.543-.1.813-.251,1.668-.441,2.541a41.888,41.888,0,0,0-5.489-.942,42.165,42.165,0,0,0-3.6-4.322c2.818-2.619,5.463-4.054,7.261-4.054V78h0c-2.377,0-5.489,1.694-8.635,4.633-3.146-2.922-6.258-4.6-8.635-4.6v1.928c1.789,0,4.443,1.426,7.261,4.028a40.826,40.826,0,0,0-3.57,4.313,40.364,40.364,0,0,0-5.5.951c-.2-.864-.346-1.7-.449-2.507-.406-3.3.1-5.869,1.262-6.552a1.924,1.924,0,0,1,.994-.225V78.043h0a3.854,3.854,0,0,0-1.953.484c-2.429,1.4-2.973,5.765-1.72,11.245-5.376,1.66-8.877,4.313-8.877,7.114s3.518,5.471,8.912,7.122c-1.245,5.5-.692,9.871,1.746,11.271a3.8,3.8,0,0,0,1.945.484c2.377,0,5.489-1.694,8.635-4.633,3.146,2.922,6.258,4.6,8.635,4.6a3.854,3.854,0,0,0,1.953-.484c2.429-1.4,2.973-5.765,1.72-11.245C214.605,102.349,218.106,99.687,218.106,96.887Zm-11.254-5.765c-.32,1.115-.717,2.265-1.167,3.414-.354-.692-.726-1.383-1.132-2.075s-.821-1.366-1.245-2.023C204.535,90.62,205.72,90.845,206.852,91.121Zm-3.959,9.206c-.674,1.167-1.366,2.273-2.083,3.3-1.288.112-2.593.173-3.907.173s-2.61-.061-3.89-.164q-1.076-1.543-2.092-3.285-.985-1.7-1.8-3.44c.536-1.158,1.141-2.317,1.789-3.449.674-1.167,1.366-2.273,2.083-3.3,1.288-.112,2.593-.173,3.907-.173s2.61.061,3.89.164q1.076,1.543,2.092,3.285.985,1.7,1.8,3.44C204.138,98.036,203.541,99.194,202.893,100.327Zm2.792-1.124c.467,1.158.864,2.317,1.193,3.44-1.132.277-2.325.51-3.561.691.424-.666.847-1.348,1.245-2.049S205.331,99.895,205.685,99.2Zm-8.765,9.223a35.638,35.638,0,0,1-2.4-2.766c.778.035,1.573.061,2.377.061s1.616-.017,2.4-.061A33.74,33.74,0,0,1,196.92,108.426Zm-6.431-5.091c-1.227-.182-2.412-.406-3.544-.683.32-1.115.717-2.265,1.167-3.414.354.692.726,1.383,1.132,2.074S190.066,102.678,190.489,103.335Zm6.388-17.988a35.635,35.635,0,0,1,2.4,2.766c-.778-.035-1.573-.061-2.377-.061s-1.616.017-2.4.061A33.734,33.734,0,0,1,196.877,85.347Zm-6.4,5.091c-.424.666-.847,1.348-1.245,2.049s-.769,1.383-1.124,2.074c-.467-1.158-.864-2.317-1.193-3.44C188.052,90.853,189.245,90.62,190.481,90.438Zm-7.823,10.822c-3.06-1.305-5.039-3.017-5.039-4.374s1.979-3.077,5.039-4.374c.743-.32,1.556-.605,2.394-.873A41.513,41.513,0,0,0,187,96.9a40.929,40.929,0,0,0-1.919,5.238C184.223,101.874,183.41,101.58,182.658,101.26Zm4.65,12.352c-1.176-.674-1.686-3.241-1.288-6.543.1-.813.251-1.668.441-2.541a41.888,41.888,0,0,0,5.489.942,42.167,42.167,0,0,0,3.6,4.322c-2.818,2.619-5.463,4.054-7.261,4.054A2.063,2.063,0,0,1,187.309,113.612Zm20.5-6.587c.406,3.3-.1,5.869-1.262,6.552a1.924,1.924,0,0,1-.994.225c-1.789,0-4.443-1.426-7.261-4.028a40.827,40.827,0,0,0,3.57-4.313,40.364,40.364,0,0,0,5.5-.951A24.2,24.2,0,0,1,207.811,107.026Zm3.328-5.765c-.743.32-1.556.605-2.394.873a41.517,41.517,0,0,0-1.945-5.264,40.93,40.93,0,0,0,1.919-5.238c.856.268,1.668.562,2.429.882,3.06,1.305,5.039,3.017,5.039,4.374S214.2,99.964,211.139,101.26Z" transform="translate(-175.7 -78)" fill="#61dafb" />
    <path id="Path_687" data-name="Path 687" d="M320.8,78.4Z" transform="translate(-308.258 -78.365)" fill="#61dafb" />
    <circle id="Ellipse_9" data-name="Ellipse 9" cx="3.95" cy="3.95" r="3.95" transform="translate(17.244 14.936)" fill="#61dafb" />
    <path id="Path_688" data-name="Path 688" d="M520.5,78.1Z" transform="translate(-490.696 -78.091)" fill="#61dafb" />
</svg>