<svg id="_15701400ffa24e5" data-name="15701400ffa24e5" xmlns="http://www.w3.org/2000/svg" viewBox="0 0 199.903 63.729">
    <path id="Path_825" data-name="Path 825" d="M399.235,268.484a3.013,3.013,0,0,1-2.994,2.994,5.4,5.4,0,0,0-3.389,1.073,8.517,8.517,0,0,0-2.6,2.711,17.344,17.344,0,0,0-2.316,4.744v10.732a3.075,3.075,0,0,1-3.106,2.994,3.014,3.014,0,0,1-2.994-2.994V268.484a2.965,2.965,0,0,1,2.994-2.937,3.029,3.029,0,0,1,3.106,2.937v.4a7.423,7.423,0,0,1,1.186-1.13,12.389,12.389,0,0,1,7.117-2.2,2.931,2.931,0,0,1,2.994,2.937Z" transform="translate(-289.825 -248.747)" fill="#f8f8f8" />
    <path id="Path_826" data-name="Path 826" d="M417.85,279.544a13.984,13.984,0,0,1,13.782-14.121,13.51,13.51,0,0,1,13.613,13.1v.282a1.566,1.566,0,0,1-.056.508,2.723,2.723,0,0,1-2.938,2.26H424.289a7.4,7.4,0,0,0,1.921,3.728,8.738,8.738,0,0,0,5.422,2.541,9.234,9.234,0,0,0,5.874-1.412c1.186-1.243,3.5-1.073,4.236-.17a2.581,2.581,0,0,1,0,3.672,14.278,14.278,0,0,1-10.111,3.728,14.019,14.019,0,0,1-13.781-14.12Zm6.157-2.768h15.985c-.565-2.259-3.446-5.592-8.36-5.987A7.892,7.892,0,0,0,424.007,276.776Z" transform="translate(-310.097 -248.678)" fill="#f8f8f8" />
    <path id="Path_827" data-name="Path 827" d="M511.006,276.066a3.074,3.074,0,0,1-3.05,3.05,3.042,3.042,0,0,1-2.994-2.429,13.782,13.782,0,0,1-7.682,2.429,14.127,14.127,0,0,1,0-28.242,13.367,13.367,0,0,1,7.568,2.372V242.628a3.079,3.079,0,0,1,6.157,0v33.438Zm-13.725-19.035a7.31,7.31,0,0,0-5.309,2.316,8.188,8.188,0,0,0,0,11.3,7.309,7.309,0,0,0,5.309,2.316,7.217,7.217,0,0,0,5.309-2.316,8.189,8.189,0,0,0,0-11.3A7.218,7.218,0,0,0,497.281,257.032Z" transform="translate(-347.083 -234.13)" fill="#f8f8f8" />
    <path id="Path_828" data-name="Path 828" d="M563.093,243.814a3.05,3.05,0,0,1-3.05,3.106,3.086,3.086,0,0,1-3.05-3.106v-1.186a3.038,3.038,0,0,1,3.05-3.05,3,3,0,0,1,3.05,3.05v1.186Zm0,10.223v22.028a3,3,0,0,1-3.05,3.05,3.038,3.038,0,0,1-3.05-3.05V254.037a3.016,3.016,0,0,1,3.05-3.107A2.983,2.983,0,0,1,563.093,254.037Z" transform="translate(-388.423 -234.129)" fill="#f8f8f8" />
    <path id="Path_829" data-name="Path 829" d="M578.977,285.581a2.938,2.938,0,0,1,4.236-.452,10.368,10.368,0,0,0,6.213,2.485,7.535,7.535,0,0,0,3.841-1.073,2.311,2.311,0,0,0,1.016-1.695.846.846,0,0,0-.169-.565c-.057-.169-.282-.4-.735-.677a13.082,13.082,0,0,0-4.518-1.582H588.8a21.631,21.631,0,0,1-4.914-1.469,9.436,9.436,0,0,1-3.9-3.275,6.848,6.848,0,0,1-.96-3.558,7.933,7.933,0,0,1,3.332-6.214,12.152,12.152,0,0,1,6.948-2.09,14.527,14.527,0,0,1,8.472,3.106,3.12,3.12,0,0,1,.9,4.179,2.989,2.989,0,0,1-4.179.791c-1.807-1.186-3.389-2.09-5.2-2.09a5.753,5.753,0,0,0-3.389,1.017,1.722,1.722,0,0,0-.9,1.3.608.608,0,0,0,.113.452,1.525,1.525,0,0,0,.621.565,11.527,11.527,0,0,0,4.123,1.356l.056.057h.057a20.3,20.3,0,0,1,5.253,1.638,8.779,8.779,0,0,1,4.011,3.332,7.313,7.313,0,0,1,1.073,3.728,8.147,8.147,0,0,1-3.559,6.552,12.853,12.853,0,0,1-7.343,2.26,16.406,16.406,0,0,1-10.054-3.9,3.014,3.014,0,0,1-.4-4.18Z" transform="translate(-400.425 -248.675)" fill="#f8f8f8" />
    <path id="Path_830" data-name="Path 830" d="M242.763,316.214c-3.968,2.068-24.523,10.52-28.9,12.8s-6.807,2.26-10.264.607-25.331-10.488-29.271-12.372c-1.969-.941-3-1.736-3-2.486v-7.516s28.477-6.2,33.075-7.849,6.192-1.709,10.1-.276,27.306,5.654,31.173,7.07c0,0,0,6.712,0,7.409,0,.743-.892,1.558-2.911,2.611Z" transform="translate(-171.323 -267.074)" fill="#a41e11" />
    <path id="Path_831" data-name="Path 831" d="M242.762,300.888c-3.968,2.067-24.523,10.52-28.9,12.8s-6.807,2.26-10.264.607-25.331-10.489-29.271-12.372-4.023-3.18-.152-4.7,25.624-10.051,30.222-11.7,6.192-1.709,10.1-.275,24.345,9.566,28.211,10.982,4.016,2.584.048,4.653Z" transform="translate(-171.322 -259.266)" fill="#d82c20" />
    <path id="Path_832" data-name="Path 832" d="M242.763,288.174c-3.968,2.068-24.523,10.52-28.9,12.8s-6.807,2.259-10.264.606-25.331-10.488-29.271-12.372c-1.969-.941-3-1.735-3-2.485v-7.517s28.477-6.2,33.075-7.849,6.192-1.709,10.1-.276,27.306,5.653,31.173,7.07c0,0,0,6.712,0,7.41C245.675,286.307,244.783,287.122,242.763,288.174Z" transform="translate(-171.323 -251.29)" fill="#a41e11" />
    <path id="Path_833" data-name="Path 833" d="M242.762,272.848c-3.968,2.068-24.523,10.52-28.9,12.8s-6.807,2.259-10.264.606-25.331-10.489-29.271-12.372-4.023-3.179-.152-4.7,25.624-10.051,30.222-11.7,6.192-1.709,10.1-.276,24.345,9.566,28.211,10.982,4.016,2.584.048,4.653Z" transform="translate(-171.322 -243.482)" fill="#d82c20" />
    <path id="Path_834" data-name="Path 834" d="M242.763,259.1c-3.968,2.068-24.523,10.52-28.9,12.8s-6.807,2.259-10.264.606-25.331-10.489-29.271-12.372c-1.969-.941-3-1.735-3-2.485V250.13s28.477-6.2,33.075-7.848,6.192-1.709,10.1-.276,27.306,5.653,31.173,7.07c0,0,0,6.712,0,7.409C245.675,257.228,244.783,258.043,242.763,259.1Z" transform="translate(-171.323 -234.922)" fill="#a41e11" />
    <path id="Path_835" data-name="Path 835" d="M242.762,243.769c-3.968,2.068-24.523,10.52-28.9,12.8s-6.807,2.259-10.264.607-25.331-10.489-29.271-12.372-4.023-3.18-.152-4.7,25.624-10.05,30.222-11.7,6.192-1.709,10.1-.275,24.345,9.566,28.211,10.982,4.016,2.584.048,4.652Z" transform="translate(-171.322 -227.113)" fill="#d82c20" />
    <path id="Path_836" data-name="Path 836" d="M255.934,241.607l-6.443.669-1.442,3.47-2.33-3.873-7.439-.669,5.551-2-1.665-3.073,5.2,2.032,4.9-1.6-1.324,3.178Z" transform="translate(-209.014 -232.189)" fill="#fff" />
    <path id="Path_837" data-name="Path 837" d="M244.264,277.351l-12.024-4.987,17.23-2.644Z" transform="translate(-205.614 -251.097)" fill="#fff" />
    <ellipse id="Ellipse_17" data-name="Ellipse 17" cx="9.209" cy="3.57" rx="9.209" ry="3.57" transform="translate(12.771 11.347)" fill="#fff" />
    <path id="Path_838" data-name="Path 838" d="M296.09,250.83l10.2,4.03L296.1,258.885Z" transform="translate(-241.556 -240.464)" fill="#7a0c00" />
    <path id="Path_839" data-name="Path 839" d="M270.28,255.293l11.281-4.463.009,8.055-1.106.433Z" transform="translate(-227.027 -240.464)" fill="#ad2115" />
</svg>
