<svg width="140" viewBox="0 0 140 200" fill="none" xmlns="http://www.w3.org/2000/svg">
<path d="M91.0163 128.295C93.0428 127.621 93.1191 126.225 93.6071 125.219C99.9006 112.102 97.8934 99.0744 93.1213 86.1443C89.6707 76.8004 84.9943 68.1057 76.6232 62.3113C75.1464 61.4873 73.9648 60.2188 73.2441 58.6839C72.5235 57.149 72.2999 55.4247 72.6048 53.753C74.1463 33.0378 61.489 18.5735 46.0595 11.5663C44.3937 10.8206 42.6159 10.3443 40.3646 9.56147C44.2208 8.79914 47.5763 8.20191 50.8926 7.45453C51.654 7.27948 52.2944 6.59317 52.991 6.1414C52.1585 5.61905 51.3644 5.02722 50.4883 4.59299C50.1043 4.47078 49.6905 4.4791 49.311 4.61668C43.9212 6.0654 38.5279 7.45331 33.1773 9.05218C32.1858 9.34514 31.4357 10.441 30.7177 11.0466C34.6412 14.0332 38.1972 16.7616 41.7581 19.4715C42.3993 20.0461 43.1378 20.5007 43.9389 20.8139C44.5129 20.9678 45.2402 20.6239 45.9076 20.5035C45.7695 19.9079 45.8394 19.1285 45.4833 18.7538C43.8581 17.0415 42.1004 15.4533 40.5871 13.9904C55.0406 15.0102 70.5067 39.5842 66.9358 56.2441C63.4482 55.2752 59.9018 54.5316 56.3185 54.0177C43.4475 52.9431 32.4179 56.5516 24.9295 67.8325C23.5197 69.7841 22.5466 72.0183 22.0772 74.3812C21.6079 76.7442 21.6533 79.1799 22.2105 81.5208C22.7677 83.8618 23.8234 86.0524 25.3049 87.942C26.7865 89.8316 28.6588 91.3753 30.793 92.467C36.5769 95.4732 42.5506 94.6598 48.2667 92.1414C53.3303 89.9323 57.8722 86.6696 61.5917 82.5692C65.3113 78.4687 68.1238 73.624 69.8433 68.3554C70.1368 67.5562 70.4859 66.7719 70.9034 65.8064C81.2659 72.6131 86.601 82.7014 90.1718 93.8931C93.7204 105.019 95.0981 116.321 91.0584 128.287L91.0163 128.295ZM65.8403 63.0731C64.1009 70.8864 59.8258 77.9035 53.6879 83.0199C48.8206 86.9629 43.5077 89.8287 37.0241 89.508C35.1715 89.3731 33.3812 88.7848 31.8093 87.7944C30.2373 86.8039 28.9316 85.4415 28.006 83.8259C27.0804 82.2103 26.563 80.3907 26.4991 78.5258C26.4351 76.661 26.8265 74.8076 27.6391 73.1273C29.1458 70.0701 31.3928 67.4408 34.1734 65.4812C44.1563 58.5198 54.7019 58.7918 65.8353 63.0917L65.8403 63.0731Z" fill="#060b43e0"/>
<path d="M50.2431 178.025C49.3251 178.025 48.6231 177.701 48.1371 177.053C47.7051 176.405 47.4891 175.649 47.4891 174.785C47.4891 173.759 47.9481 172.274 48.8661 170.33C49.8381 168.332 51.0531 166.118 52.5111 163.688C53.9691 161.204 55.5081 158.747 57.1281 156.317C58.7481 153.833 60.2061 151.565 61.5021 149.513C62.8521 147.461 63.8511 145.895 64.4991 144.815C64.8771 144.221 65.2281 143.519 65.5521 142.709C65.9301 141.899 66.1191 141.143 66.1191 140.441C66.1191 139.793 65.8761 139.226 65.3901 138.74C64.9041 138.2 64.3641 137.93 63.7701 137.93C62.7441 137.93 61.6641 138.227 60.5301 138.821C59.3961 139.415 58.4241 140.009 57.6141 140.603C54.2121 143.087 50.9181 145.841 47.7321 148.865C44.6001 151.835 41.7651 155.021 39.2271 158.423C38.1471 159.827 37.1211 161.312 36.1491 162.878C35.2311 164.444 34.3671 166.037 33.5571 167.657C33.3951 167.981 33.1521 168.494 32.8281 169.196C32.5041 169.898 32.2341 170.6 32.0181 171.302C31.8021 172.004 31.7481 172.544 31.8561 172.922C31.5861 173.03 31.3161 173.219 31.0461 173.489C30.7761 173.705 30.5061 173.813 30.2361 173.813C29.2101 173.813 28.4811 173.489 28.0491 172.841C27.6171 172.193 27.4011 171.437 27.4011 170.573C27.4011 169.493 27.8061 168.089 28.6161 166.361C29.4261 164.579 30.4791 162.662 31.7751 160.61C33.1251 158.558 34.5021 156.452 35.9061 154.292C37.3641 152.132 38.7411 150.107 40.0371 148.217C41.3871 146.273 42.4671 144.572 43.2771 143.114C44.0871 141.656 44.4921 140.603 44.4921 139.955C44.4921 139.469 44.2761 139.064 43.8441 138.74C43.4661 138.362 43.0611 138.173 42.6291 138.173C41.6571 138.173 40.4961 138.443 39.1461 138.983C37.8501 139.523 36.7971 140.063 35.9871 140.603C34.7451 141.413 33.3141 142.466 31.6941 143.762C30.1281 145.058 28.5621 146.408 26.9961 147.812C25.4301 149.162 24.1071 150.377 23.0271 151.457C20.0571 154.535 17.1141 157.721 14.1981 161.015C11.3361 164.255 8.69013 167.63 6.26013 171.14C5.82813 171.734 5.39613 172.355 4.96413 173.003C4.58612 173.651 4.18112 174.299 3.74913 174.947C3.53312 175.325 3.34412 175.676 3.18212 176C3.02012 176.378 2.83112 176.729 2.61512 177.053C2.45312 177.431 2.07512 177.62 1.48112 177.62C1.26512 177.62 0.995125 177.539 0.671125 177.377C0.347125 177.269 0.185125 177.053 0.185125 176.729C0.185125 176.567 0.212125 176.459 0.266125 176.405C1.50812 173.381 2.83112 170.411 4.23512 167.495C5.63912 164.525 7.09712 161.609 8.60913 158.747C10.1211 155.939 11.6331 153.158 13.1451 150.404C14.6571 147.65 16.2501 144.923 17.9241 142.223C18.3561 141.467 18.8961 140.549 19.5441 139.469C20.2461 138.335 20.8941 137.471 21.4881 136.877C21.9201 136.445 22.5411 136.229 23.3511 136.229C23.6751 136.229 24.1611 136.31 24.8091 136.472C25.4571 136.58 26.0511 136.796 26.5911 137.12C27.1311 137.39 27.4011 137.768 27.4011 138.254C27.4011 138.416 27.2931 138.605 27.0771 138.821C25.2411 140.711 23.4591 142.871 21.7311 145.301C20.0571 147.677 18.4641 150.107 16.9521 152.591C15.4401 155.075 13.9821 157.451 12.5781 159.719C13.8201 158.369 15.3861 156.695 17.2761 154.697C19.2201 152.645 21.3531 150.539 23.6751 148.379C25.9971 146.165 28.3731 144.113 30.8031 142.223C33.2331 140.279 35.5821 138.713 37.8501 137.525C40.1721 136.337 42.2781 135.743 44.1681 135.743C47.0301 135.743 48.4611 137.201 48.4611 140.117C48.4611 141.575 48.1101 143.087 47.4081 144.653C46.7061 146.219 45.9501 147.623 45.1401 148.865C46.3281 147.731 47.7321 146.435 49.3521 144.977C51.0261 143.519 52.8081 142.088 54.6981 140.684C56.6421 139.28 58.5591 138.119 60.4491 137.201C62.3391 136.283 64.1211 135.824 65.7951 135.824C67.1991 135.824 68.3061 136.175 69.1161 136.877C69.9801 137.579 70.4121 138.659 70.4121 140.117C70.4121 141.413 70.1151 142.736 69.5211 144.086C68.9271 145.436 68.3061 146.651 67.6581 147.731C67.2261 148.379 66.5511 149.486 65.6331 151.052C64.7151 152.564 63.6621 154.319 62.4741 156.317C61.2861 158.315 60.0711 160.394 58.8291 162.554C57.5871 164.66 56.4261 166.712 55.3461 168.71C54.3201 170.654 53.4831 172.355 52.8351 173.813C52.1871 175.217 51.8631 176.189 51.8631 176.729V177.053C51.5931 177.215 51.3231 177.404 51.0531 177.62C50.8371 177.89 50.5671 178.025 50.2431 178.025ZM68.5776 176.081C67.0656 176.081 65.6076 175.703 64.2036 174.947C62.7996 174.191 62.0976 172.949 62.0976 171.221C62.0976 171.005 62.0976 170.816 62.0976 170.654C62.1516 170.438 62.2056 170.222 62.2596 170.006C62.6916 168.17 63.4746 166.361 64.6086 164.579C65.7966 162.797 67.2006 161.123 68.8206 159.557C70.4946 157.991 72.2226 156.614 74.0046 155.426C75.8406 154.184 77.5956 153.239 79.2696 152.591C79.4316 152.483 79.5936 152.402 79.7556 152.348C79.9176 152.294 80.1066 152.267 80.3226 152.267C80.8086 152.267 81.2136 152.537 81.5376 153.077C81.8616 153.563 82.1046 154.13 82.2666 154.778C82.4286 155.426 82.5096 155.939 82.5096 156.317C82.5096 157.289 82.2126 158.288 81.6186 159.314C81.0786 160.286 80.4576 161.096 79.7556 161.744C80.0796 161.744 80.4036 161.771 80.7276 161.825C81.0516 161.825 81.3756 161.825 81.6996 161.825C81.8076 161.825 81.8616 161.879 81.8616 161.987C81.8616 162.041 81.8076 162.095 81.6996 162.149C81.5916 162.203 81.4836 162.257 81.3756 162.311L78.9456 162.554C77.4336 162.716 75.8676 162.959 74.2476 163.283C72.6276 163.607 71.0886 164.039 69.6306 164.579C68.9286 165.551 68.2266 166.766 67.5246 168.224C66.8226 169.682 66.4716 171.032 66.4716 172.274C66.4716 172.976 66.6336 173.597 66.9576 174.137C67.2816 174.623 67.8486 174.866 68.6586 174.866C69.1446 174.866 69.6306 174.785 70.1166 174.623C70.6566 174.407 71.1426 174.191 71.5746 173.975C74.1666 172.679 76.4886 171.14 78.5406 169.358C80.5926 167.522 82.5906 165.551 84.5346 163.445C84.6426 163.337 84.7236 163.283 84.7776 163.283C84.8856 163.283 84.9396 163.337 84.9396 163.445C84.9396 163.607 84.8856 163.796 84.7776 164.012C84.6696 164.174 84.5616 164.309 84.4536 164.417C82.9956 166.253 81.3216 168.116 79.4316 170.006C77.5416 171.842 75.6246 173.381 73.6806 174.623C72.1686 175.595 70.4676 176.081 68.5776 176.081ZM71.6556 162.149C72.8976 162.041 74.1396 161.96 75.3816 161.906C76.6236 161.798 77.8656 161.744 79.1076 161.744C79.4316 161.312 79.7016 160.745 79.9176 160.043C80.1876 159.287 80.3226 158.639 80.3226 158.099C80.3226 157.829 80.2686 157.559 80.1606 157.289C80.0526 156.965 79.8096 156.803 79.4316 156.803H79.1886C78.5406 157.019 77.7036 157.451 76.6776 158.099C75.7056 158.747 74.7606 159.449 73.8426 160.205C72.9246 160.961 72.1956 161.609 71.6556 162.149ZM98.0129 176.243C96.9329 176.243 96.1229 175.892 95.5829 175.19C95.0429 174.434 94.7729 173.543 94.7729 172.517C94.7729 171.113 95.0969 169.574 95.7449 167.9C96.3929 166.226 97.1219 164.606 97.9319 163.04C98.7419 161.474 99.4709 160.151 100.119 159.071C100.767 157.937 101.091 157.208 101.091 156.884C101.091 156.776 101.037 156.722 100.929 156.722C100.767 156.722 100.578 156.803 100.362 156.965C100.146 157.073 99.9839 157.181 99.8759 157.289C98.2559 158.369 96.5549 159.881 94.7729 161.825C93.0449 163.769 91.3979 165.821 89.8319 167.981C88.3199 170.087 87.0509 172.004 86.0249 173.732C85.4309 174.758 84.7289 175.406 83.9189 175.676C83.1629 175.892 82.2449 176 81.1649 176C81.5429 175.136 81.9479 174.299 82.3799 173.489C82.8119 172.679 83.2169 171.896 83.5949 171.14C84.2429 169.844 84.8369 168.575 85.3769 167.333C85.9169 166.037 86.4569 164.741 86.9969 163.445C87.4289 162.311 87.8879 160.988 88.3739 159.476C88.8599 157.91 89.1029 156.533 89.1029 155.345C89.1029 155.021 89.0759 154.697 89.0219 154.373C88.9679 154.049 88.8599 153.752 88.6979 153.482C88.5359 153.32 88.4549 153.239 88.4549 153.239C88.4549 152.915 88.6439 152.753 89.0219 152.753C89.3459 152.753 89.9129 152.942 90.7229 153.32C91.5329 153.698 92.2889 154.157 92.9909 154.697C93.7469 155.183 94.1249 155.642 94.1249 156.074C94.1249 156.884 93.8009 158.045 93.1529 159.557C92.5589 161.069 91.8569 162.554 91.0469 164.012C90.2909 165.416 89.6429 166.469 89.1029 167.171C89.0489 167.225 88.9679 167.306 88.8599 167.414C88.8059 167.522 88.7789 167.63 88.7789 167.738L88.8599 167.819C88.9679 167.819 89.3999 167.36 90.1559 166.442C90.9119 165.47 91.8569 164.282 92.9909 162.878C94.1789 161.474 95.4749 160.07 96.8789 158.666C98.2829 157.208 99.6869 156.02 101.091 155.102C102.495 154.13 103.791 153.644 104.979 153.644C105.573 153.644 106.248 153.806 107.004 154.13C107.76 154.4 108.138 154.913 108.138 155.669C108.138 155.885 108.084 156.101 107.976 156.317C107.868 156.479 107.76 156.668 107.652 156.884C105.978 159.152 104.412 161.366 102.954 163.526C101.496 165.632 100.2 168.035 99.0659 170.735C98.9579 171.059 98.8229 171.41 98.6609 171.788C98.5529 172.112 98.4989 172.463 98.4989 172.841C98.4989 173.813 98.9849 174.299 99.9569 174.299C100.767 174.299 101.712 173.894 102.792 173.084C103.872 172.274 104.979 171.275 106.113 170.087C107.301 168.899 108.408 167.711 109.434 166.523C110.46 165.281 111.324 164.255 112.026 163.445C112.728 162.635 113.133 162.23 113.241 162.23C113.403 162.23 113.484 162.338 113.484 162.554C113.484 162.608 113.241 162.932 112.755 163.526C112.323 164.066 111.864 164.606 111.378 165.146C110.892 165.686 110.568 166.037 110.406 166.199C109.488 167.225 108.435 168.44 107.247 169.844C106.113 171.194 104.898 172.436 103.602 173.57C102.306 174.704 100.983 175.514 99.6329 176C99.1469 176.162 98.6069 176.243 98.0129 176.243ZM113.671 176.324C112.645 176.324 111.808 175.946 111.16 175.19C110.512 174.434 110.188 173.543 110.188 172.517C110.188 170.843 110.539 169.115 111.241 167.333C111.997 165.497 112.861 163.742 113.833 162.068C114.859 160.394 115.723 158.909 116.425 157.613C117.181 156.317 117.559 155.399 117.559 154.859C117.559 154.589 117.478 154.427 117.316 154.373C118.288 153.941 119.206 153.725 120.07 153.725C120.61 153.725 121.285 153.86 122.095 154.13C122.905 154.346 123.31 154.805 123.31 155.507C123.31 155.723 123.256 155.939 123.148 156.155C123.04 156.317 122.932 156.479 122.824 156.641C121.204 158.909 119.665 161.177 118.207 163.445C116.749 165.713 115.48 168.143 114.4 170.735C114.292 171.059 114.157 171.41 113.995 171.788C113.887 172.166 113.833 172.544 113.833 172.922C113.833 173.84 114.292 174.299 115.21 174.299C116.02 174.299 116.965 173.732 118.045 172.598C119.125 171.41 120.232 169.952 121.366 168.224C122.5 166.442 123.607 164.606 124.687 162.716C125.821 160.772 126.82 159.044 127.684 157.532C128.602 155.966 129.304 154.832 129.79 154.13C129.844 154.022 130.006 153.968 130.276 153.968C130.492 153.968 130.978 154.049 131.734 154.211C132.544 154.373 133.3 154.562 134.002 154.778C134.704 154.994 135.055 155.21 135.055 155.426C135.055 155.48 135.028 155.507 134.974 155.507C134.596 156.047 134.191 156.587 133.759 157.127C133.327 157.667 132.895 158.207 132.463 158.747C131.113 160.583 129.79 162.5 128.494 164.498C127.252 166.496 126.172 168.575 125.254 170.735C125.146 171.059 125.038 171.41 124.93 171.788C124.822 172.112 124.768 172.463 124.768 172.841C124.768 173.813 125.254 174.299 126.226 174.299C127.036 174.299 127.981 173.894 129.061 173.084C130.141 172.274 131.248 171.275 132.382 170.087C133.516 168.899 134.596 167.711 135.622 166.523C136.648 165.281 137.512 164.255 138.214 163.445C138.916 162.635 139.321 162.23 139.429 162.23C139.645 162.23 139.753 162.338 139.753 162.554C139.753 162.608 139.51 162.932 139.024 163.526C138.592 164.066 138.106 164.606 137.566 165.146C137.08 165.686 136.783 166.037 136.675 166.199C135.703 167.333 134.515 168.683 133.111 170.249C131.707 171.815 130.195 173.219 128.575 174.461C127.009 175.649 125.416 176.243 123.796 176.243C121.582 176.243 120.475 175.109 120.475 172.841C120.475 171.923 120.637 171.059 120.961 170.249C120.475 171.005 119.854 171.869 119.098 172.841C118.342 173.759 117.505 174.569 116.587 175.271C115.669 175.973 114.697 176.324 113.671 176.324Z" fill="#060b43e0"/>
</svg>
