<svg id="Group_2131" data-name="Group 2131" xmlns="http://www.w3.org/2000/svg"  viewBox="0 0 154.462 65.973">
    <g id="Group_2121" data-name="Group 2121" transform="translate(0 37.02)">
        <path id="Path_678" data-name="Path 678" d="M179.3,110.161l4.9-3.844a7,7,0,0,0,6.1,3.765c2.731,0,4.189-1.776,4.189-3.712,0-2.307-2.81-3.049-5.806-3.977-3.765-1.167-7.98-2.625-7.98-8.007,0-4.507,3.924-8.086,9.359-8.086a12.058,12.058,0,0,1,9.492,4.083l-4.428,3.341a5.713,5.713,0,0,0-5.011-2.651c-2.492,0-3.844,1.352-3.844,3.128,0,2.148,2.7,2.89,5.7,3.9,3.818,1.246,8.139,2.916,8.139,8.325,0,4.481-3.553,8.776-9.757,8.776A13.865,13.865,0,0,1,179.3,110.161Zm43.109-14.608h5.249V97.7a6.639,6.639,0,0,1,5.329-2.545c4.534,0,7.291,2.916,7.291,7.9V114.8H234.9V103.745c0-2.572-1.193-4.083-3.553-4.083-2.015,0-3.659,1.379-3.659,4.613V114.8h-5.276ZM241.5,105.2c0-6.814,5.011-10.022,9.359-10.022a7.761,7.761,0,0,1,5.753,2.28V86.7h5.276v28.13h-5.276V112.68a7.478,7.478,0,0,1-5.806,2.545C246.695,115.225,241.5,111.964,241.5,105.2Zm15.245-.053a4.962,4.962,0,0,0-4.931-5.17,5.183,5.183,0,0,0,0,10.366A4.985,4.985,0,0,0,256.743,105.15Zm6.363-4.375a14.151,14.151,0,0,1,14.37-14.449,14.68,14.68,0,0,1,10.207,3.9,14.2,14.2,0,0,1,2.6,3.314L285.589,96.4a8.576,8.576,0,0,0-8.06-4.852,9.254,9.254,0,0,0,.185,18.506,7.843,7.843,0,0,0,7.98-5.886h-8.829V99.053h14.608V101.2c0,7.556-5.382,14.052-13.76,14.052A14.241,14.241,0,0,1,263.106,100.776ZM292.8,95.553h5.25v3.155a5.421,5.421,0,0,1,5.329-3.155H305.5l-1.909,5.117h-1.432c-2.81,0-4.056,1.458-4.056,5.037V114.8h-5.276V95.553Zm14.052,0h5.276v19.275h-5.276V100.7h-1.909Zm2.651-2.916a3.155,3.155,0,1,0-3.155-3.155A3.146,3.146,0,0,0,309.5,92.636Zm3.871,12.567c0-6.814,5.011-10.022,9.359-10.022a7.761,7.761,0,0,1,5.753,2.28V86.7h5.276v28.13h-5.276V112.68a7.478,7.478,0,0,1-5.806,2.545C318.57,115.225,313.374,111.964,313.374,105.2Zm15.271-.053a4.962,4.962,0,0,0-4.931-5.17,5.183,5.183,0,0,0,0,10.366A5,5,0,0,0,328.645,105.15Zm-107.482,0a9.691,9.691,0,0,0-9.942-9.969A10.014,10.014,0,0,0,201.2,105.2a10.271,10.271,0,0,0,19.01,5.143l-4.189-2.492a5.1,5.1,0,0,1-4.613,2.757c-2.784,0-4.507-1.379-5.117-3.5h14.874V105.15Zm-14.635-2.307a5.056,5.056,0,0,1,4.746-3.049,4.47,4.47,0,0,1,4.587,3.049Z" transform="translate(-179.3 -86.3)" fill="#f8f8f8" />
    </g>
    <g id="Group_2122" data-name="Group 2122" transform="translate(6.252)">
        <rect id="Rectangle_1048" data-name="Rectangle 1048" width="11.03" height="11.03" transform="translate(11.03 22.086)" fill="#99e1f4" />
        <path id="Path_679" data-name="Path 679" d="M39.23,109H28.2v11.056H39.23Z" transform="translate(-28.2 -97.97)" fill="#99e1f4" />
        <rect id="Rectangle_1049" data-name="Rectangle 1049" width="11.03" height="11.03" transform="translate(0 22.086)" fill="#1a82e2" />
        <path id="Path_680" data-name="Path 680" d="M124.13,109H113.1v11.056h11.03Z" transform="translate(-91.014 -97.97)" fill="#00b2e3" />
        <rect id="Rectangle_1050" data-name="Rectangle 1050" width="11.03" height="11.03" transform="translate(11.03)" fill="#00b2e3" />
        <path id="Path_681" data-name="Path 681" d="M70.6,109v11.056H81.656V109H70.6Z" transform="translate(-59.57 -97.97)" fill="#009dd9" />
        <rect id="Rectangle_1051" data-name="Rectangle 1051" width="11.03" height="11.03" transform="translate(22.086)" fill="#1a82e2" />
    </g>
</svg>
