<svg xmlns="http://www.w3.org/2000/svg" width="385.399" height="109.042" viewBox="0 0 385.399 109.042"><g transform="translate(-818.518 -607.458)"><g style="isolation:isolate"><g style="isolation:isolate"><path d="M819.238,664.419l-.72-13.84h3.76c1.92,9.28,7.12,15.6,15.281,15.6,6.08,0,10-3.12,10-8.4,0-5.52-3.44-7.92-12.721-11.04-10-3.2-15.92-7.921-15.92-17.52,0-10.4,7.92-17.28,19.361-17.28,7.04,0,13.04,1.839,17.04,4.719v12.08h-3.36c-1.68-8.32-6.08-13.28-13.68-13.28-5.28,0-8.72,3.12-8.72,7.92,0,5.44,3.2,7.6,11.6,10.481,10.72,3.6,17.44,7.76,17.44,18.4,0,11.761-9.52,17.44-21.04,17.44C829.718,669.7,822.918,667.379,819.238,664.419Z" fill="#fff"/><path d="M882.2,662.739c0,2.64,1.281,3.04,4.72,3.281v2.88H864.6v-2.88c3.44-.241,4.72-.641,4.72-3.281V634.5l-4.64-2.8v-1.839l15.36-4.481h2.16Zm-13.6-48.4a6.837,6.837,0,0,1,7.12-6.88,6.849,6.849,0,1,1,0,13.681A6.775,6.775,0,0,1,868.6,614.338Z" fill="#fff"/><path d="M923.078,639.379c0-4.16-1.52-6.32-5.76-6.32a14.809,14.809,0,0,0-7.92,2.559v27.121c0,2.64,1.12,3.04,4.56,3.281v2.88H891.8v-2.88c3.44-.241,4.72-.641,4.72-3.281V634.5l-4.641-2.8v-1.839l15.441-4.481h2.4l-.32,7.921c3.2-3.92,7.76-7.921,14.8-7.921,7.6,0,11.76,4.32,11.76,13.041v24.32c0,2.64,1.281,3.04,4.721,3.281v2.88H918.518v-2.88c3.44-.241,4.56-.641,4.56-3.281Z" fill="#fff"/><path d="M955.157,652.5c-1.36,1.28-2.56,2.8-2.56,4.4a2.416,2.416,0,0,0,2.64,2.559h16.88c10,0,14.72,4.24,14.72,11.441,0,10.16-10,15.84-23.84,15.84-12.161,0-19.681-3.52-19.681-9.921,0-4.08,3.761-6.16,7.441-7.04a7.937,7.937,0,0,1-5.12-7.6c0-4.961,3.679-8.16,7.68-10.481-4.4-2-7.6-5.68-7.6-11.44,0-9.36,7.761-14.881,18.321-14.881a22.846,22.846,0,0,1,7.28,1.12l13.92-.319v4.96H981.8l-5.28-.24a11.056,11.056,0,0,1,5.04,9.2c0,8.64-7.6,13.68-18,13.68A26.727,26.727,0,0,1,955.157,652.5ZM952.2,671.22a5.638,5.638,0,0,0-1.12,3.84c0,5.12,4.8,8.24,12.32,8.24,7.6,0,14.4-2.24,14.4-7.92,0-3.04-1.92-4.16-5.44-4.16Zm17.36-31.121c0-6.24-1.92-11.68-6.08-11.68-4.08,0-5.6,4.159-5.6,10.56,0,6.48,2,11.921,6.16,11.921C968.117,650.9,969.557,646.819,969.557,640.1Z" fill="#fff"/><path d="M1032.437,660.1c0,2.719.24,3.759,3.04,3.92l1.92.08v2.8l-15.681,2.8h-2.32l.24-7.679c-3.12,3.679-7.36,7.679-14.08,7.679-7.12,0-11.84-4.08-11.84-13.2v-20.24c0-2.481-.56-3.92-3.44-4.561l-1.2-.239v-2.721l15.76-3.28H1007l-.4,9.841V655.06c0,4.479,1.68,7.12,5.84,7.12,2.8,0,4.8-1.04,7.2-2.321v-23.6c0-2.481-.56-3.92-3.44-4.561l-1.2-.239v-2.721l15.681-3.28h2.24l-.48,9.681Z" fill="#fff"/></g></g><g style="isolation:isolate"><g style="isolation:isolate"><path d="M1010.159,692.739c0,2.64,1.279,3.04,4.8,3.281v2.88h-22.4v-2.88c3.52-.241,4.8-.641,4.8-3.281V644.418l-4.64-2.4v-2l15.361-3.761h2.08Z" fill="#060b43"/><path d="M1055.518,690.1c0,2.319.4,4,2.4,4a7.386,7.386,0,0,0,2.96-.641l.48,1.92a12.451,12.451,0,0,1-9.76,4.32c-4.48,0-7.52-2.559-8.56-6.88-2.48,3.361-6.48,6.72-12.241,6.72-6.64,0-11.12-3.92-11.12-10.559,0-6.961,4.88-9.761,10.72-11.921l12.4-4.4v-7.44c0-4.16-1.28-7.04-4.961-7.04-3.44,0-4.879,2.72-4.879,6.559a20.279,20.279,0,0,0,.72,5.2l-7.68,1.04a5.247,5.247,0,0,1-3.761-5.281c0-6.96,7.2-10.32,16.481-10.32,10.64,0,16.8,3.6,16.8,13.521Zm-12.72.559v-14.88l-5.68,2.24c-3.12,1.28-5.12,2.881-5.12,7.44,0,4.16,1.759,7.12,5.919,7.12C1039.758,692.579,1041.038,691.859,1042.8,690.659Z" fill="#060b43"/><path d="M1082.4,691.779c0,3.361,1.76,3.76,6.56,4.241v2.88H1064.8v-2.88c3.44-.241,4.72-.641,4.72-3.281V664.5l-4.641-2.8v-1.839l15.441-4.481h2.4l-.32,12.081c3.52-9.04,6.08-12.081,10.96-12.081a4.952,4.952,0,0,1,3.76,1.36V666.5h-1.68c-5.04,0-9.2.239-13.04,3.68Z" fill="#060b43"/><path d="M1118.957,692.739c0,2.64,1.28,3.04,4.72,3.281v2.88h-22.32v-2.88c3.44-.241,4.72-.641,4.72-3.281V664.5l-4.64-2.8v-1.839l15.36-4.481h2.16Zm-13.6-48.4a6.837,6.837,0,0,1,7.12-6.88,6.849,6.849,0,1,1,0,13.681A6.775,6.775,0,0,1,1105.357,644.338Z" fill="#060b43"/><path d="M1144.717,656.179h9.92v4h-9.92v26.48c0,4.4,1.68,6.241,5.12,6.241a9.435,9.435,0,0,0,5.84-2.161l1.12,1.6a14.706,14.706,0,0,1-13.12,7.36c-6.881,0-11.841-3.519-11.841-12.719v-26.8h-4.8v-2.24a35.675,35.675,0,0,0,14.96-12.4h2.72Z" fill="#060b43"/><path d="M1194.557,664.1a6.355,6.355,0,0,0,.64-2.321c0-1.759-1.28-2.24-5.36-2.719v-2.88h14.08v2.88c-2.8.8-3.359,1.36-4.08,3.12l-17.92,44c-2.72,6.72-5.6,10.32-10.96,10.32-2.96,0-5.44-1.28-6.48-3.44v-4.88a24.775,24.775,0,0,0,5.84.72c4.4,0,6.88-1.2,8.48-5.121l1.28-3.12-17.681-38.48c-.8-1.76-1.279-2.32-4.08-3.12v-2.88h23.6v2.88c-4.16.479-5.36.96-5.36,2.719a6.648,6.648,0,0,0,.48,2.241l9.04,22.08Z" fill="#060b43"/></g></g></g></svg>