<svg id="Group_2129" data-name="Group 2129" xmlns="http://www.w3.org/2000/svg" viewBox="0 0 106 95.318">
    <g id="Group_2015" data-name="Group 2015" transform="translate(27.103)">
        <path id="Exclusion_1" data-name="Exclusion 1" d="M33.645,67.318h0a34.184,34.184,0,0,1-9.109-1.226A31.867,31.867,0,0,1,16.1,62.4,31.883,31.883,0,0,1,8.732,56.31,34.4,34.4,0,0,1,.481,39.3a31.953,31.953,0,0,1-.223-9.566,31.331,31.331,0,0,1,2.606-9.714A34.447,34.447,0,0,1,15.913,5.022a31.835,31.835,0,0,1,9.248-3.959,34.507,34.507,0,0,1,17.6.16,32.369,32.369,0,0,1,8.441,3.653A33.807,33.807,0,0,1,67.372,32.9,33.787,33.787,0,0,1,52.251,61.775a32.157,32.157,0,0,1-8.9,4.154A34.407,34.407,0,0,1,33.645,67.318Zm-.27-62.555h0a25.575,25.575,0,0,0-9.55,1.818C11.973,10.737,3.888,23.172,5.02,35.5,5.425,49.864,18.547,62.46,33.1,62.46c.823,0,1.654-.041,2.468-.123A27.6,27.6,0,0,0,55.879,51.92a27.786,27.786,0,0,0,6.329-22.094C60.875,16.006,47.94,4.763,33.376,4.763Z" transform="translate(0)" fill="#f8f8f8" />
        <path id="Path_677" data-name="Path 677" d="M82.126,72.723c7.384-6.033,14.607-12.275,22.152-18.13-3.957,6.081-8.027,12.081-11.985,18.162-3.394.016-6.788.016-10.167-.032Zm6.242,3.362c3.41,0,6.8,0,10.2.048-7.432,6-14.623,12.29-22.184,18.13,3.958-6.081,8.027-12.1,11.985-18.178Z" transform="translate(-56.644 -40.774)" fill="#f8f8f8" />
    </g>
    <text id="Socket.io" transform="translate(0 89.318)" fill="#f8f8f8" fontSize="23" fontFamily="Montserrat-Medium, Montserrat" fontWeight="500">
        <tspan x="0" y="0">Socket.io</tspan>
    </text>
</svg>
