<svg id="Group_2123" data-name="Group 2123" xmlns="http://www.w3.org/2000/svg" viewBox="0 0 102.708 68.047">
    <g id="Group_2057" data-name="Group 2057" transform="translate(9.569 0)">
        <path id="Path_692" data-name="Path 692" d="M30.394,4.727H8.751V15.579H19.4a.687.687,0,0,1,.687.687v10.5H31.081V5.415a.687.687,0,0,0-.687-.688Z" transform="translate(1.747 -4.727)" fill="#8e75ff" fill-rule="evenodd" />
        <path id="Path_693" data-name="Path 693" d="M10.891,4.727V15.579H.738A.344.344,0,0,1,.5,14.989ZM22.814,37.042a.344.344,0,0,1-.585-.245V26.768H33.222L22.814,37.04Z" transform="translate(-0.394 -4.727)" fill="#8e75ff" fill-rule="evenodd" opacity="0.405" />
        <path id="Path_694" data-name="Path 694" d="M8.75,13.365H19.745a.343.343,0,0,1,.343.343V24.554H9.438a.687.687,0,0,1-.687-.687v-10.5Z" transform="translate(1.747 -2.513)" fill="#8e75ff" opacity="0.405" />
    </g>
    <path id="Path_695" data-name="Path 695" d="M134.638,5.254a2.989,2.989,0,0,0,2.176.911,3.036,3.036,0,0,0,2.216-.911,2.926,2.926,0,0,0,.921-2.152A2.99,2.99,0,0,0,139.03.931,3.006,3.006,0,0,0,136.814,0a2.964,2.964,0,0,0-2.176.93,2.993,2.993,0,0,0-.921,2.173A2.925,2.925,0,0,0,134.638,5.254Zm-66.657,7.93a.117.117,0,0,1-.117.116H63.549v8.065a1.908,1.908,0,0,0,.51,1.474,2.355,2.355,0,0,0,1.49.523,20.859,20.859,0,0,0,2.187-.006l.122-.006a.116.116,0,0,1,.122.116v4.31a.116.116,0,0,1-.1.116L67.8,27.9q-5.069.533-7.169-.99-2.137-1.551-2.136-5.544V13.3H55.2a.116.116,0,0,1-.116-.116V8.607a.116.116,0,0,1,.116-.116h3.3v-3.2a.234.234,0,0,1,.139-.214l4.756-2.069a.116.116,0,0,1,.163.106V8.491h4.314a.116.116,0,0,1,.116.116v4.577Zm9.171-1.357a5.237,5.237,0,0,1,2.332-2.793,7.1,7.1,0,0,1,3.51-.93.117.117,0,0,1,.117.117v5.257a.188.188,0,0,1-.207.187,5.969,5.969,0,0,0-3.93.952,4.422,4.422,0,0,0-1.822,3.994v9.151a.116.116,0,0,1-.117.116H72.208a.116.116,0,0,1-.116-.116V8.605a.116.116,0,0,1,.116-.116h4.827a.116.116,0,0,1,.116.116v3.219Zm23.914-3.335a.116.116,0,0,0-.117.116V10.78a7.728,7.728,0,0,0-6.391-2.832,8.926,8.926,0,0,0-6.723,2.966,10.185,10.185,0,0,0-2.8,7.27,10.185,10.185,0,0,0,2.8,7.27,8.926,8.926,0,0,0,6.723,2.966,7.733,7.733,0,0,0,6.391-2.83v2.172a.117.117,0,0,0,.117.116h4.825a.116.116,0,0,0,.117-.116V8.605a.116.116,0,0,0-.117-.116h-4.825ZM91.619,22.139a5.45,5.45,0,0,0,9.33-3.955,5.432,5.432,0,1,0-10.86,0,5.394,5.394,0,0,0,1.53,3.955ZM128.49,10.914a8.972,8.972,0,0,0-6.764-2.966,7.622,7.622,0,0,0-6.352,2.83V8.607a.116.116,0,0,0-.116-.116h-4.827a.116.116,0,0,0-.116.116V35.516a.116.116,0,0,0,.116.117h4.827a.117.117,0,0,0,.116-.117V25.59a7.622,7.622,0,0,0,6.352,2.83,8.972,8.972,0,0,0,6.764-2.966,10.19,10.19,0,0,0,2.8-7.27,10.19,10.19,0,0,0-2.8-7.27ZM116.9,22.139a5.452,5.452,0,0,0,9.332-3.955,5.432,5.432,0,1,0-10.86,0,5.4,5.4,0,0,0,1.529,3.955Zm17.517,5.739a.116.116,0,0,1-.116-.116V8.605a.116.116,0,0,1,.116-.116h4.827a.115.115,0,0,1,.116.116V27.763a.116.116,0,0,1-.116.116h-4.827ZM44.24,15.257Q43.2,14.773,43.2,14a1.324,1.324,0,0,1,.647-1.163,2.9,2.9,0,0,1,1.627-.427,3.187,3.187,0,0,1,2.839,1.45.167.167,0,0,0,.2.063l4.269-1.868a.116.116,0,0,0,.053-.163q-.074-.123-.151-.244a7.621,7.621,0,0,0-2.863-2.629,8.955,8.955,0,0,0-4.352-1.067A8.441,8.441,0,0,0,40.161,9.6a5.394,5.394,0,0,0-2.136,4.516,4.805,4.805,0,0,0,1.039,3.161,6.114,6.114,0,0,0,2.529,1.842,26.532,26.532,0,0,0,2.98.969,15,15,0,0,1,2.529.873q1.038.484,1.039,1.26,0,1.668-2.7,1.667A3.677,3.677,0,0,1,41.867,22a.232.232,0,0,0-.3-.109l-4.256,1.866a.116.116,0,0,0-.058.156l.048.1q2.231,4.409,8.134,4.409a9.445,9.445,0,0,0,5.626-1.608,5.308,5.308,0,0,0,2.255-4.6,5.164,5.164,0,0,0-1.039-3.3,5.779,5.779,0,0,0-2.529-1.879,26.37,26.37,0,0,0-2.98-.931,13.9,13.9,0,0,1-2.529-.854Z" transform="translate(-37.243 32.414)" fill="#f8f8f8" fill-rule="evenodd" />
</svg>
