<svg id="Group_2163" data-name="Group 2163" xmlns="http://www.w3.org/2000/svg" viewBox="0 0 133.509 50.988">
    <path id="Path_689" data-name="Path 689" d="M21.464,2q-7.785,0-9.732,7.786,2.92-3.893,6.813-2.92A8.294,8.294,0,0,1,22.256,9.5c1.908,1.937,4.117,4.179,8.941,4.179q7.785,0,9.732-7.786-2.92,3.893-6.813,2.92a8.3,8.3,0,0,1-3.711-2.634C28.5,4.242,26.289,2,21.464,2ZM11.732,13.679q-7.785,0-9.732,7.786,2.92-3.893,6.813-2.92a8.3,8.3,0,0,1,3.711,2.634c1.908,1.937,4.117,4.179,8.941,4.179q7.785,0,9.732-7.786-2.92,3.893-6.813,2.92a8.3,8.3,0,0,1-3.711-2.634C18.766,15.921,16.556,13.679,11.732,13.679Z" transform="translate(-1.569 -2)" fill="#16bdca" />
    <path id="Path_690" data-name="Path 690" d="M60,10.852V7.815h-3.62V3.728l-3.153.934V7.815H50.54v3.036h2.686v7.007c0,3.8,1.927,5.139,6.774,4.555V19.582c-2.394.117-3.62.146-3.62-1.723V10.852H60ZM73.822,7.815V9.888a6.051,6.051,0,0,0-5.109-2.453,7.442,7.442,0,0,0-7.27,7.679,7.461,7.461,0,0,0,7.27,7.679,6,6,0,0,0,5.109-2.482v2.1h3.153V7.815ZM69.209,19.786A4.511,4.511,0,0,1,64.6,15.114a4.613,4.613,0,1,1,9.226,0A4.511,4.511,0,0,1,69.209,19.786ZM82.228,5.625a2.015,2.015,0,1,0-2.015-2.015A2.038,2.038,0,0,0,82.228,5.625ZM80.652,22.414H83.8V7.815H80.652Zm6.815,0h3.153V1.1H87.466ZM111.1,7.815l-2.861,10.073L105.2,7.815h-3.007L99.127,17.888,96.3,7.815H92.967l4.584,14.6h3.095l3.066-9.839,3.036,9.839h3.095l4.584-14.6H111.1Zm7.227-2.19a2.015,2.015,0,1,0-2.015-2.015A2.038,2.038,0,0,0,118.325,5.625Zm-1.577,16.788H119.9V7.815h-3.153ZM131.242,7.436a5.026,5.026,0,0,0-4.525,2.248V7.815h-3.153v14.6h3.153V14.589c0-2.978,1.635-4.2,3.708-4.2a3.043,3.043,0,0,1,3.27,3.387v8.642h3.153V13.45c0-3.8-2.336-6.015-5.606-6.015ZM151.8,1.976V9.888a6.051,6.051,0,0,0-5.109-2.453,7.442,7.442,0,0,0-7.27,7.679,7.461,7.461,0,0,0,7.27,7.679,6,6,0,0,0,5.109-2.482v2.1h3.153V1.976Zm-4.613,17.81a4.511,4.511,0,0,1-4.613-4.671,4.613,4.613,0,1,1,9.226,0A4.511,4.511,0,0,1,147.191,19.786Z" transform="translate(-50.54 28.194)" fill="#050b1f" />
    <path id="Path_691" data-name="Path 691" d="M170.839,3.946h9.732a3.893,3.893,0,0,1,3.893,3.893v9.732a3.893,3.893,0,0,1-3.893,3.893h-9.732a3.893,3.893,0,0,1-3.893-3.893V7.839A3.893,3.893,0,0,1,170.839,3.946ZM165,7.839A5.839,5.839,0,0,1,170.839,2h9.732a5.839,5.839,0,0,1,5.839,5.839v9.732a5.839,5.839,0,0,1-5.839,5.839h-9.732A5.839,5.839,0,0,1,165,17.572Zm12.473,7.1c0,2.057-1.553,3.311-3.652,3.311s-3.638-1.254-3.638-3.311V8.521h1.867v6.268c0,.927.49,1.621,1.771,1.621s1.771-.695,1.771-1.621V8.521h1.88v6.417Zm1.967,3.12V8.521h1.88v9.538h-1.88Z" transform="translate(-52.902 27.576)" fill="#050b1f" fill-rule="evenodd" />
</svg>