<svg width="318" height="99" viewBox="0 0 318 99" fill="none" xmlns="http://www.w3.org/2000/svg">
<path d="M144.418 57.763V8.83903L139.801 6.40903V4.38403L155.353 0.577026H157.459V27.955C160.699 23.986 165.397 19.936 172.444 19.936C180.139 19.936 184.351 24.391 184.351 33.22V57.763C184.351 60.436 185.647 60.841 189.13 61.084V64H166.693V61.084C170.176 60.841 171.31 60.436 171.31 57.763V34.111C171.31 29.899 169.771 27.712 165.478 27.712C162.481 27.712 159.808 28.846 157.459 30.304V57.763C157.459 60.436 158.593 60.841 162.076 61.084V64H139.639V61.084C143.122 60.841 144.418 60.436 144.418 57.763Z" fill="#F1F1F4"/>
<path d="M110.289 38.647C110.289 49.096 115.068 55.819 123.249 55.819C128.109 55.819 131.673 53.956 134.265 50.149L135.885 51.04C133.293 60.355 127.056 64.81 118.389 64.81C107.292 64.81 99.03 56.71 99.03 43.75C99.03 30.142 107.454 19.936 120.576 19.936C128.595 19.936 134.67 23.095 134.67 29.737C134.67 32.572 133.131 34.597 131.349 35.407H124.464C124.626 33.868 124.788 32.572 124.788 31.114C124.788 26.659 123.411 23.257 119.199 23.257C113.61 23.257 110.289 29.98 110.289 38.647Z" fill="#F1F1F4"/>
<path d="M76.1449 19.936C87.4039 19.936 93.2359 27.226 93.2359 37.27V39.133H67.0729C66.8299 49.744 72.4189 56.062 80.0329 56.062C85.4599 56.062 89.1859 53.956 92.1829 49.825L93.5599 50.635C91.4539 59.14 85.3789 64.81 75.5779 64.81C63.7519 64.81 55.3279 56.467 55.3279 43.426C55.3279 29.251 64.7239 19.936 76.1449 19.936ZM75.2539 23.095C70.3129 23.095 67.7209 28.36 67.2349 35.812H81.8149C81.8149 28.117 80.0329 23.095 75.2539 23.095Z" fill="#F1F1F4"/>
<path d="M1.51612 7.13794H52.6271L53.8421 26.6589H50.9261C45.4181 14.2659 43.3121 10.2159 37.4801 10.2159H33.9971V55.6569C33.9971 60.0309 35.5361 60.2739 40.9631 60.9219V63.9999H13.1801V60.9219C18.6071 60.2739 20.2271 60.0309 20.2271 55.6569V10.2159H16.6631C10.8311 10.2159 8.72512 14.2659 3.21712 26.6589H0.301117L1.51612 7.13794Z" fill="#F1F1F4"/>
<path d="M292.781 58.148C286.463 58.148 282.98 64.547 282.98 74.105C282.98 84.068 286.787 91.196 293.591 91.196C295.859 91.196 297.803 90.548 299.423 89.333V67.382C299.423 61.469 297.317 58.148 292.781 58.148ZM299.423 42.839L294.725 40.409V38.384L310.358 34.577H312.464V89.09C312.464 91.844 312.626 92.897 315.542 93.059L317.486 93.14V95.975L301.529 98.81H299.18L299.423 91.196C296.102 95.975 291.89 98.81 286.301 98.81C276.662 98.81 270.02 91.115 270.02 78.398C270.02 62.846 279.254 54.179 290.999 54.179C294.563 54.179 297.479 55.151 299.423 56.771V42.839Z" fill="#828495"/>
<path d="M243.121 91.601C244.984 91.601 246.28 90.872 248.062 89.657V74.591L242.311 76.859C239.152 78.155 237.127 79.775 237.127 84.392C237.127 88.604 238.909 91.601 243.121 91.601ZM260.941 67.625V89.09C260.941 91.439 261.346 93.14 263.371 93.14C264.586 93.14 265.639 92.816 266.368 92.492L266.854 94.436C264.424 97.19 261.184 98.81 256.972 98.81C252.436 98.81 249.358 96.218 248.305 91.844C245.794 95.246 241.744 98.648 235.912 98.648C229.189 98.648 224.653 94.679 224.653 87.956C224.653 80.909 229.594 78.074 235.507 75.887L248.062 71.432V63.899C248.062 59.687 246.766 56.771 243.04 56.771C239.557 56.771 238.099 59.525 238.099 63.413C238.099 65.114 238.342 66.815 238.828 68.678L231.052 69.731C228.784 69.002 227.245 67.139 227.245 64.385C227.245 57.338 234.535 53.936 243.931 53.936C254.704 53.936 260.941 57.581 260.941 67.625Z" fill="#828495"/>
<path d="M202.326 53.936C213.585 53.936 219.417 61.226 219.417 71.27V73.133H193.254C193.011 83.744 198.6 90.062 206.214 90.062C211.641 90.062 215.367 87.956 218.364 83.825L219.741 84.635C217.635 93.14 211.56 98.81 201.759 98.81C189.933 98.81 181.509 90.467 181.509 77.426C181.509 63.251 190.905 53.936 202.326 53.936ZM201.435 57.095C196.494 57.095 193.902 62.36 193.416 69.812H207.996C207.996 62.117 206.214 57.095 201.435 57.095Z" fill="#828495"/>
<path d="M148.566 49.8049V89.0089C148.566 93.3829 150.591 94.5169 155.289 94.5169H158.205C163.956 94.5169 166.791 90.9529 173.352 79.6129H176.43L173.514 97.9999H128.64V94.9219C134.148 94.2739 134.796 93.7069 134.796 89.3329V49.8049C134.796 45.4309 134.148 44.8639 128.64 44.2159V41.1379H154.803V44.2159C149.214 44.8639 148.566 45.4309 148.566 49.8049Z" fill="#828495"/>
</svg>
