<svg xmlns="http://www.w3.org/2000/svg" width="334.56" height="109.282" viewBox="0 0 334.56 109.282"><g transform="translate(-817.318 -783.458)"><g style="isolation:isolate"><g style="isolation:isolate"><path d="M869,788.738l1.2,19.281h-2.88c-5.44-12.241-7.52-16.241-13.28-16.241H850.6v44.881c0,4.321,1.52,4.561,6.88,5.2V844.9h-27.44v-3.041c5.359-.639,6.96-.879,6.96-5.2V791.778h-3.52c-5.761,0-7.841,4-13.281,16.241h-2.88l1.2-19.281Z" fill="#fff"/><path d="M892.678,838.739c0,2.64,1.28,3.04,4.72,3.281v2.88h-22.32v-2.88c3.44-.241,4.72-.641,4.72-3.281V810.5l-4.64-2.8v-1.839l15.36-4.481h2.16Zm-13.6-48.4a6.837,6.837,0,0,1,7.12-6.88,6.849,6.849,0,1,1,0,13.681A6.775,6.775,0,0,1,879.078,790.338Z" fill="#fff"/><path d="M926.2,836.819a12.24,12.24,0,0,0,10.88-5.6l1.6.88c-2.56,9.2-8.72,13.6-17.281,13.6-10.96,0-19.12-8-19.12-20.8,0-13.441,8.32-23.522,21.281-23.522,7.92,0,13.92,3.12,13.92,9.681a5.981,5.981,0,0,1-3.28,5.6h-6.8a39.025,39.025,0,0,0,.321-4.24c0-4.4-1.36-7.761-5.52-7.761-5.521,0-8.8,6.641-8.8,15.2C913.4,830.179,918.118,836.819,926.2,836.819Z" fill="#fff"/><path d="M944.036,823.219v-5.6h20.8v5.6Z" fill="#fff"/><path d="M987.076,802.179H997v4h-9.921v26.48c0,4.4,1.68,6.241,5.12,6.241a9.44,9.44,0,0,0,5.841-2.161l1.119,1.6a14.706,14.706,0,0,1-13.12,7.36c-6.88,0-11.84-3.519-11.84-12.719v-26.8h-4.8v-2.24a35.676,35.676,0,0,0,14.96-12.4h2.72Z" fill="#fff"/><path d="M1038.756,836.1c0,2.319.4,4,2.4,4a7.385,7.385,0,0,0,2.96-.641l.48,1.92a12.451,12.451,0,0,1-9.76,4.32c-4.481,0-7.521-2.559-8.561-6.88-2.48,3.361-6.48,6.72-12.24,6.72-6.64,0-11.12-3.92-11.12-10.559,0-6.961,4.88-9.761,10.72-11.921l12.4-4.4v-7.44c0-4.16-1.281-7.04-4.961-7.04-3.44,0-4.88,2.72-4.88,6.559a20.28,20.28,0,0,0,.721,5.2l-7.681,1.04a5.247,5.247,0,0,1-3.76-5.281c0-6.96,7.2-10.32,16.481-10.32,10.64,0,16.8,3.6,16.8,13.521Zm-12.72.559v-14.88l-5.681,2.24c-3.12,1.28-5.12,2.881-5.12,7.44,0,4.16,1.76,7.12,5.92,7.12C1023,838.579,1024.275,837.859,1026.036,836.659Z" fill="#fff"/><path d="M1071.955,836.819a12.24,12.24,0,0,0,10.88-5.6l1.6.88c-2.56,9.2-8.72,13.6-17.28,13.6-10.96,0-19.12-8-19.12-20.8,0-13.441,8.319-23.522,21.28-23.522,7.92,0,13.92,3.12,13.92,9.681a5.981,5.981,0,0,1-3.28,5.6h-6.8a39.3,39.3,0,0,0,.32-4.24c0-4.4-1.36-7.761-5.52-7.761-5.52,0-8.8,6.641-8.8,15.2C1059.155,830.179,1063.875,836.819,1071.955,836.819Z" fill="#fff"/></g></g><g style="isolation:isolate"><g style="isolation:isolate"><path d="M1036.518,853.219v-5.6h20.8v5.6Z" fill="#060b43"/><path d="M1074.6,858.5c-1.36,1.28-2.56,2.8-2.56,4.4a2.416,2.416,0,0,0,2.64,2.559h16.88c10,0,14.72,4.24,14.72,11.441,0,10.16-10,15.84-23.84,15.84-12.161,0-19.681-3.52-19.681-9.921,0-4.08,3.761-6.16,7.441-7.04a7.935,7.935,0,0,1-5.12-7.6c0-4.961,3.679-8.16,7.68-10.481-4.4-2-7.6-5.68-7.6-11.44,0-9.36,7.76-14.881,18.321-14.881a22.846,22.846,0,0,1,7.28,1.12l13.92-.319v4.96h-3.44l-5.28-.24a11.056,11.056,0,0,1,5.04,9.2c0,8.64-7.6,13.68-18,13.68A26.727,26.727,0,0,1,1074.6,858.5Zm-2.96,18.721a5.638,5.638,0,0,0-1.12,3.84c0,5.12,4.8,8.24,12.32,8.24,7.6,0,14.4-2.24,14.4-7.92,0-3.04-1.92-4.16-5.44-4.16ZM1089,846.1c0-6.24-1.92-11.68-6.08-11.68-4.08,0-5.6,4.159-5.6,10.56,0,6.48,2,11.921,6.16,11.921C1087.558,856.9,1089,852.819,1089,846.1Z" fill="#060b43"/><path d="M1108.917,854.419c0-13.52,9.041-23.041,21.521-23.041,12.72,0,21.44,8.4,21.44,21.281,0,13.521-9.12,23.04-21.6,23.04C1117.558,875.7,1108.917,867.3,1108.917,854.419Zm29.281,1.36c0-12.48-2.32-21.281-8.16-21.281-5.36,0-7.52,6.481-7.52,16.8,0,12.48,2.319,21.28,8.16,21.28C1136.038,872.579,1138.2,866.1,1138.2,855.779Z" fill="#060b43"/></g></g></g></svg>