<svg xmlns="http://www.w3.org/2000/svg" width="156.762" height="87.961" viewBox="0 0 156.762 87.961"><g transform="translate(-1727.158 -935.101)"><g style="isolation:isolate"><g style="isolation:isolate"><path d="M1746.839,970.621c0,9.521,3.92,15.361,12.64,15.361,8.161,0,14.161-4.321,14.161-15.76V943.66c0-4.239-1.04-4.96-7.6-5.519V935.1h18.481v3.04c-5.52.639-6.161,1.28-6.161,5.519v28.081c0,13.841-9.6,20.321-21.68,20.321-14.8,0-23.441-6.64-23.441-20.4v-28c0-4.319-.639-4.88-6.08-5.519V935.1H1753v3.04c-5.52.639-6.16,1.2-6.16,5.519Z" fill="#f1f1f4"/><path d="M1809.318,982.7c0,4.321.641,4.881,6.161,5.521v3.04h-25.84v-3.04c5.439-.64,6.08-1.2,6.08-5.521V943.66c0-4.319-.641-4.88-6.08-5.519V935.1h25.84v3.04c-5.52.639-6.161,1.2-6.161,5.519Z" fill="#f1f1f4"/></g></g><g style="isolation:isolate"><g style="isolation:isolate"><path d="M1785.839,1001.621c0,9.521,3.92,15.361,12.64,15.361,8.161,0,14.161-4.321,14.161-15.76V974.66c0-4.239-1.04-4.96-7.6-5.519V966.1h18.481v3.04c-5.52.639-6.161,1.28-6.161,5.519v28.081c0,13.841-9.6,20.321-21.68,20.321-14.8,0-23.441-6.64-23.441-20.4v-28c0-4.319-.639-4.88-6.08-5.519V966.1H1792v3.04c-5.52.639-6.16,1.2-6.16,5.519Z" fill="#828495"/><path d="M1851.279,998.741l-11.36,14.8a5.545,5.545,0,0,0-1.28,2.96c0,1.68,2.4,2.56,6.48,2.72v3.04H1826.4v-3.04c3.2-.321,4.64-1.12,6.081-3.12l16.4-20.961-15.441-22.88a6.823,6.823,0,0,0-5.52-3.12V966.1h26.561v3.04c-3.44,0-5.121.4-5.121,2.24,0,1.12.641,2.24,1.841,4l7.36,11.12,8.88-11.681a6.2,6.2,0,0,0,1.36-3.12c0-1.759-2.08-2.479-5.52-2.559V966.1h17.6v3.04c-3.2.32-4.721,1.2-6.16,3.12l-13.761,17.84,17.04,25.52a7.182,7.182,0,0,0,5.921,3.6v3.04h-27.281v-3.04c4.16-.08,6-.481,6-2.481,0-.96-.48-1.92-1.68-3.679Z" fill="#828495"/></g></g></g></svg>