<svg width="56" height="56" viewBox="0 0 56 56" fill="none" xmlns="http://www.w3.org/2000/svg">
<rect width="56" height="56" fill="#1E1E1E"/>
<g id="Vector">
<path d="M53.1089 0.430769H26.722C26.722 3.60963 27.9769 6.6583 30.2108 8.9061C32.4446 11.1539 35.4743 12.4167 38.6335 12.4167H43.4942V17.1392C43.4985 23.7528 48.8255 29.1132 55.398 29.1176V2.73414C55.398 1.46239 54.3734 0.430769 53.1089 0.430769Z" fill="#2684FF"/>
<path d="M40.0527 13.6606H13.666C13.67 20.2742 18.997 25.6346 25.5697 25.639H30.4305V30.3766C30.4389 36.9902 35.7694 42.347 42.342 42.347V15.9644C42.342 14.6922 41.317 13.6606 40.0527 13.6606Z" fill="url(#paint0_linear_0_1)"/>
<path d="M26.989 26.8829H0.602007C0.602007 33.5025 5.93515 38.8688 12.5135 38.8688H17.3895V43.5911C17.3938 50.1986 22.7115 55.5567 29.2782 55.5692V29.1865C29.2782 27.9143 28.2532 26.8829 26.989 26.8829Z" fill="url(#paint1_linear_0_1)"/>
</g>
<defs>
<linearGradient id="paint0_linear_0_1" x1="13715.9" y1="25.8162" x2="8200.23" y2="6394.1" gradientUnits="userSpaceOnUse">
<stop offset="0.18" stop-color="#0052CC"/>
<stop offset="1" stop-color="#2684FF"/>
</linearGradient>
<linearGradient id="paint1_linear_0_1" x1="7371.02" y1="64.2071" x2="4055.71" y2="3694.69" gradientUnits="userSpaceOnUse">
<stop offset="0.18" stop-color="#0052CC"/>
<stop offset="1" stop-color="#2684FF"/>
</linearGradient>
</defs>
</svg>
