<svg xmlns="http://www.w3.org/2000/svg"  viewBox="0 0 223.094 224.113">
    <g id="Group_2200" data-name="Group 2200" transform="translate(-17433.281 -7977.226)">
        <path id="Path_1051" data-name="Path 1051" d="M54.346,207.039l3.373,2a92.2,92.2,0,0,0,46.99,12.868h.036A92.314,92.314,0,1,0,26.533,178.65l2.2,3.493L19.4,216.2ZM-7.267,242.582l15.758-57.54a111.087,111.087,0,1,1,96.256,55.619H104.7a110.983,110.983,0,0,1-53.08-13.518Z" transform="translate(17440.549 7958.734)" fill="#fff" />
        <path id="Path_1052" data-name="Path 1052" d="M-6.171,125.885A106.992,106.992,0,0,0,8.144,179.477L-7.07,235.026,49.776,220.12a107.217,107.217,0,0,0,51.242,13.046h.046A107.238,107.238,0,1,0-6.173,125.885M101.062,233.166h0" transform="translate(17444.215 7962.436)" fill="#25e088" />
        <path id="Path_1053" data-name="Path 1053" d="M-6.334,129.533A110.837,110.837,0,0,0,8.493,185.047L-7.267,242.584l58.885-15.44a111.011,111.011,0,0,0,53.08,13.518h.047A111.085,111.085,0,1,0-6.335,129.53m35.067,52.616-2.2-3.491a92.33,92.33,0,1,1,78.211,43.252h-.036a92.219,92.219,0,0,1-46.99-12.867l-3.373-2L19.4,216.2Zm76.015,58.517h0" transform="translate(17440.549 7958.755)" fill="#060b43" />
        <path id="Path_1054" data-name="Path 1054" d="M24.243,26.4c-2.079-4.622-4.267-4.715-6.245-4.8-1.619-.069-3.47-.064-5.319-.064a10.194,10.194,0,0,0-7.4,3.472C2.734,27.786-4.436,34.5-4.436,48.155S5.51,75.006,6.9,76.86s19.2,30.769,47.41,41.893C77.752,128,82.523,126.159,87.611,125.7s16.421-6.712,18.733-13.193,2.313-12.035,1.62-13.2-2.545-1.851-5.32-3.238-16.421-8.1-18.965-9.029-4.4-1.387-6.246,1.392-7.166,9.025-8.786,10.876-3.238,2.086-6.014.7-11.716-4.321-22.32-13.775a83.613,83.613,0,0,1-15.441-19.22c-1.619-2.775-.173-4.279,1.219-5.662,1.247-1.244,2.776-3.241,4.165-4.86a19.017,19.017,0,0,0,2.772-4.629A5.107,5.107,0,0,0,32.8,47c-.695-1.388-6.088-15.113-8.556-20.6" transform="translate(17493.289 8015.465)" fill="#fff" fill-rule="evenodd" />
    </g>
</svg>
