<svg id="AdobeXD" xmlns="http://www.w3.org/2000/svg" viewBox="0 0 80.622 78.606">
    <g id="Surfaces">
        <g id="UI_UX_Surface">
            <g id="Outline_no_shadow">
                <path id="Path_705" data-name="Path 705" d="M14.277,0H66.345A14.265,14.265,0,0,1,80.622,14.277V64.33A14.265,14.265,0,0,1,66.345,78.606H14.277A14.265,14.265,0,0,1,0,64.33V14.277A14.265,14.265,0,0,1,14.277,0Z" fill="#470137" />
            </g>
        </g>
    </g>
    <g id="Outlined_Mnemonics_Logos" transform="translate(11.744 17.228)">
        <g id="Xd">
            <path id="Path_706" data-name="Path 706" d="M65.61,60.5,55.533,77.132l10.75,17.636a.578.578,0,0,1,.067.4c-.034.134-.168.034-.37.067H58.287c-.537,0-.907-.034-1.142-.37-.705-1.411-1.444-2.788-2.15-4.2-.705-1.377-1.478-2.788-2.284-4.233S51.1,83.548,50.292,82.07h-.067c-.705,1.444-1.478,2.889-2.251,4.333s-1.545,2.889-2.284,4.3c-.773,1.411-1.545,2.855-2.318,4.233-.134.336-.4.37-.773.37h-7.39c-.134,0-.235.067-.235-.1a.466.466,0,0,1,.067-.37L45.488,77.7,35.31,60.47c-.1-.134-.134-.269-.067-.336A.39.39,0,0,1,35.579,60H43.2a1.983,1.983,0,0,1,.47.067.953.953,0,0,1,.336.3c.638,1.444,1.377,2.889,2.15,4.333.806,1.444,1.579,2.855,2.419,4.266.806,1.411,1.545,2.822,2.251,4.266H50.9c.705-1.478,1.444-2.923,2.184-4.333s1.512-2.822,2.284-4.233,1.512-2.855,2.251-4.233a.571.571,0,0,1,.2-.336.641.641,0,0,1,.437-.067h7.088a.309.309,0,0,1,.37.235c.034.034-.034.168-.1.235Z" transform="translate(-34.961 -57.072)" fill="#ff61f6" />
            <path id="Path_707" data-name="Path 707" d="M144.44,90.156a16.7,16.7,0,0,1-7.222-1.512,11.712,11.712,0,0,1-5.072-4.569,14.536,14.536,0,0,1-1.848-7.659,13.8,13.8,0,0,1,1.848-7.088,13.951,13.951,0,0,1,5.341-5.207,17.183,17.183,0,0,1,8.5-1.948,6,6,0,0,1,.705.034c.3.034.638.034,1.041.067V51.659c0-.235.1-.37.336-.37h6.819a.3.3,0,0,1,.336.235V83.572c0,.6.034,1.277.067,2.016.067.705.1,1.377.134,1.948a.546.546,0,0,1-.336.538,25.654,25.654,0,0,1-5.476,1.612A29.63,29.63,0,0,1,144.44,90.156Zm3.292-6.719V68.657a8.591,8.591,0,0,0-.907-.168c-.37-.034-.739-.067-1.109-.067a8.281,8.281,0,0,0-3.8.873,7.531,7.531,0,0,0-2.855,2.486,7.447,7.447,0,0,0-1.109,4.266,9.361,9.361,0,0,0,.571,3.46,6.566,6.566,0,0,0,1.512,2.385,5.8,5.8,0,0,0,2.284,1.344,8.794,8.794,0,0,0,2.788.437c.5,0,.974-.034,1.411-.067A2.937,2.937,0,0,0,147.732,83.438Z" transform="translate(-98.271 -51.284)" fill="#ff61f6" />
        </g>
    </g>
</svg>